<?xml version="1.0" encoding="UTF-8"?>
<svg width="500px" height="141px" viewBox="0 0 500 141" version="1.1" xmlns="http://www.w3.org/2000/svg" xmlns:xlink="http://www.w3.org/1999/xlink">
    <title>3603@3x</title>
    <defs>
        <linearGradient x1="11.7139277%" y1="17.8575466%" x2="88.3134907%" y2="82.132197%" id="linearGradient-1">
            <stop stop-color="#F5E55A" offset="0%"></stop>
            <stop stop-color="#F5E153" offset="22.42%"></stop>
            <stop stop-color="#F5D53E" offset="53.47%"></stop>
            <stop stop-color="#F5CA27" offset="75%"></stop>
        </linearGradient>
        <linearGradient x1="49.9871983%" y1="0.0832366117%" x2="49.9871983%" y2="100.121159%" id="linearGradient-2">
            <stop stop-color="#43B152" offset="0%"></stop>
            <stop stop-color="#3EAF54" offset="27.75%"></stop>
            <stop stop-color="#32A657" offset="61.72%"></stop>
            <stop stop-color="#11985C" offset="98.83%"></stop>
            <stop stop-color="#0F975C" offset="100%"></stop>
        </linearGradient>
        <linearGradient x1="50.0197562%" y1="-0.00247089895%" x2="50.0197562%" y2="100.035452%" id="linearGradient-3">
            <stop stop-color="#43B152" offset="0%"></stop>
            <stop stop-color="#3EAF54" offset="27.75%"></stop>
            <stop stop-color="#32A657" offset="61.72%"></stop>
            <stop stop-color="#11985C" offset="98.83%"></stop>
            <stop stop-color="#0F975C" offset="100%"></stop>
        </linearGradient>
    </defs>
    <g id="3603" stroke="none" stroke-width="1" fill="none" fill-rule="evenodd">
        <g id="453342" transform="translate(0.000000, 0.000000)">
            <g id="编组" transform="translate(155.816435, 25.121090)" fill="#37B057" fill-rule="nonzero">
                <path d="M107.790822,32.4275511 C107.790822,15.7622527 93.2599951,0.041047533 75.4043182,0.041047533 L3.73325138e-13,0.041047533 L3.73325138e-13,5.58246449 C3.73325138e-13,10.1387407 3.69427797,13.8740662 8.29160167,13.8740662 L75.2401281,13.8740662 C85.5841064,13.8740662 93.9578031,22.2477629 93.9578031,32.5917412 L93.9578031,37.1480174 L93.9578031,38.2973483 L92.7674247,38.3383959 L9.35883753,38.3383959 L9.35883753,52.1714145 L92.8084722,52.1714145 L93.9578031,52.1714145 L93.9988507,53.361793 L93.9988507,60.3398736 C93.9988507,70.6428044 85.6662015,78.9754536 75.3632707,78.9754536 L8.41474427,78.9754536 C3.81742057,78.9754536 0.0820950661,82.7107791 0.0820950661,87.3081028 L0.0820950661,92.7674247 L75.0348904,92.7674247 C83.0802069,92.7674247 90.1403826,89.8940974 96.2975125,84.7221082 C104.096544,78.236598 107.790822,67.8515721 107.790822,60.6682538 L107.790822,32.4275511 Z" id="XMLID_10_"></path>
                <path d="M119.981939,32.4685986 L119.981939,60.3809211 C119.981939,78.2776455 134.512766,92.8084722 152.40949,92.8084722 L202.815861,92.8084722 C215.663739,92.8084722 226.089812,82.3823988 226.089812,69.534521 L226.089812,61.5712996 C226.089812,48.7234217 215.663739,38.2973483 202.815861,38.2973483 L134.964289,38.2973483 L133.814958,38.2973483 L133.814958,37.1480174 L133.814958,32.4685986 C133.814958,22.2067154 142.147607,13.8740662 152.40949,13.8740662 L217.757163,13.8740662 C222.354486,13.8740662 226.048764,10.1387407 226.048764,5.58246449 L226.048764,0.041047533 L152.40949,0.041047533 C134.512766,0.041047533 119.981939,14.5308267 119.981939,32.4685986 Z M134.964289,52.130367 L202.774813,52.130367 C207.98785,52.130367 212.215746,56.3582629 212.215746,61.5712996 L212.215746,69.534521 C212.215746,74.7475577 207.98785,78.9754536 202.774813,78.9754536 L152.368443,78.9754536 C142.106559,78.9754536 133.77391,70.6428044 133.77391,60.3809211 L133.77391,53.2796979 L133.77391,52.130367 L134.964289,52.130367 Z" id="XMLID_7_"></path>
                <path d="M238.198834,60.3398736 C238.198834,78.1955504 252.729661,92.7674247 270.626385,92.7674247 L311.756013,92.7674247 C329.61169,92.7674247 344.183565,78.236598 344.183565,60.3398736 L344.183565,32.4275511 C344.183565,14.5718742 329.652738,0 311.756013,0 L270.626385,0 C252.770708,0 238.198834,14.5308267 238.198834,32.4275511 L238.198834,60.3398736 Z M252.031853,32.4685986 C252.031853,22.2067154 260.364502,13.8740662 270.626385,13.8740662 L311.756013,13.8740662 C322.017897,13.8740662 330.350546,22.2067154 330.350546,32.4685986 L330.350546,60.3809211 C330.350546,70.6428044 322.017897,78.9754536 311.756013,78.9754536 L270.626385,78.9754536 C260.364502,78.9754536 252.031853,70.6428044 252.031853,60.3809211 L252.031853,32.4685986 Z" id="XMLID_1_"></path>
            </g>
            <g id="编组" transform="translate(-0.000000, 0.000000)">
                <g id="XMLID_64_" transform="translate(0.000000, 0.000000)" fill="url(#linearGradient-1)" fill-rule="nonzero">
                    <circle id="椭圆形" cx="70.4375667" cy="70.4375667" r="70.4375667"></circle>
                </g>
                <path d="M70.4375667,39.7750595 C74.2960348,39.7750595 77.3745998,42.894672 77.3745998,46.7120926 L77.3745998,63.4594861 L94.1219933,63.4594861 C97.9804614,63.4594861 101.059026,66.5790986 101.059026,70.3965192 L101.059026,70.3965192 C101.059026,74.2549873 97.9394138,77.3335523 94.1219933,77.3335523 L77.3745998,77.3335523 L77.3745998,94.0809457 C77.3745998,97.9394138 74.2549873,101.017979 70.4375667,101.017979 C66.6201461,101.017979 63.5005336,97.8983663 63.5005336,94.0809457 L63.5005336,77.3335523 L46.7531401,77.3335523 C42.894672,77.3335523 39.8161071,74.2139397 39.8161071,70.3965192 L39.8161071,70.3965192 C39.8161071,66.5380511 42.9357196,63.4594861 46.7531401,63.4594861 L63.5005336,63.4594861 L63.5005336,46.7120926 C63.4594861,42.894672 66.5790986,39.7750595 70.4375667,39.7750595 M70.4375667,39.0772515 C66.2096708,39.0772515 62.8027256,42.4841967 62.8027256,46.7120926 L62.8027256,62.761678 L46.7531401,62.761678 C42.5252442,62.761678 39.118299,66.1686233 39.118299,70.3965192 C39.118299,74.6244151 42.5252442,78.0313603 46.7531401,78.0313603 L62.8027256,78.0313603 L62.8027256,94.0809457 C62.8027256,98.3088416 66.2096708,101.715787 70.4375667,101.715787 C74.6654626,101.715787 78.0724078,98.3088416 78.0724078,94.0809457 L78.0724078,78.0313603 L94.1219933,78.0313603 C98.3498892,78.0313603 101.756834,74.6244151 101.756834,70.3965192 C101.756834,66.1686233 98.3498892,62.761678 94.1219933,62.761678 L78.0724078,62.761678 L78.0724078,46.7120926 C78.0724078,42.5252442 74.6244151,39.0772515 70.4375667,39.0772515 L70.4375667,39.0772515 Z" id="XMLID_61_" fill="#329C49" fill-rule="nonzero"></path>
                <path d="M94.1630408,63.4594861 L77.3745998,63.4594861 L77.3745998,46.6710451 C77.3745998,42.812577 74.2549873,39.6929645 70.3965192,39.6929645 C66.5380511,39.6929645 63.4184386,42.812577 63.4184386,46.6710451 L63.4184386,63.4594861 L46.6299975,63.4594861 C42.7715294,63.4594861 39.6519169,66.5790986 39.6519169,70.4375667 L39.6519169,70.4375667 C39.6519169,74.2960348 42.7715294,77.4156473 46.6299975,77.4156473 L63.4184386,77.4156473 L63.4184386,94.2040883 C63.4184386,98.0625564 66.5380511,101.182169 70.3965192,101.182169 C74.2549873,101.182169 77.3745998,98.0625564 77.3745998,94.2040883 L77.3745998,77.4156473 L94.1630408,77.4156473 C98.0215089,77.4156473 101.141121,74.2960348 101.141121,70.4375667 L101.141121,70.4375667 C101.141121,66.5790986 98.0215089,63.4594861 94.1630408,63.4594861 Z" id="XMLID_60_" fill="#37B057" fill-rule="nonzero"></path>
                <path d="M133.732863,100.812741 C129.874395,105.98473 116.164519,121.746983 95.8049421,124.209835 C71.463755,127.12421 55.4552171,118.093753 36.8606847,99.7044578 C34.3978327,97.2826533 30.2930794,94.7787538 28.3227978,94.0809457 C20.2364338,91.2076184 15.1465397,94.5735161 12.7247352,96.4206551 C12.7247352,96.4206551 10.0976931,98.3088416 7.67588868,102.454642 C8.90731467,99.1297923 11.3291191,96.3796076 12.5605451,95.4765619 C15.1054922,93.6294229 20.5237665,90.2635252 28.4048929,93.1368525 C30.3751745,93.8346605 34.4799278,96.3796076 36.9017322,98.8424596 C55.3731221,117.395945 71.3406124,126.508497 95.640752,123.758312 C116.041376,121.418603 129.628109,105.861588 133.527625,100.730646 C133.650768,100.566456 134.10229,100.689599 133.9381,101.017979 C133.9381,101.059026 133.897053,101.059026 133.897053,101.100074 C133.856005,100.935884 133.77391,100.730646 133.732863,100.812741 Z" id="XMLID_58_" fill="#0C8F51"></path>
                <g id="XMLID_50_" transform="translate(7.686151, 92.658160)" fill="url(#linearGradient-2)" fill-rule="nonzero">
                    <path d="M126.292997,8.23667664 C126.375092,8.07248651 126.128807,7.86724885 126.005665,8.03143898 C122.106149,13.1213331 108.396273,29.0477759 87.995649,31.3053902 C63.6544619,34.0555749 47.728019,25.0251177 29.2566292,6.71791792 C26.8348247,4.29611347 22.7300714,1.79221396 20.7597898,1.09440589 C12.7144734,-1.77892142 7.1730564,1.71011889 4.75125195,3.51621034 C4.75125195,3.51621034 4.75125195,3.51621034 4.75125195,3.51621034 C4.66915688,3.59830541 1.59059191,6.38953766 0.0307856498,9.59124523 C-0.0102618833,9.63229277 -0.0102618833,9.71438783 0.0307856498,9.75543537 C11.6472375,32.6599588 35.4137591,48.1759263 62.8745587,48.1759263 C64.1059847,48.1759263 65.2963632,48.1348788 66.4867416,48.0938312 C92.8803054,46.7803102 115.415401,30.8538674 126.292997,8.23667664 Z" id="路径"></path>
                </g>
                <path d="M7.14227075,40.1855348 C11.0007389,35.0135457 24.7106149,19.251293 45.0701913,16.788441 C69.4113784,13.8740662 85.4199163,22.9045234 104.014449,41.2938182 C106.477301,43.7156227 110.582054,46.2195222 112.552336,46.9173303 C120.6387,49.7906576 125.728594,46.4247599 128.150398,44.5776209 C128.150398,44.5776209 130.77744,42.6894344 133.199245,38.5436335 C131.967819,41.8684837 129.546014,44.6186684 128.314588,45.5217141 C125.769641,47.3688531 120.351367,50.7347508 112.470241,47.8614235 C110.499959,47.1636155 106.395206,44.6186684 103.973401,42.1558164 C85.5020113,23.6023315 69.534521,14.4897792 45.2343814,17.2399639 C24.8337575,19.5796733 11.2470241,35.1366883 7.34750841,40.2676299 C7.22436582,40.43182 6.73179542,40.349725 6.89598555,40.0213447 C6.89598555,39.9802972 6.93703308,39.9802972 6.93703308,39.9392497 C6.97808062,40.1034398 7.06017568,40.3086774 7.14227075,40.1855348 Z" id="XMLID_43_" fill="#0C8F51"></path>
                <g id="XMLID_38_" transform="translate(6.879573, 0.000000)" fill="url(#linearGradient-3)" fill-rule="nonzero">
                    <path d="M0.0164129812,40.0213447 C-0.0656820849,40.1855348 0.180603113,40.349725 0.303745712,40.1855348 C4.16221382,35.1366883 17.8720899,19.1691979 38.3137613,16.8705361 C62.6549484,14.1203514 78.5813912,23.1508086 97.0527811,41.4580084 C99.4745855,43.8798128 103.579339,46.3837123 105.54962,47.0815204 C113.594937,49.9548477 119.136354,46.4658074 121.558158,44.659716 C121.558158,44.659716 121.558158,44.659716 121.558158,44.659716 C121.640253,44.5776209 124.718818,41.7863886 126.278625,38.5846811 C126.319672,38.5436335 126.319672,38.4615385 126.278625,38.4204909 C114.662173,15.5159675 90.8956511,0 63.4348515,0 C62.2034255,0 61.0130471,0.041047533 59.8226686,0.0820950661 C33.4291049,1.43666366 10.8940092,17.3631065 0.0164129812,40.0213447 Z" id="路径"></path>
                </g>
            </g>
        </g>
    </g>
</svg>