<?xml version="1.0" encoding="UTF-8"?>
<svg width="800px" height="800px" viewBox="0 0 800 800" version="1.1" xmlns="http://www.w3.org/2000/svg" xmlns:xlink="http://www.w3.org/1999/xlink">
    <title>Artboard</title>
    <defs>
        <polygon id="path-1" points="0 0 302 0 302 282 0 282"></polygon>
        <polygon id="path-3" points="0 0 331 0 331 321 0 321"></polygon>
        <polygon id="path-5" points="0 0 116 0 116 116 0 116"></polygon>
    </defs>
    <g id="Artboard" stroke="none" stroke-width="1" fill="none" fill-rule="evenodd">
        <g id="Group" transform="translate(112.000000, 80.000000)">
            <g id="Group-15" transform="translate(275.000000, 0.000000)">
                <mask id="mask-2" fill="white">
                    <use xlink:href="#path-1"></use>
                </mask>
                <g id="Clip-14"></g>
                <path d="M28.1479293,282 C20.734862,282 13.3346455,279.085012 7.80513614,273.293657 C-2.93812038,262.041986 -2.54158186,244.19527 8.6900045,233.430964 L242.001519,9.8651659 C252.283983,0.0130576756 267.38182,-2.73273243 280.46392,2.86551611 C293.547855,8.46744288 302,21.2952299 302,35.5483265 L302,247.112098 C302,262.683836 289.400723,275.307481 273.85678,275.307481 C258.314673,275.307481 245.71356,262.683836 245.71356,247.112098 L245.71356,84.3398948 L47.5985108,274.180107 C42.1461061,279.405017 35.1405923,282 28.1479293,282" id="Fill-13" fill="#0008E6" mask="url(#mask-2)"></path>
            </g>
            <g id="Group-18" transform="translate(0.000000, 89.000000)">
                <mask id="mask-4" fill="white">
                    <use xlink:href="#path-3"></use>
                </mask>
                <g id="Clip-17"></g>
                <path d="M90.2328081,264.40591 L274.666963,264.40591 L274.666963,87.1722539 L90.2328081,264.40591 Z M297.368473,321.000554 L33.657249,321.000554 C19.8408555,321.000554 7.58982998,312.675912 2.44359087,299.793944 C-2.70081096,286.911976 0.426250437,272.390921 10.4100646,262.796356 L274.123126,9.37838329 C283.871767,0.0126997265 298.184228,-2.59913359 310.584074,2.72605306 C322.985757,8.05123972 331,20.2465632 331,33.7948717 L331,287.212844 C331,305.842691 315.912204,321.000554 297.368473,321.000554 L297.368473,321.000554 Z" id="Fill-16" fill="#000000" mask="url(#mask-4)"></path>
            </g>
            <path d="M540.511867,410 L186.515675,410 C171.936617,410 159.010306,401.258581 153.580116,387.727746 C148.149927,374.198748 151.44991,358.943503 161.983413,348.865162 L221.153562,292.269984 C232.386726,281.521345 250.208839,281.919851 260.955362,293.153308 C271.703721,304.390439 271.307062,322.21118 260.070225,332.95982 L238.395377,353.693143 L519.694611,353.693143 L519.694611,247.15251 C519.694611,231.605273 532.299555,219 547.848224,219 C563.395056,219 576,231.605273 576,247.15251 L576,374.510942 C576,394.079967 560.080382,410 540.511867,410" id="Fill-19" fill="#0008E6"></path>
        </g>
        <g id="Group-21" transform="translate(22.000000, 571.000000)">
            <path d="M572.628985,51.9413288 L580.498403,51.9413288 C593.779276,51.9413288 598.206702,48.3592164 598.206702,37.7756389 C598.206702,27.3548212 593.779276,24.7492675 580.498403,24.7492675 L572.628985,24.7492675 L572.628985,51.9413288 Z M602.469654,113 L579.02236,75.0622999 L572.628985,75.0622999 L572.628985,113 L540,113 L540,0 L586.237399,0 C615.258513,0 630.342969,10.9097956 630.342969,37.7756389 C630.342969,56.0110221 624.276433,66.5959967 610.502843,71.6422487 L641,113 L602.469654,113 Z" id="Fill-4" fill="#000000"></path>
            <g id="Group-8" transform="translate(640.000000, 0.000000)">
                <mask id="mask-6" fill="white">
                    <use xlink:href="#path-5"></use>
                </mask>
                <g id="Clip-7"></g>
                <path d="M58.0002095,30.0230361 C42.5740796,30.0230361 30.0227178,42.5733976 30.0227178,57.9993012 C30.0227178,73.4259036 42.5740796,85.9769639 58.0002095,85.9769639 C73.4263394,85.9769639 85.9770029,73.4259036 85.9770029,57.9993012 C85.9770029,42.5733976 73.4263394,30.0230361 58.0002095,30.0230361 M58.0002095,116 C26.0188508,116 0,89.9810602 0,57.9993012 C0,26.0189398 26.0188508,0 58.0002095,0 C89.9815681,0 116.000419,26.0189398 116.000419,57.9993012 C116.000419,89.9810602 89.9815681,116 58.0002095,116" id="Fill-6" fill="#000000" mask="url(#mask-6)"></path>
            </g>
            <path d="M524,53.2237349 L524,58 C524,63.9369639 523.099238,69.6684819 521.434574,75.058988 C514.133513,98.7369639 492.039007,116 466,116 C434.025041,116 408,89.9754699 408,58 C408,26.0252289 434.025041,0 466,0 C477.927766,0 489.391185,3.60298795 499.148743,10.412747 L481.980497,35.032 C477.28606,31.756747 471.759291,30.0237349 466,30.0237349 C450.578814,30.0237349 438.023308,42.578988 438.023308,58 C438.023308,73.4217108 450.578814,85.9769639 466,85.9769639 C475.006922,85.9769639 483.031386,81.691253 488.148971,75.058988 L466,75.058988 L466,53.2237349 L524,53.2237349 Z" id="Fill-9" fill="#000000"></path>
            <path d="M51.9584788,70.1577608 L76.8788302,70.1577608 L64.5003491,43.3817964 L51.9584788,70.1577608 Z M0,113 L52.9276424,0 L75.6178004,0 L129,113 L96.9135638,113 L89.4207005,97.0973329 L39.4166085,97.0973329 L32.0878327,113 L0,113 Z" id="Fill-11" fill="#0008E6"></path>
            <polygon id="Fill-1" fill="#000000" points="216 85.157598 216 113 142 113 142 0 174.294084 0 174.294084 85.157598"></polygon>
            <polygon id="Fill-2" fill="#000000" points="306 85.157598 306 113 232 113 232 0 264.294084 0 264.294084 85.157598"></polygon>
            <polygon id="Fill-3" fill="#000000" points="396 85.157598 396 113 320 113 320 0 395.006986 0 395.006986 28.0058603 352.950463 28.0058603 352.950463 42.3343101 391.529662 42.3343101 391.529662 69.2001533 352.950463 69.2001533 352.950463 85.157598"></polygon>
        </g>
    </g>
</svg>
