<?xml version="1.0" encoding="UTF-8"?>
<svg width="800px" height="800px" viewBox="0 0 800 800" version="1.1" xmlns="http://www.w3.org/2000/svg" xmlns:xlink="http://www.w3.org/1999/xlink">
    <title>Artboard</title>
    <defs>
        <polygon id="path-1" points="0 0 214.989011 0 214.989011 201.084249 0 201.084249"></polygon>
        <polygon id="path-3" points="0 0 236.380952 0 236.380952 227.824176 0 227.824176"></polygon>
        <polygon id="path-5" points="0 0 96 0 96 96 0 96"></polygon>
    </defs>
    <g id="Artboard" stroke="none" stroke-width="1" fill="none" fill-rule="evenodd">
        <g id="Group" transform="translate(195.000000, 149.000000)">
            <g id="Group-15" transform="translate(195.736264, 0.000000)">
                <mask id="mask-2" fill="white">
                    <use xlink:href="#path-1"></use>
                </mask>
                <g id="Clip-14"></g>
                <path d="M20.0380645,201.084249 C14.7608194,201.084249 9.49272266,199.005674 5.55635265,194.876063 C-2.09160131,186.852894 -1.80931182,174.12703 6.1862764,166.451383 L172.277044,7.03450169 C179.596967,0.00931096773 190.344878,-1.94861506 199.657817,2.04329843 C208.972063,6.03783472 214.989011,15.184877 214.989011,25.3482572 L214.989011,176.206917 C214.989011,187.310574 206.019785,196.31205 194.954299,196.31205 C183.89012,196.31205 174.919587,187.310574 174.919587,176.206917 L174.919587,60.1398029 L33.884625,195.50816 C30.0031446,199.233858 25.0160304,201.084249 20.0380645,201.084249" id="Fill-13" fill="#0008E6" mask="url(#mask-2)"></path>
            </g>
            <g id="Group-18" transform="translate(0.000000, 64.175824)">
                <mask id="mask-4" fill="white">
                    <use xlink:href="#path-3"></use>
                </mask>
                <g id="Clip-17"></g>
                <path d="M64.4390245,187.657503 L196.151173,187.657503 L196.151173,61.8689934 L64.4390245,187.657503 Z M212.363272,227.824569 L24.03605,227.824569 C14.1691852,227.824569 5.42021522,221.916299 1.7450705,212.773546 C-1.92876214,203.630793 0.304403276,193.324726 7.43426276,186.51515 L195.762796,6.65614468 C202.724709,0.00901341037 212.945836,-1.84468993 221.801085,1.93476882 C230.657646,5.71422758 236.380952,14.3696466 236.380952,23.9853233 L236.380952,203.844329 C236.380952,217.066539 225.606126,227.824569 212.363272,227.824569 L212.363272,227.824569 Z" id="Fill-16" fill="#000000" mask="url(#mask-4)"></path>
            </g>
            <path d="M385.44971,292 L133.324484,292 C122.940903,292 113.734451,285.78312 109.86693,276.160017 C105.999409,266.538219 108.349742,255.688719 115.851974,248.521022 L157.994482,208.270642 C165.995031,200.626231 178.6884,200.909647 186.342351,208.898861 C193.99761,216.890686 193.715099,229.564762 185.711934,237.209174 L170.274547,251.954673 L370.623123,251.954673 L370.623123,176.183183 C370.623123,165.126018 379.60069,156.161172 390.674853,156.161172 C401.747708,156.161172 410.725275,165.126018 410.725275,176.183183 L410.725275,266.760251 C410.725275,280.677703 399.386912,292 385.44971,292" id="Fill-19" fill="#0008E6"></path>
        </g>
        <g id="Group-21" transform="translate(87.000000, 554.000000)">
            <path d="M473.813918,43.2078311 L480.280866,43.2078311 C491.19485,43.2078311 494.83323,40.2280207 494.83323,31.4239828 C494.83323,22.755338 491.19485,20.5878862 480.280866,20.5878862 L473.813918,20.5878862 L473.813918,43.2078311 Z M498.336449,94 L479.06788,62.4412052 L473.813918,62.4412052 L473.813918,94 L447,94 L447,0 L484.99707,0 C508.846105,0 521.242242,9.07540521 521.242242,31.4239828 C521.242242,46.5932396 516.25687,55.3984397 504.93798,59.5962069 L530,94 L498.336449,94 Z" id="Fill-4" fill="#000000"></path>
            <g id="Group-8" transform="translate(530.000000, 0.000000)">
                <mask id="mask-6" fill="white">
                    <use xlink:href="#path-5"></use>
                </mask>
                <g id="Clip-7"></g>
                <path d="M48.0001734,24.8466506 C35.233721,24.8466506 24.8463871,35.2331566 24.8463871,47.9994217 C24.8463871,60.7662651 35.233721,71.1533494 48.0001734,71.1533494 C60.7666257,71.1533494 71.1533817,60.7662651 71.1533817,47.9994217 C71.1533817,35.2331566 60.7666257,24.8466506 48.0001734,24.8466506 M48.0001734,96 C21.5328421,96 0,74.4670843 0,47.9994217 C0,21.5329157 21.5328421,0 48.0001734,0 C74.4675047,0 96.0003467,21.5329157 96.0003467,47.9994217 C96.0003467,74.4670843 74.4675047,96 48.0001734,96" id="Fill-6" fill="#000000" mask="url(#mask-6)"></path>
            </g>
            <path d="M434,44.0472289 L434,48 C434,52.9133494 433.254542,57.6566747 431.876889,62.1177831 C425.834632,81.7133494 407.549523,96 386,96 C359.537965,96 338,74.4624578 338,48 C338,21.5381205 359.537965,0 386,0 C395.871254,0 405.358222,2.98178313 413.433442,8.61744578 L399.225239,28.992 C395.340188,26.2814458 390.76631,24.8472289 386,24.8472289 C373.237639,24.8472289 362.846875,35.2377831 362.846875,48 C362.846875,60.7627952 373.237639,71.1533494 386,71.1533494 C393.454005,71.1533494 400.09494,67.6065542 404.330183,62.1177831 L386,62.1177831 L386,44.0472289 L434,44.0472289 Z" id="Fill-9" fill="#000000"></path>
            <path d="M43.0973429,58.3613232 L63.7677119,58.3613232 L53.5002896,36.0875121 L43.0973429,58.3613232 Z M0,94 L43.9012227,0 L62.7217414,0 L107,94 L80.3856692,94 L74.1706586,80.7712326 L32.6943962,80.7712326 L26.6154891,94 L0,94 Z" id="Fill-11" fill="#0008E6"></path>
            <polygon id="Fill-1" fill="#000000" points="179 70.8390638 179 94 118 94 118 0 144.620799 0 144.620799 70.8390638"></polygon>
            <polygon id="Fill-2" fill="#000000" points="253 70.8390638 253 94 192 94 192 0 218.620799 0 218.620799 70.8390638"></polygon>
            <polygon id="Fill-3" fill="#000000" points="328 70.8390638 328 94 265 94 265 0 327.176844 0 327.176844 23.2969104 292.3142 23.2969104 292.3142 35.2161517 324.294325 35.2161517 324.294325 57.5647293 292.3142 57.5647293 292.3142 70.8390638"></polygon>
        </g>
    </g>
</svg>
