<?xml version="1.0" encoding="UTF-8"?>
<svg width="1024px" height="1024px" viewBox="0 0 1024 1024" version="1.1" xmlns="http://www.w3.org/2000/svg" xmlns:xlink="http://www.w3.org/1999/xlink">
    <title>侧图标/名称/icode</title>
    <g id="侧图标/名称/icode" stroke="none" stroke-width="1" fill="none" fill-rule="evenodd">
        <rect id="矩形" fill="#D8D8D8" opacity="0" x="0" y="0" width="1024" height="1024"></rect>
        <g id="无安全边距" transform="translate(64.000000, 372.000000)" fill-rule="nonzero">
            <path d="M525.576162,171.238589 C519.010349,165.025578 500.89991,152.87914 487.114816,130.077388 C477.779537,115.0419 462.22074,104.852561 445.355005,105.225341 C428.644857,104.883626 412.868236,115.072965 403.595193,130.077388 C389.841217,152.87914 371.69966,165.087708 365.164965,171.238589 C356.981038,178.973789 322.347156,197.333238 329.908731,237.438228 C337.345836,277.015111 374.904772,278.78582 374.904772,278.78582 C374.904772,278.78582 392.486212,280.649723 422.732514,273.3805 C437.637513,270.025979 453.103614,270.025979 468.008613,273.3805 C498.254914,280.649723 515.836355,278.78582 515.836355,278.78582 C515.836355,278.78582 553.395291,277.015111 560.832396,237.438228 C568.362853,197.333238 533.760089,178.973789 525.576162,171.238589 Z" id="路径" fill="#0062B1"></path>
            <path d="M351.628812,147.877666 C372.259776,145.050746 379.416823,124.081832 377.300827,103.951674 C375.464889,86.1203309 363.453497,65.8348481 343.75606,67.6055564 C324.774328,69.3141346 313.074113,87.9531693 313.166911,109.82297 C313.198583,130.512299 327.668264,151.139497 351.628812,147.877666 Z" id="路径" fill="#0062B1"></path>
            <path d="M408.978537,82.9827601 C429.360561,81.0567265 436.610961,60.2120727 436.113079,39.7091345 C435.646315,17.1559025 423.199278,-0.955026272 403.657429,0.0390555792 C386.293811,0.971007315 372.259776,18.3985048 371.544072,41.5730379 C370.797249,65.8037831 386.356046,85.1262491 408.978537,82.9827601 Z" id="路径" fill="#0062B1"></path>
            <path d="M539.17455,147.877666 C518.574703,145.050746 511.386539,124.081832 513.502535,103.951674 C515.369591,86.1203309 527.380982,65.8348481 547.078419,67.6055564 C566.060151,69.3141346 577.760367,87.9531693 577.635896,109.82297 C577.542544,130.512299 563.22845,151.139497 539.17455,147.877666 Z" id="路径" fill="#0062B1"></path>
            <path d="M481.731472,82.9827601 C461.380565,81.0567265 454.130166,60.2120727 454.59693,39.7091345 C455.157047,17.1559025 467.541849,-0.955026272 487.083698,0.0390555792 C504.447315,0.971007315 518.48135,18.3985048 519.197055,41.5730379 C519.91276,65.8037831 504.38508,85.1262491 481.731472,82.9827601 Z" id="路径" fill="#0062B1"></path>
            <path d="M428.613739,234.455982 L399.487671,234.455982 C395.072575,234.485074 390.838049,232.708358 387.769393,229.539246 C384.700737,226.370134 383.065541,222.084975 383.244287,217.680851 C383.244287,208.827309 389.187747,200.84359 398.98979,200.84359 L427.493506,200.84359 L427.493506,181.987099 L399.11426,181.987099 C389.69035,181.67585 380.555196,185.259265 373.864322,191.891803 C367.173448,198.524342 363.519505,207.618521 363.764673,217.028485 C363.764673,238.401245 377.145239,253.405667 400.421199,253.405667 L428.613739,253.405667 L428.613739,234.455982 Z" id="路径" fill="#FFFFFF"></path>
            <path d="M450.489408,181.365798 L469.47114,181.365798 L469.47114,225.540311 C469.47114,232.467818 472.240606,234.487047 475.694659,234.487047 L495.32986,234.487047 L495.32986,181.365798 L514.404945,181.365798 L514.404945,253.405667 L473.952073,253.405667 C457.584219,253.405667 450.178232,244.614256 450.178232,231.660127 L450.489408,181.365798 Z" id="路径" fill="#FFFFFF"></path>
            <polygon id="路径" fill="#FFFFFF" points="435.428492 253.405667 435.428492 151.636538 435.428492 151.636538 415.79329 151.636538 415.79329 151.636538 415.79329 253.405667 435.428492 253.405667"></polygon>
            <path d="M263.814961,270.305059 L294.932555,270.305059 L294.932555,164.404277 L263.814961,164.404277 L263.814961,270.305059 Z M263.814961,125.604019 L263.814961,152.56849 L294.932555,152.56849 L294.932555,125.697215 L263.814961,125.604019 Z" id="形状" fill="#E60012"></path>
            <path d="M219.067861,249.771056 L178.117108,249.771056 C172.453706,249.771056 168.00389,245.763663 168.00389,238.43231 C167.842135,235.480444 168.898335,232.591223 170.926607,230.437255 C172.954879,228.283287 175.778256,227.052505 178.73946,227.031433 L219.192332,227.031433 L219.067861,249.771056 Z M213.404459,164.342147 L147.279572,164.342147 L147.279572,186.584728 L205.37612,186.584728 C213.746753,186.584728 219.161214,191.089161 219.161214,198.606905 L219.161214,206.466365 L170.617768,206.466365 C151.947211,206.466365 138.971175,217.680851 138.971175,238.43231 C138.971175,260.674891 152.22727,270.73997 170.617768,270.73997 L248.940752,270.73997 L248.940752,194.816968 C248.940752,176.612844 234.439953,164.342147 213.404459,164.342147 L213.404459,164.342147 Z" id="形状" fill="#E60012"></path>
            <path d="M74.6822255,184.006328 L32.4245329,184.006328 L32.4245329,153.469376 L74.4644023,153.469376 C86.3202056,153.469376 93.3527818,158.998957 93.3527818,167.790368 C93.3527818,179.78148 86.3202056,184.006328 74.6822255,184.006328 Z M76.4870459,244.645321 L32.4245329,244.645321 L32.4245329,212.896832 L76.17587,212.896832 C87.6271445,212.896832 95.5310134,218.892388 95.5310134,229.081727 C95.5310134,239.271066 87.8138501,244.645321 76.3936931,244.645321 L76.4870459,244.645321 Z M131.627422,233.182315 C131.627422,215.692687 122.976731,202.583233 109.222755,198.45158 C121.451969,193.263715 126.555255,182.919051 126.555255,166.08179 C126.555255,144.118794 108.226992,124.734198 70.7925262,124.734198 L0,124.734198 L0,271.951507 L78.1985136,271.951507 C113.081336,271.951507 131.53407,258.438207 131.53407,233.182315 L131.627422,233.182315 Z" id="形状" fill="#E60012"></path>
            <path d="M703.506564,186.429403 L703.506564,206.932341 L622.60082,206.932341 L622.60082,186.429403 L703.506564,186.429403 Z M703.506564,243.216329 C703.506564,247.472241 701.23498,249.864251 697.687574,249.864251 L622.538584,249.864251 L622.538584,227.74593 L703.631034,227.74593 L703.506564,243.216329 Z M736.211155,150.611391 L736.211155,128.5552 L589.429464,128.5552 L589.429464,150.859911 L645.129958,150.859911 L640.306731,165.491554 L595.901924,165.491554 L595.901924,271.361271 L709.916788,271.361271 C721.648121,271.361271 729.42752,264.558023 729.42752,252.349456 L729.42752,165.367294 L670.304091,165.367294 L675.251789,150.580326 L736.211155,150.611391 Z" id="形状" fill="#E60012"></path>
            <path d="M882.930611,151.760798 L860.774884,151.760798 L860.774884,156.948663 L815.280961,156.948663 L815.280961,151.760798 L793.125234,151.760798 L793.125234,156.948663 L780.11808,156.948663 L780.11808,175.152787 L793.125234,175.152787 L793.125234,203.763705 L872.568452,203.763705 C875.333173,203.763705 877.984658,202.667278 879.939611,200.715626 C881.894565,198.763973 882.992846,196.116964 882.992846,193.356911 L882.992846,175.152787 L896,175.152787 L896,156.948663 L882.992846,156.948663 L882.930611,151.760798 Z M860.774884,181.676449 C860.774884,183.821044 859.033406,185.559581 856.885184,185.559581 L815.280961,185.559581 L815.280961,175.152787 L860.837119,175.152787 L860.774884,181.676449 Z" id="形状" fill="#E60012"></path>
            <path d="M842.539974,128.36881 L842.539974,120.57148 L816.494547,120.57148 L816.494547,128.36881 L752.70348,128.36881 L752.70348,236.133495 C752.70348,256.232588 749.59172,266.421927 747.164548,271.237011 L770.689449,271.237011 C773.69655,259.784735 775.089507,247.969823 774.828089,236.133495 L774.828089,146.572934 L895.937765,146.572934 L895.937765,128.36881 L842.539974,128.36881 Z" id="路径" fill="#E60012"></path>
            <path d="M858.845593,249.274015 C873.533097,241.414555 890.896715,231.597997 890.896715,231.597997 L890.896715,211.561035 L783.945544,211.561035 L783.945544,231.597997 C783.945544,231.597997 801.278044,241.414555 815.965548,249.274015 C811.228316,251.322666 806.217803,252.672593 801.091338,253.281407 L778.748906,253.281407 L778.748906,271.361271 L803.425158,271.361271 C806.101271,271.361271 813.35167,271.361271 837.343335,260.05359 L837.343335,260.05359 C861.335,271.361271 868.460929,271.361271 871.261513,271.361271 L895.937765,271.361271 L895.937765,253.281407 L873.595332,253.281407 C868.511599,252.65913 863.544071,251.309491 858.845593,249.274015 L858.845593,249.274015 Z M837.498923,239.954497 C837.498923,239.954497 819.108425,231.722257 812.013614,227.839125 L862.984233,227.839125 C855.733833,231.815452 837.343335,240.047693 837.343335,240.047693 L837.498923,239.954497 Z" id="形状" fill="#E60012"></path>
        </g>
    </g>
</svg>