<?xml version="1.0" encoding="utf-8"?>
<!-- Generator: Adobe Illustrator 24.0.0, SVG Export Plug-In . SVG Version: 6.00 Build 0)  -->
<svg version="1.1" id="图层_1" xmlns="http://www.w3.org/2000/svg" xmlns:xlink="http://www.w3.org/1999/xlink" x="0px" y="0px"
	 viewBox="0 0 452.2 118.3" style="enable-background:new 0 0 452.2 118.3;" xml:space="preserve">
<style type="text/css">
	.st0{fill:#076FB8;}
	.st1{fill:#E83928;}
	.st2{fill:#E60012;}
</style>
<g>
	<g>
		<polygon class="st0" points="82.2,100 95.9,100 69.2,26.6 49.3,26.6 22.6,100 36.3,100 54.7,49.5 63.8,49.5 		"/>
		<polygon class="st1" points="62.3,77 56.1,77 47.8,100 70.7,100 		"/>
	</g>
	<path class="st0" d="M116.9,58.2V30.3h8.7c0.2-0.6,0.4-1.5,0.8-2.7c0.2-0.8,0.3-1.4,0.4-1.8l5,0.4c-0.1,0.4-0.3,1-0.7,1.8
		c-0.3,1-0.4,1.8-0.5,2.3h14.1v27.9h-4.4v-2h-19.3v2H116.9z M121.1,34.2v7.1h19.3v-7.1H121.1z M121.1,45.1v7.4h19.3v-7.4H121.1z"/>
	<path class="st0" d="M151.3,55.6V31h4.4v21h7.9V26.2h4.5v25.7h7.9V31h4.2v27.2h-4.2v-2.6H151.3z"/>
	<path class="st0" d="M184.7,42v-4.1h31V42h-14.7c-2.5,3.4-5.1,6.7-8,10.1c1.5,0,4.4-0.1,8.4-0.3c2.8-0.1,4.9-0.1,6.3-0.1
		c-1.4-2-2.8-3.8-4.2-5.4l3.4-2.2c2.9,3.4,6,7.2,9.4,11.3l-3.7,2.4c-0.6-0.8-1.3-1.7-2-2.7c-2.9,0.1-7.7,0.3-14.3,0.7
		c-1.5,0.1-2.5,0.1-3.1,0.1c-0.8,0.1-1.9,0.2-3.3,0.4c-0.7,0.1-1.3,0.1-1.6,0.1l-2-3.9c1.5-0.9,2.8-2,3.8-3.1
		c1.8-2.1,3.6-4.5,5.5-7.3H184.7z M187.6,31.9v-4.1h26.5v4.1H187.6z"/>
	<path class="st0" d="M221.8,31.6c-0.1-1.3-0.3-2.5-0.6-3.7c3.4-0.1,7.5-0.4,12.4-1l0.8,3.6c-0.1,0-0.2,0-0.4,0
		c-1.3,0.1-2.7,0.3-4.4,0.5v4.5h4.4v3.7h-4.4v3.7l1.1-1.2c0.5,0.3,1.2,1,2.3,1.8c1,0.8,1.7,1.4,2.2,1.8l-2.6,2.9
		c-1.2-1.2-2.2-2.1-3-2.7v12.9h-3.8V45.7c-1.1,2.6-2.1,4.3-3.7,6.5l-1.9-3.2c1.8-2.4,3.8-6.1,5.1-9.7H221v-3.7h4.9v-4.2
		C224.7,31.6,223.3,31.6,221.8,31.6z M233.8,51.4l-0.4-3.8l12-1.1V26.1h4.1v20l4.2-0.4l0.2,4l-4.4,0.3v8.4h-4.1v-8L233.8,51.4z
		 M240.4,44.7c-1.1-0.9-2.7-2.2-4.9-3.9c-0.4-0.4-0.7-0.6-1-0.8l2.4-2.6c0.5,0.4,1.1,0.9,2,1.5c1.5,1.2,2.9,2.2,3.9,3L240.4,44.7z
		 M241.9,37.9c-0.8-0.8-2.2-2.1-4.2-3.8c-0.8-0.6-1.3-1-1.7-1.4l2.3-2.6c2.5,2,4.6,3.6,6.3,4.9L241.9,37.9z"/>
	<path class="st0" d="M258.2,35.5v-3.7h3.7v-5.7h3.9v5.7h3.1v3.7h-3.1V41l3.3-0.7c0,1.4,0,2.7,0.1,3.9c-1.1,0.2-2.2,0.4-3.4,0.7v9.1
		c0.1,2.5-1.1,3.9-3.5,3.9c-1.2,0.1-2.3,0.2-3.4,0.2c-0.1-0.6-0.2-1.4-0.4-2.5c-0.2-0.6-0.3-1-0.3-1.2c0.4,0,1.2,0,2.3,0
		c1,0,1.4-0.5,1.4-1.6v-6.9l-3.8,0.9l-0.3-4.4c0.6-0.1,1.7-0.3,3.3-0.5c0.4-0.1,0.6-0.1,0.8-0.1v-6.4H258.2z M270,34.4v-3.7h7.6
		v-4.8h4.1v4.8h8.1v3.7h-8.1v4.2h7.2v3.7c-1.7,3.9-3.8,6.9-6.1,9c2.2,1.3,5.3,2.8,8.5,3.6c-0.2,0.4-0.6,1.3-1,1.7
		c-0.7,0.6-1.2,1.3-1.5,1.8c-3.6-1.5-6.7-3-9.1-4.5c-2.4,1.5-5.8,3.1-10.2,4.8c-0.6-1.2-1.4-2.4-2.2-3.7c3.8-1.1,6.9-2.3,9.2-3.7
		c-2.1-2.3-3.9-5.1-5.6-8.5l1.6-0.7h-2.3v-3.5h7.4v-4.2H270z M284.7,42.1h-9.9c1.4,2.6,3,4.9,4.9,6.8
		C281.9,47,283.5,44.7,284.7,42.1z"/>
	<g>
		<path class="st0" d="M129.9,99.9h-13V72.4h12.3c5.9,0.2,9,2.4,9.5,6.6c-0.1,3.5-1.9,5.6-5.6,6.4v0.1c4.2,0.7,6.4,2.9,6.8,6.5
			C139.9,97.3,136.6,99.9,129.9,99.9z M128.3,76h-6.6v8h6.6c3.5-0.1,5.3-1.5,5.4-4.1C133.6,77.3,131.8,76,128.3,76z M129,87.6h-7.3
			v8.9h7.4c3.8,0,5.7-1.5,5.7-4.5C134.5,89.1,132.6,87.7,129,87.6z"/>
		<path class="st0" d="M173,99.9V72.4h4.7v27.5H173z"/>
		<path class="st0" d="M182.6,91.6l4.7-1.1c0.7,4.3,3.3,6.5,7.6,6.4c3.5-0.1,5.4-1.5,5.7-4.3c0.3-1.9-1.4-3.5-4.9-4.5
			c-1.4-0.4-2.7-0.8-3.8-0.9c-5.8-1.1-8.5-3.7-8.3-7.7c0.5-4.7,3.8-7.2,10-7.4c6.4-0.1,10.2,2.4,11.4,7.6l-4.9,1.1
			c-0.5-3.2-2.6-4.8-6.2-4.8c-3.3,0.1-5,1.3-5.3,3.6c-0.4,2,1.7,3.3,6.1,4.1c2.1,0.5,3.7,1,4.7,1.5c4.2,1.5,6.3,3.9,6.2,7.3
			c-0.3,5.1-3.8,7.8-10.7,8C187.9,100.4,183.8,97.5,182.6,91.6z"/>
		<path class="st0" d="M234.7,99.9h-4.9V88.1h-14.2v11.8h-4.7V72.4h4.7V84h14.2V72.4h4.9V99.9z"/>
		<path class="st0" d="M268.7,72.6h5.6C282,84.7,286,91,286.3,91.4c0.2,0.4,0.7,1.3,1.6,2.8h0.1c-0.1-0.4-0.1-1.8-0.1-4V72.6h4.6
			v27.4h-5.3c-7.9-12.3-12.1-18.7-12.3-19.1c-0.9-1.4-1.4-2.3-1.6-2.8h-0.1c0.1,0.5,0.1,2.1,0.1,4.7v17.3h-4.6V72.6z"/>
		<path class="st2" d="M323.5,80.3l-4.7,1.2c-1.1-3.4-3.4-5.1-7-5.3c-5.1,0.4-7.8,3.7-8.1,10.1c0.3,6.4,3,9.8,8.1,10.2
			c4.2,0,6.6-2.3,7.3-6.8l4.7,1.5c-1.3,6.1-5.4,9.2-12.1,9.2c-8.4-0.4-12.8-5.1-13.3-14.1c0.5-8.9,4.9-13.7,13.3-14.2
			C317.7,72.3,321.6,75,323.5,80.3z"/>
		<path class="st2" d="M348.1,99.9h-19.7V72.6h4.7v23.7h14.9V99.9z"/>
		<path class="st2" d="M364.9,72.2c8.5,0.5,13.1,5.3,13.7,14.2c-0.4,9-5,13.6-13.8,14c-8.7-0.5-13.2-5.2-13.7-14
			C351.5,77.3,356.1,72.5,364.9,72.2z M364.6,96.5c5.6-0.3,8.5-3.6,8.7-10.1c-0.3-6.5-3.1-9.9-8.5-10.2c-5.4,0.4-8.3,3.9-8.7,10.2
			C356.3,92.8,359.2,96.1,364.6,96.5z"/>
		<path class="st2" d="M383.3,88.4v-16h4.9v16c0,5.4,2.4,8.1,7.2,8.1c4.8,0,7.2-2.7,7.2-8.2V72.4h4.7v15.7c0,8.2-4.1,12.2-12.2,12.2
			C387.2,100.3,383.3,96.3,383.3,88.4z"/>
		<path class="st2" d="M422.6,99.9h-9.4V72.4h9.2c9.5,0.2,14.3,4.7,14.5,13.7C437.2,95.6,432.5,100.2,422.6,99.9z M422.3,76.4H418
			v19.8h4.2c6.5,0,9.8-3.4,9.8-10.1C431.8,79.8,428.6,76.6,422.3,76.4z"/>
		<g>
			<polygon class="st0" points="163.2,100 168.3,100 158.3,72.6 150.9,72.6 140.9,100 146.1,100 152.9,81.1 156.3,81.1 			"/>
			<polygon class="st1" points="155.8,91.4 153.5,91.4 150.3,100 158.9,100 			"/>
		</g>
		<g>
			<polygon class="st0" points="260.2,100 265.3,100 255.4,72.7 247.9,72.7 238,100 243.1,100 250,81.2 253.4,81.2 			"/>
			<polygon class="st1" points="252.8,91.5 250.5,91.5 247.4,100 255.9,100 			"/>
		</g>
	</g>
</g>
</svg>
