<?xml version="1.0" encoding="utf-8"?>
<!-- Generator: Adobe Illustrator 23.0.6, SVG Export Plug-In . SVG Version: 6.00 Build 0)  -->
<svg version="1.1" id="图层_1" xmlns="http://www.w3.org/2000/svg" xmlns:xlink="http://www.w3.org/1999/xlink" x="0px" y="0px"
	 viewBox="0 0 193.67 58" style="enable-background:new 0 0 193.67 58;" xml:space="preserve">
<style type="text/css">
	.st0{fill:#00C9C3;}
	.st1{fill:#A7A9AC;}
</style>
<path class="st0" d="M59.25,56.38c-2.16,0-4.22-0.5-6.32-1.53c-1.64-0.81-3.27-1.91-5.27-3.58l-0.07-0.05
	c-0.19-0.12-0.36-0.27-0.52-0.44l-0.06-0.06c-0.01-0.02-0.03-0.03-0.05-0.04c-0.04-0.07-0.08-0.12-0.12-0.18V50.5
	c-0.35-0.49-0.54-1.06-0.54-1.66c0-1.57,1.28-2.86,2.86-2.86c0.61,0,1.2,0.19,1.69,0.56l0.04,0.01c2.36,2.07,4.96,4.07,8.36,4.07
	c7.31,0,11.25-5.54,11.25-10.76c0-5.18-4.12-10.78-10.77-10.78c-4.26,0-7.12,2.51-9.89,4.94l-0.16,0.14
	c-0.45,0.39-0.91,0.79-1.36,1.2c-1.58,1.39-3.07,2.7-4.16,3.59c-1.98,1.62-8.78,7.51-11.69,10.03c-0.41,0.35-0.81,0.71-1.21,1.06
	c-3.69,3.26-7.18,6.34-13.47,6.34c-4.14,0-8.29-1.68-11.38-4.59C3.15,48.7,1.35,44.5,1.35,39.97c0-6.22,2.92-10.12,5.36-12.3
	c3.07-2.73,7.1-4.29,11.07-4.29c4.95,0,7.95,1.69,11.47,4.6l0.05,0.04c0.15,0.1,0.28,0.21,0.4,0.33l0.03,0.02l0,0.01
	c0.5,0.52,0.78,1.21,0.78,1.93c0,1.54-1.25,2.79-2.79,2.79c-0.61,0-1.2-0.2-1.69-0.57h-0.01c-2.64-2.18-4.83-3.44-8.21-3.44
	c-5.17,0-10.74,4.12-10.74,10.76c0,5.94,4.82,10.78,10.74,10.78c4.99,0,7.4-2.7,11.05-6.79c0.68-0.76,1.38-1.55,2.16-2.39
	c1.1-1.19,4.35-4.56,6.29-6.57c0.48-0.5,0.89-0.93,1.17-1.22c6.22-6.46,8.15-8.5,8.17-8.52l0.02-0.02
	c3.05-3.48,3.81-7.92,2.02-11.87c-1.76-3.88-5.65-6.39-9.92-6.39c-6.06,0-9.66,4.59-10.46,8.88l-0.03,0.02
	c-0.36,1.2-1.48,2.05-2.74,2.05c-1.58,0-2.86-1.28-2.86-2.86c0-0.28,0.04-0.55,0.12-0.82l0.02-0.06c0.73-3.49,2.53-6.5,5.35-8.95
	c3.04-2.65,6.61-3.99,10.61-3.99c4.58,0,8.71,1.71,11.94,4.93c1.69,1.69,2.93,3.62,3.7,5.75c0.62,1.71,0.94,3.55,0.96,5.47
	c0.02,3.3-0.88,5.74-0.89,5.76l-0.32,1.11L55.35,24c1.41-0.4,2.88-0.61,4.37-0.61c4.18,0,8.33,1.63,11.38,4.46
	c1.59,1.48,2.83,3.22,3.7,5.19c0.93,2.1,1.4,4.39,1.4,6.83c0,4.47-1.68,8.61-4.72,11.65C68.36,54.65,64.01,56.38,59.25,56.38z"/>
<g>
	<g>
		<path class="st1" d="M87.55,6.75h27.14c0.7,0,1.22-0.52,1.22-1.22V5.45c0-0.66-0.52-1.22-1.22-1.22H87.55
			c-0.7,0-1.21,0.56-1.21,1.22v0.08C86.34,6.23,86.85,6.75,87.55,6.75z"/>
		<path class="st1" d="M110.54,22.68l1.98,7.85c0,0.59,0.28,1.11-0.12,1.51c-0.41,0.41-0.92,0.66-1.48,0.66H93.89c0,0-2.16,0-3.22,0
			c-0.99,0,0.3-2.77,0.3-2.77l3.52-9.19c-0.46-0.18-0.84-0.56-1.34-0.66c-0.26-0.06-0.54-0.1-0.77-0.21l-5.05,13.79
			c-0.11,0.37,0,0.74,0.26,1.08c0.22,0.29,0.52,0.44,0.93,0.44h22.41c0.59,0,1.22-0.11,1.77-0.37c1.11-0.48,1.7-0.82,2.17-1.93
			c0.29-0.59,0.32-1.53,0.12-2.36l-1.39-5.53C112.88,22.74,110.54,22.68,110.54,22.68z"/>
		<path class="st1" d="M116.06,14.43H86.18c-0.66,0-1.22,0.55-1.22,1.22v0.07c0,0.66,0.55,1.22,1.22,1.22h29.87
			c0.66,0,1.21-0.56,1.21-1.22v-0.07C117.27,14.98,116.72,14.43,116.06,14.43z"/>
		<path class="st1" d="M129.43,15.94c0.48-0.55,0.88-1.14,1.22-1.77l6.12,5.09c0.52,0.45,1.26,0.37,1.7-0.1
			c0.22-0.3,0.37-0.56,0.34-0.93c-0.04-0.34-0.15-0.58-0.45-0.85l-4.76-4.02h4.28c0.7,0,1.22-0.56,1.22-1.22v-0.07
			c0-0.66-0.52-1.22-1.22-1.22h-6.13c0.11-0.59,0.15-1.18,0.15-1.81l0.04-1.58h5.5c0.66,0,1.22-0.55,1.22-1.22V6.19
			c0-0.66-0.55-1.22-1.22-1.22h-11.63l0.07-0.26c0.15-0.34,0.15-0.66,0-0.96c-0.11-0.3-0.37-0.55-0.66-0.66h-0.07
			c-0.59-0.26-1.33,0.04-1.55,0.66l-0.82,2.03c-0.3,0.81,0.26,1.66,1.14,1.66h5.5v1.58c0,0.63-0.08,1.26-0.19,1.81h-6.16
			c-0.67,0-1.22,0.55-1.22,1.22v0.07c0,0.66,0.56,1.22,1.22,1.22h5.13c-0.23,0.37-0.48,0.74-0.78,1.07
			c-1.18,1.29-2.84,2.39-4.91,3.21c-0.63,0.29-0.92,0.92-0.74,1.54l0.04,0.07c0.11,0.34,0.37,0.56,0.66,0.7
			c0.3,0.11,0.63,0.11,0.92,0.04C126.03,18.93,128.02,17.6,129.43,15.94z"/>
		<path class="st1" d="M153.43,4.9c-0.74-0.74-1.73-1.18-2.81-1.18h-6.02c-1.62,0-2.99,1-3.62,2.44c-0.22,0.48-0.3,1-0.3,1.51v8.02
			c0,2.18,1.73,3.94,3.91,3.94h6.02c0.56,0,1.03-0.1,1.51-0.33c1.48-0.62,2.44-1.99,2.44-3.61V7.67
			C154.57,6.59,154.17,5.63,153.43,4.9z M152.1,15.68l-0.01,2.71c0,0-1.2-1.27-2.23-1.27h-5.26c-0.85,0-1.48-0.59-1.48-1.44V7.67
			c0-0.4,0.15-0.77,0.4-1.03c0.3-0.26,0.63-0.41,1.08-0.41h6.02c0.44,0,0.77,0.15,1.03,0.41c0.33,0.26,0.44,0.63,0.44,1.03V15.68z"
			/>
		<path class="st1" d="M128.12,27.39c0,0.01,0.03,2.47,0.03,2.47h19.83l0.01-2.47H128.12z"/>
		<path class="st1" d="M150.03,21.59c-0.48-0.22-0.92-0.33-1.48-0.33h-20.93c-0.55,0-1,0.11-1.48,0.33c-1.44,0.63-2.4,2.03-2.4,3.62
			v6.9c0,1.63,0.96,2.99,2.4,3.66c0.48,0.18,0.92,0.3,1.48,0.3h15.72c3.43,0,4.46-2.47,4.46-2.47h-20.18c-0.37,0-0.7-0.15-1-0.41
			c-0.26-0.26-0.41-0.63-0.41-1.08v-6.9c0-0.44,0.15-0.78,0.41-1.07c0.29-0.26,0.63-0.41,1-0.41h20.93c0.37,0,0.7,0.15,0.99,0.41
			c0.26,0.3,0.41,0.63,0.41,1.07v6.9c0,0.17,0.21,2.64-2.2,3.96c0.47-0.02,4.36-0.27,4.63-3.96v-6.9
			C152.39,23.62,151.47,22.22,150.03,21.59z"/>
		<path class="st1" d="M163.89,28.81c-0.51,2.14-1.4,4.06-2.55,5.95c-0.18,0.25-0.44,0.47-0.81,0.51c-0.33,0.07-0.67-0.04-0.96-0.22
			l-0.08-0.04c-0.48-0.36-0.62-1.07-0.3-1.62c0.52-0.78,0.96-1.63,1.33-2.48c0.41-0.85,0.7-1.74,0.96-2.73
			c0.14-0.59,0.77-0.99,1.4-0.88h0.08c0.33,0.07,0.59,0.29,0.81,0.55C163.93,28.15,164,28.47,163.89,28.81z"/>
		<path class="st1" d="M172.86,3.28c0.66,0,1.22,0.59,1.22,1.22v0.08c0,0.66-0.56,1.22-1.22,1.22h-4.98v1.81h4.69
			c0.67,0,1.22,0.52,1.22,1.22v0.04c0,0.66-0.56,1.22-1.22,1.22h-4.69v1.85h4.98c0.66,0,1.22,0.55,1.22,1.22v0.03
			c0,0.67-0.56,1.22-1.22,1.22h-4.98c0,0-0.93,1.73-2.86,1.73c-0.5,0,0.62-0.93,0.39-1.73h-5.02c-0.67,0-1.22-0.55-1.22-1.22v-0.03
			c0-0.66,0.55-1.22,1.22-1.22h5.02v-1.85h-4.68c-0.67,0-1.23-0.55-1.23-1.22V8.81c0-0.7,0.56-1.22,1.23-1.22h4.68V5.79h-5.02
			c-0.67,0-1.22-0.55-1.22-1.22V4.49c0-0.62,0.55-1.22,1.22-1.22h5.06c0.15-0.48,0.59-0.89,1.18-0.89h0.04
			c0.55,0,1.03,0.41,1.18,0.89H172.86z"/>
		<path class="st1" d="M189.75,3.28c0.66,0,1.22,0.59,1.22,1.22v0.08c0,0.66-0.55,1.22-1.22,1.22h-4.99v1.81h4.69
			c0.67,0,1.22,0.52,1.22,1.22v0.04c0,0.66-0.55,1.22-1.22,1.22h-4.69v1.85h4.99c0.66,0,1.22,0.55,1.22,1.22v0.03
			c0,0.67-0.55,1.22-1.22,1.22h-4.99c0,0-0.93,1.73-2.86,1.73c-0.51,0,0.62-0.93,0.39-1.73h-5.03c-0.66,0-1.22-0.55-1.22-1.22v-0.03
			c0-0.66,0.56-1.22,1.22-1.22h5.03v-1.85h-4.69c-0.67,0-1.22-0.55-1.22-1.22V8.81c0-0.7,0.55-1.22,1.22-1.22h4.69V5.79h-5.03
			c-0.66,0-1.22-0.55-1.22-1.22V4.49c0-0.62,0.56-1.22,1.22-1.22h5.06c0.15-0.48,0.59-0.89,1.18-0.89h0.04
			c0.55,0,1.03,0.41,1.18,0.89H189.75z"/>
		<path class="st1" d="M189.69,17.31c-0.63-0.63-1.4-0.93-2.28-0.93h-26.22c-0.66,0-1.22,0.52-1.22,1.22v0.07
			c0,0.66,0.56,1.22,1.22,1.22h26.22c0.44,0,0.74,0.34,0.74,0.78v3.58c0,0.45-0.3,0.78-0.74,0.78h-26.22
			c-0.66,0-1.22,0.51-1.22,1.22v0.07c0,0.62,0.56,1.18,1.22,1.18h26.22c0.88,0,1.66-0.34,2.28-0.96c0.66-0.59,1-1.41,1-2.29v-3.58
			C190.69,18.75,190.36,18,189.69,17.31z"/>
		<path class="st1" d="M186.83,20.22h-24.17c-0.66,0-1.18,0.59-1.18,1.22v0.07c0,0.66,0.52,1.22,1.18,1.22h24.17V20.22z"/>
		<path class="st1" d="M170.53,35.8c-1.33,0-2.36-0.41-2.95-1.17c-0.63-0.78-0.96-1.66-0.96-2.81v-3.33c0-0.7,0.56-1.22,1.22-1.22
			h0.07c0.66,0,1.22,0.52,1.22,1.22v3.33c0,0.44,0.07,0.77,0.33,1.07c0.22,0.29,0.59,0.44,1.07,0.44h12.98
			c0.63,0,1.22,0.52,1.22,1.21v0.04c0,0.66-0.59,1.21-1.22,1.21H170.53z"/>
		<path class="st1" d="M178.33,31.15c0,0.62-0.56,1.22-1.22,1.22h-0.04c-0.7,0-1.22-0.59-1.22-1.22v-2.66c0-0.7,0.52-1.22,1.22-1.22
			h0.04c0.66,0,1.22,0.52,1.22,1.22V31.15z"/>
		<path class="st1" d="M92.51,19.52c0.2-0.54,0.87-0.86,1.44-0.65l0.03,0.01c0.6,0.23,0.85,0.9,0.65,1.44l-1.47,3.94
			c-0.23,0.6-0.84,0.88-1.44,0.66l-0.03-0.01c-0.57-0.21-0.88-0.83-0.66-1.44L92.51,19.52z"/>
		<path class="st1" d="M190.73,33.4c0.26,0.59,0.04,1.3-0.59,1.59h-0.04c-0.6,0.33-1.33,0.03-1.63-0.56l-2.73-5.75
			c-0.29-0.59-0.04-1.33,0.55-1.63c0.3-0.11,0.63-0.14,0.96-0.07c0.33,0.11,0.56,0.34,0.7,0.62L190.73,33.4z"/>
	</g>
	<g>
		<path class="st1" d="M90.8,42.2c-1.39,0-2.4,0.29-3.03,0.86c-0.63,0.57-0.94,1.48-0.94,2.73c0,1.62,0.61,2.96,1.82,4.02
			c1.21,1.06,2.78,1.59,4.69,1.59c0.39,0,0.64,0.04,0.75,0.12c0.11,0.08,0.17,0.21,0.17,0.4c0,0.18-0.06,0.31-0.19,0.4
			c-0.12,0.08-0.32,0.12-0.58,0.12c-2.31,0-4.2-0.63-5.66-1.88c-1.46-1.25-2.19-2.84-2.19-4.76c0-0.78,0.15-1.5,0.45-2.18
			c0.3-0.67,0.7-1.21,1.23-1.61c0.39-0.31,0.87-0.53,1.44-0.66c0.56-0.13,1.45-0.2,2.65-0.2h1.97c0.21,0,0.37,0.05,0.48,0.14
			c0.11,0.1,0.17,0.22,0.17,0.39c0,0.16-0.06,0.29-0.17,0.37c-0.12,0.09-0.27,0.13-0.48,0.13H90.8z"/>
		<path class="st1" d="M101.34,51.72c0,0.21-0.05,0.37-0.14,0.47c-0.09,0.11-0.22,0.16-0.38,0.16c-0.17,0-0.29-0.05-0.38-0.16
			c-0.09-0.11-0.13-0.27-0.13-0.48v-9.91c0-0.21,0.04-0.37,0.13-0.48c0.09-0.11,0.21-0.16,0.38-0.16c0.17,0,0.29,0.06,0.38,0.17
			c0.09,0.11,0.14,0.27,0.14,0.47V51.72z"/>
		<path class="st1" d="M107.67,48.2c0-1.25,0.36-2.28,1.08-3.09c0.72-0.8,1.64-1.2,2.76-1.2c1.12,0,2.03,0.4,2.75,1.2
			c0.72,0.8,1.07,1.83,1.07,3.09c0,1.24-0.36,2.26-1.07,3.06c-0.71,0.79-1.63,1.19-2.75,1.19c-1.12,0-2.04-0.4-2.76-1.19
			C108.03,50.45,107.67,49.43,107.67,48.2z M111.51,44.83c-0.82,0-1.49,0.31-2.01,0.93c-0.52,0.62-0.78,1.42-0.78,2.42
			c0,0.99,0.26,1.79,0.79,2.42c0.52,0.62,1.19,0.93,1.99,0.93c0.81,0,1.48-0.31,2.01-0.94c0.53-0.63,0.79-1.43,0.79-2.41
			c0-0.98-0.26-1.79-0.79-2.41C112.98,45.14,112.31,44.83,111.51,44.83z"/>
		<path class="st1" d="M127.16,51.11c-0.33,0.46-0.71,0.8-1.15,1.02c-0.44,0.22-0.94,0.33-1.5,0.33c-0.96,0-1.7-0.28-2.2-0.83
			c-0.51-0.55-0.76-1.35-0.76-2.41v-4.57c0-0.21,0.04-0.38,0.14-0.49c0.09-0.11,0.22-0.17,0.39-0.17c0.16,0,0.29,0.06,0.38,0.17
			c0.09,0.11,0.13,0.28,0.13,0.49v4.1c0,1.02,0.16,1.74,0.49,2.16c0.33,0.42,0.86,0.63,1.61,0.63c0.84,0,1.46-0.29,1.87-0.88
			c0.41-0.59,0.61-1.48,0.61-2.69v-3.32c0-0.21,0.05-0.38,0.14-0.49c0.09-0.11,0.22-0.17,0.39-0.17c0.17,0,0.29,0.06,0.38,0.17
			c0.08,0.11,0.13,0.28,0.13,0.49v7.05c0,0.21-0.04,0.38-0.13,0.49c-0.09,0.11-0.21,0.17-0.38,0.17c-0.17,0-0.29-0.06-0.39-0.17
			c-0.09-0.11-0.14-0.28-0.14-0.48V51.11z"/>
		<path class="st1" d="M140.85,52.31h-1.39c-0.93,0-1.64-0.05-2.14-0.15c-0.49-0.1-0.91-0.27-1.23-0.5
			c-0.49-0.34-0.85-0.77-1.1-1.29c-0.25-0.51-0.37-1.1-0.37-1.75c0-1.44,0.5-2.58,1.51-3.41c1-0.84,2.38-1.26,4.12-1.26
			c0.17,0,0.29,0,0.38,0c0.08,0,0.17,0,0.25,0v-2.15c0-0.21,0.04-0.37,0.13-0.48c0.08-0.11,0.21-0.16,0.38-0.16
			c0.18,0,0.31,0.05,0.4,0.16c0.09,0.11,0.13,0.27,0.13,0.48v9.83c0,0.27-0.07,0.44-0.22,0.54
			C141.53,52.27,141.26,52.31,140.85,52.31z M140.87,44.92c-0.04,0-0.11,0-0.2-0.01c-0.29-0.02-0.48-0.02-0.58-0.02
			c-1.32,0-2.38,0.34-3.16,1.01c-0.78,0.67-1.17,1.57-1.17,2.68c0,0.89,0.25,1.57,0.74,2.04c0.49,0.47,1.21,0.7,2.14,0.7h2.24V44.92
			z"/>
		<path class="st1" d="M150.76,51.3c0.42-0.84,0.79-1.78,1.1-2.81c0.31-1.03,0.57-2.16,0.78-3.38c0-0.04,0.01-0.09,0.02-0.16
			c0.1-0.61,0.28-0.92,0.54-0.92c0.25,0,0.42,0.28,0.51,0.85c0.02,0.09,0.03,0.17,0.04,0.22c0.2,1.19,0.45,2.31,0.76,3.35
			c0.31,1.04,0.68,1.99,1.11,2.85c0.42-0.73,0.74-1.57,0.95-2.52c0.21-0.95,0.32-1.99,0.32-3.11c0-0.11,0-0.25-0.01-0.43
			c-0.01-0.18-0.01-0.3-0.01-0.36c0-0.35,0.04-0.58,0.12-0.69c0.08-0.12,0.22-0.17,0.41-0.17c0.2,0,0.34,0.09,0.42,0.27
			c0.08,0.18,0.11,0.57,0.11,1.15c0,0.98-0.1,1.96-0.3,2.96c-0.2,1-0.48,1.9-0.85,2.71c-0.24,0.54-0.44,0.89-0.59,1.04
			c-0.15,0.15-0.33,0.23-0.54,0.23c-0.41,0-0.81-0.45-1.2-1.35c-0.39-0.9-0.82-2.35-1.29-4.34c-0.44,1.96-0.86,3.4-1.26,4.31
			c-0.4,0.92-0.8,1.38-1.21,1.38c-0.2,0-0.37-0.06-0.51-0.19c-0.14-0.13-0.31-0.39-0.49-0.78c-0.4-0.82-0.72-1.76-0.95-2.82
			c-0.23-1.05-0.34-2.1-0.34-3.15c0-0.56,0.04-0.94,0.12-1.13c0.08-0.2,0.22-0.29,0.43-0.29c0.18,0,0.31,0.05,0.39,0.15
			c0.08,0.1,0.12,0.26,0.12,0.47v1.03c0,1.11,0.11,2.14,0.32,3.1C150.02,49.73,150.34,50.57,150.76,51.3z"/>
		<path class="st1" d="M165.59,42.78c0,0.26-0.04,0.44-0.12,0.56c-0.08,0.12-0.21,0.18-0.39,0.18c-0.17,0-0.3-0.06-0.38-0.18
			c-0.09-0.12-0.13-0.31-0.13-0.55c0-0.26,0.04-0.44,0.12-0.55c0.08-0.11,0.21-0.17,0.39-0.17c0.17,0,0.3,0.06,0.38,0.18
			C165.55,42.36,165.59,42.54,165.59,42.78z M164.57,44.7c0-0.21,0.04-0.37,0.13-0.48c0.09-0.11,0.21-0.16,0.38-0.16
			s0.29,0.06,0.38,0.16c0.08,0.11,0.13,0.27,0.13,0.48v7.02c0,0.21-0.04,0.37-0.13,0.48c-0.09,0.11-0.21,0.16-0.38,0.16
			s-0.29-0.05-0.38-0.16c-0.09-0.11-0.13-0.27-0.13-0.48V44.7z"/>
		<path class="st1" d="M172.23,52.31c-0.21,0-0.37-0.04-0.48-0.13c-0.11-0.09-0.16-0.21-0.16-0.36c0-0.16,0.05-0.27,0.16-0.35
			c0.11-0.08,0.27-0.11,0.49-0.11h2.87c0.91,0,1.55-0.15,1.93-0.43c0.38-0.29,0.56-0.76,0.56-1.42c0-0.44-0.12-0.79-0.36-1.05
			c-0.24-0.26-0.6-0.44-1.1-0.53l-2.52-0.5c-0.72-0.14-1.2-0.34-1.46-0.57c-0.26-0.24-0.38-0.57-0.38-1.01
			c0-0.58,0.23-1.02,0.7-1.33c0.47-0.31,1.13-0.46,1.99-0.46h2.79c0.21,0,0.38,0.04,0.49,0.13c0.11,0.09,0.17,0.21,0.17,0.36
			c0,0.15-0.06,0.27-0.17,0.35c-0.11,0.08-0.28,0.12-0.5,0.12h-3.15c-0.44,0-0.75,0.05-0.92,0.16c-0.17,0.1-0.26,0.28-0.26,0.54
			c0,0.2,0.05,0.36,0.16,0.47c0.11,0.11,0.28,0.19,0.53,0.25l2.62,0.52c0.81,0.17,1.42,0.46,1.82,0.87c0.4,0.42,0.6,0.97,0.6,1.64
			c0,0.96-0.31,1.67-0.94,2.14c-0.62,0.47-1.58,0.71-2.85,0.71H172.23z"/>
		<path class="st1" d="M191.01,51.38c0.21,0,0.38,0.04,0.49,0.12c0.11,0.08,0.17,0.2,0.17,0.35c0,0.15-0.06,0.27-0.16,0.35
			c-0.11,0.08-0.28,0.12-0.49,0.12h-1.63c-0.84,0-1.51-0.06-2.03-0.17c-0.51-0.11-0.96-0.3-1.35-0.55
			c-0.52-0.34-0.94-0.82-1.24-1.44c-0.3-0.62-0.45-1.31-0.45-2.05c0-1.21,0.37-2.21,1.1-3c0.73-0.79,1.67-1.19,2.8-1.19
			c1.02,0,1.87,0.33,2.58,1c0.7,0.67,1.05,1.47,1.05,2.4v0.31c0,0.14-0.04,0.24-0.13,0.32c-0.08,0.08-0.21,0.11-0.37,0.11h-5.9v0.05
			c0,1.18,0.29,2.02,0.88,2.52c0.58,0.5,1.58,0.76,2.98,0.76H191.01z M185.53,47.16h5.22c-0.03-0.73-0.28-1.32-0.75-1.75
			c-0.47-0.43-1.09-0.65-1.86-0.65c-0.75,0-1.37,0.22-1.84,0.65C185.83,45.84,185.58,46.43,185.53,47.16z"/>
	</g>
</g>
</svg>
