<svg width="140" height="49" viewBox="0 0 140 49" fill="none" xmlns="http://www.w3.org/2000/svg">
<path d="M52.1846 22.3453C52.1846 18.7904 49.4104 15.9085 45.9883 15.9085C40.814 15.9085 39.4006 21.1767 38.6823 25.5157C37.728 31.2799 33.5958 42.8085 20.186 47.9964C33.4109 50.206 45.6826 42.3879 50.5199 30.7035C51.596 28.1041 52.1846 25.1808 52.1846 22.3453Z" fill="#5C3AC0"/>
<path d="M35.9078 23.8825C35.9078 20.3276 33.1337 17.4457 29.7116 17.4457C26.6904 17.4457 24.3202 19.5455 23.6261 22.6646C21.3883 32.7211 13.8973 42.6165 2.79956 45.6907C13.5274 49.4375 25.9199 45.3065 32.486 34.5465C34.3439 31.3159 35.9078 27.7106 35.9078 23.8825Z" fill="#5C3AC0"/>
<path d="M14.1735 17.2354C15.1765 19.2411 16.8345 21.6743 19.1329 22.184C19.6186 22.2917 20.3862 22.0568 20.9662 21.83C21.2069 21.7359 21.3717 21.9543 21.2455 22.1806C20.0158 23.7584 20.1631 24.7719 18.8911 27.8212C16.8874 32.6247 13.0648 37.5243 6.89424 40.98C6.63055 40.7594 6.6908 40.5745 6.83934 40.2695C7.79342 38.5811 8.28454 36.5749 7.60848 33.4894C6.5912 30.0308 4.2792 28.1094 1.26496 26.9138C0.774756 26.6626 0.931988 25.674 1.47455 25.6036C3.98887 25.2774 7.70811 24.5051 9.72303 22.704C11.3159 21.2803 12.1431 19.1705 12.5715 17.4384C12.7103 16.8775 13.9164 16.7213 14.1735 17.2354Z" fill="#F0BD3B"/>
<path d="M30.1632 7.4972C26.1814 7.46929 22.9271 4.17389 22.6415 0H22.6007C22.3174 4.13822 19.1162 7.41291 15.1808 7.49577V7.49898C19.2869 7.58544 22.5938 11.1467 22.6209 15.538H22.6212C22.6485 11.1104 26.0101 7.52665 30.1632 7.49755V7.4972Z" fill="#F0BD3B"/>
<path d="M44.2092 8.80486C41.5961 8.78655 39.4606 6.62394 39.2731 3.88483H39.2463C39.0604 6.60054 36.9596 8.74955 34.377 8.80392V8.80603C37.0717 8.86277 39.2926 11.1998 39.3104 14.0817C39.3283 11.176 41.5538 8.98267 44.2092 8.80486Z" fill="#F0BD3B"/>
<path fill-rule="evenodd" clip-rule="evenodd" d="M62 22.7514V23.912C65.1412 23.0918 67.1025 20.7081 67.9157 18H65.8906C65.2847 20.0272 63.9932 22.0241 62 22.7514ZM62 27.1853V28.3459C62.8099 28.1345 63.5413 27.8191 64.1948 27.421V34.2579H66.3896V25.4449C67.0828 24.5456 67.5908 23.5157 67.9157 22.434H65.8906C65.2847 24.4611 63.9932 26.458 62 27.1853ZM78.8269 18.739H69.3161V20.217H78.8269V18.739ZM68.5844 23.912H79.5585V25.3899H76.6321V32.3069C76.6321 33.3844 75.7674 34.2579 74.7007 34.2579H71.5109V32.7799H73.7935C74.149 32.7799 74.4373 32.4887 74.4373 32.1296V25.3899H68.5844V23.912Z" fill="#777777"/>
<path fill-rule="evenodd" clip-rule="evenodd" d="M98.4177 18.6505H83.4604V20.1285H98.4177V18.6505ZM82.1598 25.3015H87.8918C87.5749 25.9413 86.8878 27.2807 86.2243 28.2574C85.3224 29.5851 83.6378 31.5829 83.6378 31.5829L83.6378 33.4304C83.6378 33.4304 87.1523 33.4277 90.4428 33.0789C92.1133 32.9019 94.4871 32.4612 95.9437 32.1745C96.2474 32.9301 96.5088 33.692 96.666 34.1694H99.0483C98.7011 33.3064 98.111 31.9264 97.4095 30.6385C97.0186 29.9209 96.434 29.0291 95.9035 28.2574H93.8916C94.2745 28.8975 94.8071 29.8096 95.2238 30.607C93.9717 30.7757 92.144 31.005 90.8017 31.1019C89.5749 31.1905 87.5481 31.326 85.9629 31.4306C86.6616 30.6864 87.5094 29.7463 88.0718 28.9964C89.1361 27.5773 90.0584 26.0013 90.4534 25.3015H99.7183V23.8235H82.1598V25.3015Z" fill="#777777"/>
<path fill-rule="evenodd" clip-rule="evenodd" d="M102.32 24.651V23.3453C104.195 22.434 105.696 20.217 106.447 18H106.822H108.698H109.073C109.823 20.217 111.324 22.434 113.2 23.3453V24.651C110.978 23.8304 108.962 22.1998 107.76 20.209C106.851 21.7139 105.477 23.013 103.901 23.912H109.073H111.324V25.39V27.8732C111.324 28.9507 110.437 29.8242 109.343 29.8242H107.572V28.3462H108.413C108.777 28.3462 109.073 28.055 109.073 27.6959V25.39H106.071V32.1296C106.071 32.4887 106.367 32.7799 106.732 32.7799H111.324V34.2579H105.801C104.707 34.2579 103.82 33.3844 103.82 32.3069L103.82 25.39V23.9574C103.336 24.2282 102.833 24.4612 102.32 24.651ZM117.627 18H119.878V32.3069C119.878 33.3844 118.991 34.2579 117.897 34.2579H115.376V32.7799H116.967C117.331 32.7799 117.627 32.4887 117.627 32.1296V18ZM116.126 19.478H113.875V30.5629H116.126V19.478Z" fill="#777777"/>
<path d="M127.985 19.399H131.06V20.8661H122.622V19.399H125.724V18H127.985V19.399Z" fill="#777777"/>
<path d="M127.985 26.5093H131.475V27.966H127.985V32.3254C127.985 33.3891 127.097 34.2537 125.995 34.2537H123.463V32.7918H125.059C125.426 32.7918 125.724 32.5036 125.724 32.1473V27.966H122.234V26.5041H125.724V24.9479H122.234V23.486H123.873C123.596 22.8206 123.405 22.0922 123.309 21.301H125.006C125.144 22.2127 125.336 22.9358 125.564 23.486H127.996C128.225 22.9358 128.411 22.2127 128.554 21.301H130.246C130.145 22.0922 129.959 22.8206 129.682 23.486H131.475V24.9531H127.985V26.5093Z" fill="#777777"/>
<path d="M124.931 28.7729H123.389C123.298 30.1614 122.835 31.2461 122 32.032V33.1481C123.899 32.3202 124.883 30.8688 124.931 28.7729Z" fill="#777777"/>
<path d="M138.396 20.3369C137.753 20.3579 136.721 20.3788 135.758 20.3579H134.449V22.9882H139.918V24.4554H138.343V34.2589H136.082V24.4554H134.433V29.3178H134.422C134.337 31.6757 133.385 33.321 131.225 34.2589V32.9699C131.251 32.9385 131.27 32.9071 131.29 32.8756C131.303 32.8547 131.317 32.8337 131.331 32.8127C129.714 31.9587 128.863 30.5806 128.82 28.6524H130.363C130.459 30.0409 130.922 31.1255 131.757 31.9115V32.0739C132.172 31.1151 132.177 30.1405 132.177 29.2026V18.896H134.896C136.747 18.9012 138.322 18.7231 139.945 18.4349V20.2164C139.503 20.274 139.008 20.316 138.396 20.3369Z" fill="#777777"/>
<path fill-rule="evenodd" clip-rule="evenodd" d="M66.0239 40.4949C65.0669 40.4949 64.2761 41.2873 64.2761 42.2833C64.2761 43.2793 65.0669 44.0717 66.0239 44.0717C66.5384 44.0717 67.0022 43.8447 67.3239 43.4787L68.0566 44.1227C67.5597 44.688 66.8337 45.0472 66.0239 45.0472C64.5117 45.0472 63.3006 43.8014 63.3006 42.2833C63.3006 40.7652 64.5117 39.5195 66.0239 39.5195C66.8337 39.5195 67.5597 39.8786 68.0566 40.4439L67.3239 41.0879C67.0022 40.7219 66.5384 40.4949 66.0239 40.4949Z" fill="#777777"/>
<path fill-rule="evenodd" clip-rule="evenodd" d="M70.975 39.6987H71.9505V43.9811H75.0395V44.9565H70.975V39.6987Z" fill="#777777"/>
<path fill-rule="evenodd" clip-rule="evenodd" d="M80.0875 40.4949C79.0998 40.4949 78.2991 41.2956 78.2991 42.2833C78.2991 43.271 79.0998 44.0717 80.0875 44.0717C81.0751 44.0717 81.8758 43.271 81.8758 42.2833C81.8758 41.2956 81.0751 40.4949 80.0875 40.4949ZM77.3236 42.2833C77.3236 40.7569 78.561 39.5195 80.0875 39.5195C81.6139 39.5195 82.8513 40.7569 82.8513 42.2833C82.8513 43.8097 81.6139 45.0472 80.0875 45.0472C78.561 45.0472 77.3236 43.8097 77.3236 42.2833Z" fill="#777777"/>
<path fill-rule="evenodd" clip-rule="evenodd" d="M86.428 39.5195V42.444C86.428 43.2521 87.0832 43.9072 87.8913 43.9072C88.6994 43.9072 89.3545 43.2521 89.3545 42.444V39.5195H90.3299V42.444C90.3299 43.7909 89.2381 44.8827 87.8913 44.8827C86.5444 44.8827 85.4526 43.7909 85.4526 42.444V39.5195H86.428Z" fill="#777777"/>
<path fill-rule="evenodd" clip-rule="evenodd" d="M92.9312 39.5195H95.5324C96.9691 39.5195 98.1337 40.6841 98.1337 42.1207C98.1337 43.5574 96.9691 44.722 95.5324 44.722H93.5815V43.7541H95.5324C96.4345 43.7541 97.1658 43.0228 97.1658 42.1207C97.1658 41.2187 96.4345 40.4874 95.5324 40.4874H93.8991V42.6501H92.9312V39.5195Z" fill="#777777"/>
<circle cx="103.499" cy="42.2836" r="0.812895" fill="#777777"/>
<path fill-rule="evenodd" clip-rule="evenodd" d="M111.953 40.4949L114.066 40.4949V39.5195L108.864 39.5195V40.4949L110.977 40.4949V44.8805H111.953V40.4949Z" fill="#777777"/>
<path fill-rule="evenodd" clip-rule="evenodd" d="M119.432 40.4949C118.444 40.4949 117.643 41.2956 117.643 42.2833C117.643 43.271 118.444 44.0717 119.432 44.0717C120.419 44.0717 121.22 43.271 121.22 42.2833C121.22 41.2956 120.419 40.4949 119.432 40.4949ZM116.668 42.2833C116.668 40.7569 117.905 39.5195 119.432 39.5195C120.958 39.5195 122.195 40.7569 122.195 42.2833C122.195 43.8097 120.958 45.0472 119.432 45.0472C117.905 45.0472 116.668 43.8097 116.668 42.2833Z" fill="#777777"/>
<path fill-rule="evenodd" clip-rule="evenodd" d="M127.56 40.4949C126.573 40.4949 125.772 41.2956 125.772 42.2833C125.772 43.271 126.573 44.0717 127.56 44.0717C128.379 44.0717 129.069 43.5216 129.282 42.771H127.56V41.7956H130.324V42.2833C130.324 42.4169 130.315 42.5485 130.296 42.6775C130.105 44.0174 128.953 45.0472 127.56 45.0472C126.034 45.0472 124.797 43.8097 124.797 42.2833C124.797 40.7569 126.034 39.5195 127.56 39.5195C128.484 39.5195 129.302 39.9731 129.803 40.6676L129.012 41.2383C128.686 40.7871 128.158 40.4949 127.56 40.4949Z" fill="#777777"/>
<path fill-rule="evenodd" clip-rule="evenodd" d="M135.689 40.4949C134.702 40.4949 133.901 41.2956 133.901 42.2833C133.901 43.271 134.702 44.0717 135.689 44.0717C136.677 44.0717 137.478 43.271 137.478 42.2833C137.478 41.2956 136.677 40.4949 135.689 40.4949ZM132.926 42.2833C132.926 40.7569 134.163 39.5195 135.689 39.5195C137.216 39.5195 138.453 40.7569 138.453 42.2833C138.453 43.8097 137.216 45.0472 135.689 45.0472C134.163 45.0472 132.926 43.8097 132.926 42.2833Z" fill="#777777"/>
</svg>
