<svg id="图层_1" data-name="图层 1" xmlns="http://www.w3.org/2000/svg" xmlns:xlink="http://www.w3.org/1999/xlink" viewBox="0 0 500 500"><defs><style>.cls-1{fill:none;clip-rule:evenodd;}.cls-2{clip-path:url(#clip-path);}.cls-3{fill:#4664b4;}.cls-4{clip-path:url(#clip-path-2);}.cls-5{clip-path:url(#clip-path-3);}.cls-6{clip-path:url(#clip-path-4);}.cls-7{clip-path:url(#clip-path-5);}.cls-8{clip-path:url(#clip-path-6);}.cls-9{clip-path:url(#clip-path-7);}.cls-10{clip-path:url(#clip-path-8);}.cls-11{clip-path:url(#clip-path-9);}.cls-12{clip-path:url(#clip-path-10);}.cls-13{clip-path:url(#clip-path-11);}.cls-14{clip-path:url(#clip-path-12);}.cls-15{clip-path:url(#clip-path-13);}</style><clipPath id="clip-path"><path class="cls-1" d="M124.37,221a1.66,1.66,0,0,0-.76-1.39L73.09,187.75a1.65,1.65,0,0,0-1.57-.11l-23,10.62h0a1.65,1.65,0,0,0-1,1.49V300a1.64,1.64,0,0,0,1,1.49l22.95,10.61a1.61,1.61,0,0,0,1.54-.1h0l50.53-31.82a1.69,1.69,0,0,0,.77-1.4ZM70.58,285.8,50.85,297.19V200.74l19.73-9.09Zm36.75-21.23L73.82,283.92V215.8l33.51,19.35ZM121.12,275l-10.54-10.15V234.9l10.54-10.14Z"/></clipPath><clipPath id="clip-path-2"><path class="cls-1" d="M153.16,232.09c1.12-.13,2.47-.25,4.05-.37s3.12-.17,4.64-.17q9.32,0,13.93,4.74t4.61,13.62q0,9.29-4.71,13.77t-14,4.48c-1.55,0-3.08-.05-4.59-.16s-2.82-.26-3.9-.43Zm5,31.34c.46.06,1,.12,1.7.17s1.39.08,2.15.08a19.86,19.86,0,0,0,5.3-.67,9.84,9.84,0,0,0,4.12-2.24,10.21,10.21,0,0,0,2.67-4.28,20.73,20.73,0,0,0,.94-6.73,19,19,0,0,0-.94-6.32,11.11,11.11,0,0,0-2.64-4.27,10,10,0,0,0-4.07-2.39,17.63,17.63,0,0,0-5.23-.74l-2.05,0a13.25,13.25,0,0,0-1.95.18Z"/></clipPath><clipPath id="clip-path-3"><path class="cls-1" d="M203.05,250.89c0-1.94-.5-3.28-1.48-4a7,7,0,0,0-4.3-1.13A18.27,18.27,0,0,0,194,246a25.55,25.55,0,0,0-2.93.71,7.61,7.61,0,0,1-.94-3.9,23.19,23.19,0,0,1,3.7-.84,28,28,0,0,1,3.9-.29c3.29,0,5.79.74,7.5,2.24s2.57,3.89,2.57,7.19v15.83c-1.16.27-2.56.54-4.2.82a29.9,29.9,0,0,1-5,.41,19.5,19.5,0,0,1-4.36-.44,8.77,8.77,0,0,1-3.31-1.43,6.55,6.55,0,0,1-2.09-2.51,8.36,8.36,0,0,1-.74-3.7,7.53,7.53,0,0,1,3.21-6.4,10.41,10.41,0,0,1,3.4-1.57,15.29,15.29,0,0,1,4-.52c1.05,0,1.91,0,2.59.07s1.23.11,1.7.17Zm0,4.79c-.5-.07-1.12-.13-1.88-.19s-1.4-.11-1.92-.11a8,8,0,0,0-4.67,1.14A4,4,0,0,0,193,260a4.25,4.25,0,0,0,.54,2.31,3.8,3.8,0,0,0,1.36,1.29,4.67,4.67,0,0,0,1.8.54,17.71,17.71,0,0,0,1.88.1,21.16,21.16,0,0,0,2.34-.13,12.28,12.28,0,0,0,2.15-.37Z"/></clipPath><clipPath id="clip-path-4"><path class="cls-1" d="M218.59,246.16h-3.85l-.19-.69L223,236h.39v6.27h6.42a8.28,8.28,0,0,1,.2,1.88c0,.35,0,.7,0,1a8.46,8.46,0,0,1-.15,1h-6.42v11.55a24,24,0,0,0,.18,3.3,5.13,5.13,0,0,0,.59,1.9,2,2,0,0,0,1.14.89,6,6,0,0,0,1.8.22,9.85,9.85,0,0,0,1.58-.12c.49-.08.94-.18,1.33-.27a7.82,7.82,0,0,1,.42,2c0,.69.07,1.3.07,1.82a16.18,16.18,0,0,1-2.07.38,21,21,0,0,1-2.32.12,8.22,8.22,0,0,1-5.55-1.73c-1.33-1.15-2-3.05-2-5.72Z"/></clipPath><clipPath id="clip-path-5"><path class="cls-1" d="M251.16,250.89c0-1.94-.49-3.28-1.48-4a6.94,6.94,0,0,0-4.29-1.13,18.11,18.11,0,0,0-3.23.27,25.22,25.22,0,0,0-2.94.71,7.61,7.61,0,0,1-.94-3.9A23.19,23.19,0,0,1,242,242a28,28,0,0,1,3.9-.29c3.29,0,5.79.74,7.5,2.24s2.56,3.89,2.56,7.19v15.83c-1.15.27-2.55.54-4.19.82a29.87,29.87,0,0,1-5,.41,19.53,19.53,0,0,1-4.37-.44,8.72,8.72,0,0,1-3.3-1.43,6.49,6.49,0,0,1-2.1-2.51,8.36,8.36,0,0,1-.74-3.7,7.69,7.69,0,0,1,.86-3.73,7.8,7.8,0,0,1,2.34-2.67,10.56,10.56,0,0,1,3.41-1.57,15.29,15.29,0,0,1,4.05-.52c1,0,1.91,0,2.59.07s1.24.11,1.7.17Zm0,4.79c-.49-.07-1.12-.13-1.88-.19s-1.39-.11-1.92-.11a8.05,8.05,0,0,0-4.67,1.14,4,4,0,0,0-1.6,3.46,4.16,4.16,0,0,0,.55,2.31,3.69,3.69,0,0,0,1.35,1.29,4.72,4.72,0,0,0,1.8.54,17.85,17.85,0,0,0,1.88.1,20.9,20.9,0,0,0,2.34-.13,12.28,12.28,0,0,0,2.15-.37Z"/></clipPath><clipPath id="clip-path-6"><path class="cls-1" d="M266.16,232.05c.5-.07,1.08-.14,1.75-.2s1.39-.13,2.12-.17,1.48-.1,2.23-.13,1.45-.05,2.14-.05a23.26,23.26,0,0,1,5.16.55,11.42,11.42,0,0,1,4.29,1.87,9.45,9.45,0,0,1,2.94,3.53,12.28,12.28,0,0,1,1.08,5.5,12.75,12.75,0,0,1-1.15,5.75,10.16,10.16,0,0,1-3.06,3.67,11.64,11.64,0,0,1-4.32,1.95,20.92,20.92,0,0,1-4.94.57c-.62,0-1.17,0-1.65,0s-1-.06-1.56-.13v12.83a18.21,18.21,0,0,1-2.51.15c-.4,0-.81,0-1.26,0a8.39,8.39,0,0,1-1.26-.13Zm5,18.3q.8.1,1.38.15c.4,0,1,.05,1.74.05a14.78,14.78,0,0,0,3-.32,7.31,7.31,0,0,0,2.69-1.16,6,6,0,0,0,1.9-2.3,8.62,8.62,0,0,0,.71-3.77,8.42,8.42,0,0,0-.61-3.41,5.69,5.69,0,0,0-1.71-2.22,6.52,6.52,0,0,0-2.61-1.18,15,15,0,0,0-3.31-.34,30.59,30.59,0,0,0-3.21.14Z"/></clipPath><clipPath id="clip-path-7"><path class="cls-1" d="M297.64,246.11h-3.2a5.39,5.39,0,0,1-.15-.91c0-.35-.05-.68-.05-1s0-.67.05-1a5.39,5.39,0,0,1,.15-.91h8v25.31a9.74,9.74,0,0,1-1.21.15c-.44,0-.85,0-1.21,0s-.71,0-1.16,0a10.25,10.25,0,0,1-1.21-.15Zm-1.08-9.43a8.31,8.31,0,0,1-.12-1.28q0-.69,0-1.23c0-.37,0-.78,0-1.24a7.56,7.56,0,0,1,.12-1.24c.43-.06.89-.11,1.38-.14s.92-.05,1.29-.05.78,0,1.28.05.93.08,1.33.14a8.84,8.84,0,0,1,.12,1.24c0,.46,0,.87,0,1.24s0,.77,0,1.23a9.78,9.78,0,0,1-.12,1.28,11.85,11.85,0,0,1-1.31.15c-.47,0-.9,0-1.26,0s-.84,0-1.33,0S297,236.75,296.56,236.68Z"/></clipPath><clipPath id="clip-path-8"><path class="cls-1" d="M312.79,242.26q.49-.09,1-.15c.34,0,.69-.05,1.06-.05s.66,0,1,.05.7.09,1,.15a3.53,3.53,0,0,1,.12.62q.07.52.15,1.11c.05.39.1.77.15,1.13a6.6,6.6,0,0,1,.07.7,9.8,9.8,0,0,1,1.19-1.54,7.88,7.88,0,0,1,1.65-1.33,8.71,8.71,0,0,1,2.17-.93,9.42,9.42,0,0,1,2.69-.35,11.13,11.13,0,0,1,4.12.74,8.38,8.38,0,0,1,3.26,2.29,11.18,11.18,0,0,1,2.12,4,18.64,18.64,0,0,1,.77,5.65c0,4.34-1.19,7.74-3.53,10.19s-5.69,3.68-10,3.67a17,17,0,0,1-2.22-.14,13.71,13.71,0,0,1-2-.39v11.59a12.08,12.08,0,0,1-1.26.15c-.44,0-.85.05-1.21.05s-.77,0-1.21-.05a10,10,0,0,1-1.21-.15Zm4.89,21.17a9.17,9.17,0,0,0,1.92.49,17.82,17.82,0,0,0,2.57.15,9,9,0,0,0,3.26-.57,6.55,6.55,0,0,0,2.54-1.75,8.64,8.64,0,0,0,1.67-3,13.26,13.26,0,0,0,.62-4.27,11.73,11.73,0,0,0-1.46-6.27,5.17,5.17,0,0,0-4.76-2.32,6.6,6.6,0,0,0-2.37.44,6.15,6.15,0,0,0-2,1.34,6.59,6.59,0,0,0-1.43,2.24,8.79,8.79,0,0,0-.54,3.24Z"/></clipPath><clipPath id="clip-path-9"><path class="cls-1" d="M348.07,256.12c.07,2.77.79,4.79,2.15,6.08s3.38,1.92,6,1.92a18.18,18.18,0,0,0,6.66-1.23,7.24,7.24,0,0,1,.64,1.8,11.94,11.94,0,0,1,.3,2.1,16.61,16.61,0,0,1-3.58,1,24.86,24.86,0,0,1-4.32.35,16.1,16.1,0,0,1-5.92-1,10.59,10.59,0,0,1-4.07-2.71,10.8,10.8,0,0,1-2.35-4.14,17.88,17.88,0,0,1-.74-5.26,18.52,18.52,0,0,1,.72-5.26,12.12,12.12,0,0,1,2.19-4.24,10.78,10.78,0,0,1,3.73-2.86,12.3,12.3,0,0,1,5.31-1.06,11,11,0,0,1,4.59.89,9.29,9.29,0,0,1,3.3,2.44,10.51,10.51,0,0,1,2,3.7,14.88,14.88,0,0,1,.69,4.66c0,.46,0,.95,0,1.46s-.07,1-.1,1.3Zm12.54-3.65a9.2,9.2,0,0,0-.37-2.64,6.52,6.52,0,0,0-1.09-2.19,5.29,5.29,0,0,0-1.82-1.51,6.68,6.68,0,0,0-7.26,1.26,9,9,0,0,0-1.95,5.08Z"/></clipPath><clipPath id="clip-path-10"><path class="cls-1" d="M374.23,231.4c.36-.06.77-.11,1.21-.15s.84-.05,1.21-.05.76,0,1.21.05.84.09,1.2.15v28.53a7.73,7.73,0,0,0,.25,2.17,3,3,0,0,0,.67,1.21,1.91,1.91,0,0,0,1,.54,5.91,5.91,0,0,0,1.21.12,9.62,9.62,0,0,0,1-.05,6.85,6.85,0,0,0,1-.14,14.83,14.83,0,0,1,.45,3.75,6.87,6.87,0,0,1-1.68.32c-.66,0-1.27.07-1.83.07a10,10,0,0,1-2.67-.35,5.59,5.59,0,0,1-2.16-1.13,5.4,5.4,0,0,1-1.49-2.12,8.85,8.85,0,0,1-.54-3.31Z"/></clipPath><clipPath id="clip-path-11"><path class="cls-1" d="M393,246.11h-3.2a6.54,6.54,0,0,1-.16-.91c0-.35-.05-.68-.05-1s0-.67.05-1a6.54,6.54,0,0,1,.16-.91h8v25.31a10.25,10.25,0,0,1-1.21.15c-.45,0-.85,0-1.21,0s-.72,0-1.16,0a10,10,0,0,1-1.21-.15Zm-1.09-9.43a11.88,11.88,0,0,1-.12-1.28c0-.46,0-.87,0-1.23s0-.78,0-1.24a10.65,10.65,0,0,1,.12-1.24c.43-.06.89-.11,1.39-.14s.91-.05,1.28-.05.79,0,1.28.05.94.08,1.34.14a10.65,10.65,0,0,1,.12,1.24c0,.46,0,.87,0,1.24s0,.77,0,1.23a11.88,11.88,0,0,1-.12,1.28,11.85,11.85,0,0,1-1.31.15c-.48,0-.9,0-1.26,0s-.84,0-1.33,0A13.77,13.77,0,0,1,391.89,236.68Z"/></clipPath><clipPath id="clip-path-12"><path class="cls-1" d="M408.18,242.26l1.06-.15c.35,0,.7-.05,1.06-.05s.7,0,1,.05l1,.15c.1.49.19,1.16.29,2a18.19,18.19,0,0,1,.15,2.09,10.6,10.6,0,0,1,1.26-1.67,9.86,9.86,0,0,1,1.75-1.51,9.09,9.09,0,0,1,5.08-1.5c2.9,0,5,.83,6.42,2.49s2.07,4.12,2.07,7.38v16a9.86,9.86,0,0,1-1.23.15c-.46,0-.88,0-1.24,0s-.76,0-1.21,0a9.57,9.57,0,0,1-1.2-.15v-14.7a9.67,9.67,0,0,0-1.09-5.16,3.82,3.82,0,0,0-3.45-1.65,7,7,0,0,0-2.62.49,5.81,5.81,0,0,0-2.17,1.53,7.63,7.63,0,0,0-1.51,2.69,12.3,12.3,0,0,0-.56,4v12.83a10,10,0,0,1-1.21.15c-.45,0-.85,0-1.21,0s-.78,0-1.24,0a9.86,9.86,0,0,1-1.23-.15Z"/></clipPath><clipPath id="clip-path-13"><path class="cls-1" d="M442.82,256.12c.07,2.77.78,4.79,2.15,6.08s3.38,1.92,6,1.92a18.15,18.15,0,0,0,6.66-1.23,7.65,7.65,0,0,1,.65,1.8,11.91,11.91,0,0,1,.29,2.1,16.45,16.45,0,0,1-3.58,1,24.82,24.82,0,0,1-4.31.35,16.16,16.16,0,0,1-5.93-1,10.66,10.66,0,0,1-4.07-2.71,10.78,10.78,0,0,1-2.34-4.14,17.55,17.55,0,0,1-.74-5.26,18.52,18.52,0,0,1,.72-5.26,12,12,0,0,1,2.19-4.24,10.78,10.78,0,0,1,3.73-2.86,12.22,12.22,0,0,1,5.3-1.06,10.93,10.93,0,0,1,4.59.89,9.21,9.21,0,0,1,3.3,2.44,10.37,10.37,0,0,1,2,3.7,15.17,15.17,0,0,1,.69,4.66c0,.46,0,.95-.05,1.46s-.06,1-.1,1.3Zm12.53-3.65a9.2,9.2,0,0,0-.37-2.64,6.7,6.7,0,0,0-1.08-2.19,5.42,5.42,0,0,0-1.83-1.51,6.66,6.66,0,0,0-7.25,1.26,9,9,0,0,0-1.95,5.08Z"/></clipPath></defs><g class="cls-2"><rect class="cls-3" x="34.71" y="174.59" width="102.57" height="150.53"/></g><g class="cls-4"><rect class="cls-3" x="140.26" y="218.65" width="53.03" height="62.41"/></g><g class="cls-5"><rect class="cls-3" x="175.2" y="228.77" width="45.54" height="52.29"/></g><g class="cls-6"><rect class="cls-3" x="201.65" y="223.09" width="41.78" height="57.77"/></g><g class="cls-7"><rect class="cls-3" x="223.31" y="228.77" width="45.53" height="52.29"/></g><g class="cls-8"><rect class="cls-3" x="253.26" y="218.61" width="47.51" height="62.01"/></g><g class="cls-9"><rect class="cls-3" x="281.34" y="218.61" width="33.99" height="62.07"/></g><g class="cls-10"><rect class="cls-3" x="299.89" y="228.77" width="48.4" height="63.55"/></g><g class="cls-11"><rect class="cls-3" x="329.99" y="228.77" width="48.35" height="52.3"/></g><g class="cls-12"><rect class="cls-3" x="361.33" y="218.31" width="36.16" height="62.52"/></g><g class="cls-13"><rect class="cls-3" x="376.67" y="218.61" width="33.99" height="62.07"/></g><g class="cls-14"><rect class="cls-3" x="395.28" y="228.77" width="46.97" height="51.9"/></g><g class="cls-15"><rect class="cls-3" x="424.74" y="228.77" width="48.35" height="52.3"/></g></svg>