<?xml version="1.0" encoding="utf-8"?>
<!-- Generator: Adobe Illustrator 19.0.0, SVG Export Plug-In . SVG Version: 6.00 Build 0)  -->
<svg version="1.1" id="Layer_1" xmlns="http://www.w3.org/2000/svg" xmlns:xlink="http://www.w3.org/1999/xlink" x="0px" y="0px"
	 viewBox="0 0 1208.9 850.4" style="enable-background:new 0 0 1208.9 850.4;" xml:space="preserve">
<style type="text/css">
	.st0{fill:#FF7D41;}
	.st1{fill:#5A5A5A;}
</style>
<g>
	<path class="st0" d="M320,504.6c59.8-1.9,107.2-49.5,107.9-108.6v-50.8h65.8v56.2C492.4,492.8,413,564.9,320,566.9v0
		c-94.6-0.6-174.6-73.2-175.9-165.6v-101c-0.1-10.3,6.6-17,16.7-16.9l267.1,0v61.7l-209.4,0.1c-5.4,0-8.6,3.3-8.6,8.6V395
		C210.6,454.9,258.8,504,320,504.6L320,504.6z"/>
	<g>
		<rect x="1037.5" y="388.2" class="st1" width="26" height="136.2"/>
		<path class="st1" d="M844.3,524.4V330.7h66.4c60.4,0,92.9,42.7,92.9,96.9c0,55.1-33.6,96.9-93.2,96.9H844.3z M905.7,501.3
			c46.7,0,71.9-24.5,71.9-73.7c0-50.6-26.6-73.9-70.8-73.9h-36.4v147.6H905.7z"/>
		<path class="st1" d="M1033.9,342.7c0-9.2,7.5-16.7,16.7-16.7c9.2,0,16.7,7.5,16.7,16.7c0,9.2-7.5,16.7-16.7,16.7
			C1041.3,359.3,1033.9,351.9,1033.9,342.7z"/>
		<rect x="773.1" y="388.2" class="st1" width="26" height="136.2"/>
		<path class="st1" d="M578.8,524.4V330.7h66.4c60.4,0,92.9,42.7,92.9,96.9c0,55.1-33.6,96.9-93.2,96.9H578.8z M640.2,501.3
			c46.7,0,71.9-24.5,71.9-73.7c0-50.6-26.6-73.9-70.8-73.9h-36.4v147.6H640.2z"/>
		<path class="st1" d="M769.5,342.7c0-9.2,7.5-16.7,16.7-16.7c9.2,0,16.7,7.5,16.7,16.7c0,9.2-7.5,16.7-16.7,16.7
			C777,359.3,769.5,351.9,769.5,342.7z"/>
	</g>
</g>
</svg>
