<?xml version="1.0" encoding="utf-8"?>
<!-- Generator: Adobe Illustrator 26.0.3, SVG Export Plug-In . SVG Version: 6.00 Build 0)  -->
<svg version="1.1" id="图层_1" xmlns="http://www.w3.org/2000/svg" xmlns:xlink="http://www.w3.org/1999/xlink" x="0px" y="0px"
	 viewBox="0 0 460.4 171.9" style="enable-background:new 0 0 460.4 171.9;" xml:space="preserve">
<style type="text/css">
	.st0{fill:#D7001D;}
</style>
<g>
	<g>
		<path d="M201.1,37.2c0,0-2.8-0.6-3.9-0.9c0.9-0.3,3.4-0.6,4.4-0.9l0-0.3c-1.6-0.5-4-0.6-5-1.1l3.8-0.8v-0.3
			c-1.8-0.4-5.3-0.9-5.3-0.9l4.2-0.9l-0.3-0.3l-6.5-1l4.8-0.9l-0.3-0.3l-9.3-0.7l-0.3-0.3l7.4-0.7l-0.1-0.3c-2.7-0.4-8-0.9-8-0.9
			l-0.3-0.2l3.5-0.2l0.3-0.2c0,0-9.3-1.7-16.4-1.6c-7.9-0.2-16.2,1-16.2,1l0.3,0.3c0,0,2.5,0,4.4,0.2c1.8,0.2,2.8,0.5,2.8,0.5
			s-13,0.7-13.7,0.7c-1.3,0.1-5,0.5-5,0.5l0.6,0.2c0,0,3.9-0.2,7.4-0.2c3.5,0.1,5.8,0.3,5.9,0.4c0,0.1-4.2,0.2-8.5,0.5
			c-6.1,0.4-13,1.2-13,1.2l0.3,0.2c0,0,8.3,0.4,11.1,0.7c-4.4,0.1-17.3,1.3-17.3,1.3l0.1,0.2c0,0,8.6,0.6,9.4,0.8
			c-5.2,0.6-15.2,1.1-15.2,1.1l0.2,0.2c0,0,6.1,0.3,9,0.9c-4.8,0.6-14.6,1.1-14.6,1.1l0.1,0.3c0,0,5.1,0.4,8.2,0.8
			c-4.3,0.4-13.5,1.1-13.5,1.1l0.3,0.2l7.5,0.8l-12.5,1l-0.1,0.2c0,0,4.9,0.7,7.3,1c-3.8,0.5-11.6,0.9-11.6,0.9l0.1,0.3
			c0,0,5.1,0.5,7.2,1c-3.9,0.2-11.6,1-11.6,1l0.1,0.3l7.2,0.9L98.8,46l-0.1,0.2c0,0,4.5,0.6,7.1,1.1c-3.5,0.2-11,1-11,1l-0.1,0.2
			l6.7,0.9l-10.5,1.1l0,0.3l7.1,0.9c-3.5,0.5-10.6,1-10.6,1v0.2l6.4,1l-10.3,1.1l0.1,0.2c0,0,5.1,0.4,6.5,0.8
			c-2.5,0.4-9.8,1.3-9.8,1.3l0.1,0.2c0,0,4.7,0.4,5.8,0.6c-6.2,0.6-9.2,1-9.2,1l0.1,0.2c0,0,4.5,0.7,6,1c-3.2,0.5-6.5,0.7-9.7,1.1
			l0.2,0.2c0,0,4.5,0.6,6.1,1c-3.2,0.6-9.5,1.1-9.5,1.1l0.2,0.2c0,0,4.5,0.6,5.8,0.9c-3.1,0.4-8.5,0.9-8.5,0.9v0.2
			c0,0,3.4,0.7,5.2,1.1c-3,0.5-5.7,0.8-8.4,1V68l5.5,1.1c0,0-5.7,0.7-8.8,1l0,0.2l5.6,0.9c0,0-5.3,0.6-8,0.9v0.2
			c0,0,8.7,0.6,15.1-0.1L73.8,72l-5.7-0.4l8.1-1.2l0.6-0.3c-2.1-0.2-3.6-0.5-5.6-0.7c3.2-0.5,9.5-1.4,9.5-1.4l0-0.2
			c0,0-4.2-0.2-5.9-0.7l9.3-1.1l0.1-0.2c0,0-3.3-0.3-5.7-0.7c2.9-0.4,9.5-1.3,9.5-1.3l0.1-0.2l-6-0.7l0.2-0.2c0,0,6.7-0.9,9.7-1.3
			l0.1-0.1c0,0-2-0.4-6.5-0.9c3.3-0.5,10.3-0.9,10.3-0.9l0.1-0.3l-6.9-0.8l11.1-1.2l0.1-0.3c0,0-4.3-0.4-6.8-0.9l11.4-1.1l0.1-0.2
			l-7.6-0.9l12.3-1l0.1-0.3l-7.7-0.9c0,0,8.5-0.5,12.5-1.1l0-0.3c0,0-7.4-0.5-7.9-0.8c4.6-0.6,13.5-1.1,13.5-1.1l-0.2-0.2l-8.1-0.9
			c0,0,10.4-0.6,14.6-1.1l0-0.2l-9.2-0.9l15.9-1.1l0-0.2l-10.2-0.8l18.9-1.4l-0.1-0.2c0,0-7.7-0.4-12.3-0.6
			c6.2-0.8,13.8-1.4,20.5-1.8c15-0.9,26.6,1.8,26.6,1.8s-6,0.2-7.8,0.6l0.3,0.3l9.4,1.3l-5.1,0.8l0.2,0.3l5.9,0.9l0.4,0.4l-4,0.7
			l0.3,0.3l4.4,0.9l-3.7,1l0.2,0.2l3.9,0.9l-3.9,0.9l0.1,0.2l3.8,0.7l0,0.3c0,0-2.7,0.6-3.9,0.8c0.1,0.1,0,0.3,0,0.3l3.9,1.1
			c0,0-4.1,0.8-4.3,0.9c-0.1,0-0.2,0.3-0.2,0.3c1.1,0.3,3.8,0.9,3.8,0.9l-4.5,0.9l0,0.3l3.6,0.9v0.1l-4.5,0.9v0.4l3.8,0.9l-5.2,1.1
			l0.1,0.3l3.9,0.8l-5,1l-0.2,0.4l3.8,0.8l-5.5,0.8l-0.1,0.3l4,0.9V67l-5.7,0.9l0.1,0.3c0,0,3.1,0.5,4.1,0.9
			c-2.2,0.5-6.1,1.1-6.1,1.1l0.2,0.3l4.3,0.7l-6.4,1.1l0.2,0.3l4.2,0.7l-6.2,0.9l0,0.4l4.2,0.7l0,0.3l-6.5,0.9v0.3
			c1.4,0.4,3.2,0.5,4.8,0.9c-2,0.5-4.8,0.7-7,1.1l0.2,0.3c0,0,3.2,0.5,4.5,0.9c-2.2,0.3-7.3,1.1-7.3,1.1l0.3,0.3
			c0,0,3.2,0.4,4.9,0.7c-2.3,0.5-4.5,0.6-6.8,0.9l-0.4,0.3c1.4,0.4,3,0.5,4.6,0.9v0.2c-2.1,0.6-7.1,1-7.1,1v0.3l4.9,0.7
			c0,0-5.5,0.7-7.4,1.1l0.1,0.2l4.9,1l-7.6,0.8l-0.1,0.2l5.1,0.9l0,0.3c-2.3,0.6-7.8,0.9-7.8,0.9l-0.2,0.3c0,0,3.6,0.4,5.4,1
			c-2.5,0.5-8.5,0.9-8.5,0.9s0,0.2-0.2,0.3c2,0.3,6.1,0.9,6.1,0.9s-6.7,0.6-9.4,1.1l0.2,0.2l5.7,0.9l-10,1.1l0.2,0.2l6.4,0.8
			l-11.1,1.2l0.2,0.2l6.7,0.8l-12.1,1.1l0.1,0.2c0,0,5.4,0.4,8.3,0.8c-7.3,1-16.1,1.9-21.8,0.1c1.1-0.5,4-1.1,4-1.1l0.3-0.3
			c0,0-2.8-0.6-4.3-0.9c2-0.6,5.7-1.1,5.7-1.1l-0.3-0.3c0,0-2.7-0.1-3.9-0.8c2.2-0.3,4.6-0.5,6.5-1.2c-1.3-0.1-3.2-0.3-4.8-1l7-0.9
			l0-0.3c0,0-3.1-0.3-4.9-0.9c2.5-0.4,7.7-1.1,7.7-1.1l-0.1-0.3c0,0-3.6-0.4-5.3-0.9c3.3-0.4,8.2-1,8.2-1l0-0.3c0,0-4.1-0.3-5.2-0.9
			l7.7-0.9l0.3-0.3c-0.3-0.1-4.2-0.5-5.3-0.9c2.6-0.6,5.8-0.3,8.2-1.2c-1.8-0.5-3.8-0.2-5.3-0.9c2.3-0.7,5.4-0.6,7.6-1v-0.3
			c-1.5-0.2-3.4-0.5-4.8-0.9c2.2-0.5,6.7-0.9,7-0.9l0.4-0.3c-1.5-0.2-3.6-0.5-5.2-1c2.4-0.5,7.3-1,7.5-1v-0.3c0,0-4.4-0.3-4.5-0.9
			c2.3-0.7,6.7-1,6.7-1v-0.2c0,0-3.8-0.6-4.9-1.3c1.8-0.3,2,0,6.6-0.7l0.3-0.3l-4.6-1.1l6.4-0.7l0.1-0.2l-4.4-0.9c0,0,0-0.1-0.1-0.2
			l6-1l0.1-0.2l-4.3-1l0-0.2c1.7-0.4,5.5-0.9,5.5-0.9V70c-1.5-0.3-4.1-0.9-4.1-0.9l4.7-1l0.2-0.2l-3.9-0.9L149,66v-0.2l-3.8-1.1
			l4.1-0.9l0-0.2l-5-1.1l4.3-0.9l0.1-0.2l-8.5-1.1l6.6-0.8l0.1-0.3l-1.8-0.3c-8.6-0.7-17.7-0.1-26.1,0.4l0.2,0.1
			c0,0,6.1,0.4,9.1,0.7v0.2c-4.9,0.4-15.5,1.1-15.5,1.1l0.2,0.2c0,0,6.4,0.3,9.1,0.9c-4.9,0.5-14.6,1.1-14.6,1.1l0.2,0.2l7.9,0.9
			l-0.2,0.2L103,65.7l-0.2,0.2l7.5,0.9V67c0,0-8.1,0.5-11.7,1c0.1,0.1,0,0.2,0,0.2l7.4,0.9c0,0-8.7,0.6-12.5,1l0.2,0.2l7.3,1
			l-11.7,1.1l0.2,0.2c0,0,4.9,0.5,7.1,0.8c-2.9,0.5-10.7,1-10.7,1l-0.2,0.2l7,0.9v0.1l-10.2,0.9v0.3c0,0,5.1,0.5,7,0.9
			c-3.4,0.6-10.4,1.1-10.4,1.1l0.1,0.2l6.4,0.9l-0.1,0.2l-9.8,1l0.1,0.2l6.3,0.9l-9.5,1l0.2,0.2c0,0,4.5,0.3,6.1,0.9
			c-2.5,0.5-8.9,1-8.9,1l0.2,0.2c0,0,4.7,0.4,6.1,0.9c-2.7,0.5-9,1.1-9,1.1l0.1,0.3l6,0.9l-8.7,0.8l-0.2,0.2l6.1,1.1l-8.4,1v0.3
			l5.8,0.9l-8,1.1L60,94.4l5.9,0.9l-8.2,1l0.2,0.3l5.5,0.9l-8,1.2l0.1,0.2l5.4,0.9l-7.9,1l0,0.3l5.4,0.9l-7.3,0.9l0.1,0.3
			c1.5,0.3,5.2,1,5.2,1l-7.6,1.1l0.3,0.3l5.3,0.9l-7.6,1l0.2,0.2l5.1,0.9l-7.3,1v0.3l5.4,0.8l-7.2,1.1l-0.1,0.2l5.6,0.9l-7,1
			l-0.1,0.2l5.3,0.9l-5.9,0.7l-0.6,0.1l-0.5,0.5l5.4,1l-6.8,1l0.1,0.2l5.2,0.8l-6.5,1.1l0,0.4l5.2,0.8l-6.4,1.1l0,0.3l4.9,0.9
			l-6.1,0.9v0.3c1.2,0.3,4.8,0.9,4.8,0.9s-4.2,0.6-5.8,0.9v0.3l4.5,0.8v0.2l-5.5,0.9l0,0.3l4.8,0.9c0,0-4.4,0.7-5.8,1.1l0,0.2l4.8,1
			l-5.5,0.9v0.3c1.1,0.3,4.7,0.9,4.7,0.9l-5.4,0.8l0,0.3l4.9,0.9l0,0.3l-4.8,0.6l0,0.4l4.5,0.9v0.2l-4.5,0.7l0,0.4l4.5,0.9l-4.5,0.9
			l-0.1,0.2c0,0,1.9,0.4,5.2,1.1l-4.9,0.9l0,0.3l5.7,1l-5.1,0.9v0.3l6.7,1l-5.5,0.9v0.3l8.1,1v0.1l-6.2,0.9l0.4,0.3l11.9,0.9
			c-2.8,0.5-8.1,0.8-8.1,0.8l0.6,0.5c0,0,10.5,1.3,18.4,1.4c-1.2,0.3-6,0.7-7.7,0.8c-0.2,0,0.1,0.4,0.3,0.4
			c3.9,0.3,10.3,0.6,12.8,0.6c2.4,0,8-0.4,11.6-0.9c0.1-0.1,0.1-0.3,0.1-0.3c-1.4-0.1-4.5-0.4-5.2-0.6c0.6,0,16.4-0.8,16.4-0.8
			l0.9-0.8c0,0-2.9,0.1-8-0.2c-4.6-0.3-4.9-0.3-6.8-0.8c8.2,0.1,21.9-1,21.9-1l0.7-0.5l-11-0.8c5.8-0.4,17.3-0.9,17.3-0.9l0.3-0.3
			c0,0-7-0.1-10.1-0.8c5.7-0.5,15.9-1.1,15.9-1.1l-0.1-0.3c0,0-5.9-0.4-9.2-0.9c4.9-0.6,14.9-1.1,14.9-1.1l-0.1-0.4
			c0,0-8.4-0.4-8.4-0.7c4.6-0.5,9.8-0.3,13.8-1l-0.2-0.3c0,0-8.4-0.8-7.6-0.8c0.8-0.1,11.9-0.8,11.9-0.8l0.7-0.4
			c0,0-5.2-0.7-7.8-0.8c4-0.5,12.3-1.1,12.3-1.1l-0.2-0.3c0,0-4.9-0.5-7.2-0.8c3.7-0.7,12-1.1,12-1.1l-0.1-0.5c0,0-6.8-0.7-7.2-0.6
			c2.8-0.5,11-0.9,11-0.9l0.4-0.2l-7-1.1l10.3-0.9l0.7-0.4l-7.1-0.8l10.4-1l0.7-0.4c0,0-4.5-0.3-6.7-1c2.5-0.3,10-0.7,10-0.7
			l0.5-0.3l-6.3-1.1l9.4-0.8l0.6-0.3c0,0-4.5-0.7-6.1-0.9v-0.1c2.6-0.4,8.9-1,8.9-1l0.4-0.3c0,0-4.2-0.3-6.1-0.8
			c2.8-0.5,9.4-1.1,9.4-1.1l0.3-0.3c0,0-4.5-0.5-6.1-0.9c2.8-0.5,9.4-1.1,9.4-1.1s-3.6-1-6.1-1.2c3.3-0.4,9.2-1,9.2-1
			s-0.9-0.1-1.9-0.3h0c-1.7-0.3-3.8-0.7-3.8-0.8c2.8-0.6,8.5-1,8.5-1l0.3-0.3c0,0-4.2-0.5-5.6-0.8c2.8-0.7,8.5-1.1,8.5-1.1l-0.2-0.3
			h0.1c0,0-3.8-0.4-5.5-0.9c2.6-0.5,8.2-0.7,8.1-0.8c-0.1-0.1,0.4-0.2,0.4-0.2s-3.8-0.6-5.5-1.1c2.8-0.3,7.8-0.8,7.8-0.8
			s0.5-0.3,0.7-0.4c-5.3-0.6-16.8,0.1-16.8,0.1l0.3,0.3l5.8,0.5l-0.1,0.4l-9,0.9l-0.3,0.3l5.9,0.9l-9.3,1.3l0.3,0.2l5.8,0.6
			c-3.3,0.5-6.7,0.7-9.7,1l0.3,0.3l6.1,0.9c0,0-3.9,0.4-7.2,0.8h-0.1c-1.1,0.1-2.1,0.3-2.9,0.4l0.4,0.3l6,0.8l-10.2,1.2l0.3,0.3
			c0,0,4.4,0.2,6.3,0.5c-3.3,0.6-7.4,0.8-10.5,1.2l0.2,0.3l6.5,0.8l-11.3,1.1l0.2,0.4l7,0.7l-11.9,1.1l0.2,0.3c0,0,4.5,0.4,7,0.7
			c-4,0.5-8.4,0.5-12,1.3l0.3,0.2l7.2,0.7l-12.6,0.9l0.3,0.3l8.1,0.9c0,0-9.5,0.6-14.2,1.1c0.2,0,0.3,0.3,0.3,0.3l8.6,0.8
			c0,0-10.2,0.6-15.3,1.1c0.3,0.1,0.5,0.4,0.5,0.4s8.6,0.5,8.8,0.7c-5.2,0.4-16.6,1.2-16.6,1.2l0.4,0.3c0,0,8,0.3,10.1,0.6
			c-6.4,0.6-12.9,0.6-19,1.1l0.2,0.3c0,0,8,0.1,12.8,0.7c-28.3,3.5-47.1,0-47.1,0l7.9-0.2l-0.1-0.4l-8.4-1.6l5.7-0.8l0-0.4l-7.2-1
			l0.2-0.3l4.7-0.4c0,0,0.1-0.4,0.2-0.5c-1.5-0.2-4.4-0.4-6-0.9c1.5-0.4,5-0.7,5-0.7l0.1-0.3c0,0-4.1-0.3-5.5-1.1
			c1.6-0.3,4.8-0.7,4.8-0.7l0.3-0.4l-5.4-1l5-0.7l0.1-0.5c0,0-3.8-0.5-5-1c1.4-0.5,5.2-1,5.2-1l-0.1-0.4c0,0-4-0.4-4.8-0.6
			c1.7-0.7,5.3-1.2,5.3-1.2l0-0.4c0,0-3.4-0.3-5-0.7c1.4-0.3,5.7-1,5.7-1l-0.4-0.3l-4.9-0.8l6-1.2l-5-0.9l0.1-0.4
			c0,0,4.4-0.1,5.9-0.8c-0.3-0.1-0.7-0.2-1.2-0.3h0c-1.3-0.2-3.2-0.3-4.1-0.8c1.3-0.5,6.3-0.9,6.3-0.9v-0.3l-5-0.9l6.3-1l0.3-0.4
			l-5.6-0.8l6.2-0.7l0.5-0.6c0,0-4.2-0.5-5.2-0.9l6.6-0.7l0.3-0.4l-5.3-1.1l6.9-0.9v-0.3l-5.4-0.9l7.3-1l0.1-0.3
			c0,0-4.4-0.3-5.8-0.9c2-0.5,7.3-0.9,7.3-0.9l0.4-0.3l-5.7-0.9l8-1.2l-6-1.1l8.3-1.1l-6-0.9l8.2-1.1l0.1-0.3l-6.4-0.9l8.5-0.9
			l0.2-0.4c0,0-4.6-0.3-6.1-0.8c2.7-0.6,9.3-1.1,9.3-1.1l0-0.4l-6.6-0.7l8.3-1.1l-5.5-0.9l8.4-0.9l0.2-0.5l-5.8-0.7l8.7-0.9l0.1-0.5
			l-5.4-0.8l9.5-0.9l0.2-0.4l-6.1-0.8l0.3-0.2l9.3-0.9l0.7-0.4c0,0-4.5-0.6-7.1-0.8c4.4-0.7,12.9-1.1,12.9-1.1v-0.3l-8.8-0.9
			c0,0,16.6-1.9,24.2,0.2c-0.1,0,0,0.3,0,0.3l-5.4,0.2l-0.1,0.4l4.7,1l-5.5,0.7l-0.3,0.4l4.5,1.2l-6.2,0.8l-0.2,0.3l4.9,1
			c0,0-2.4,0.4-6.7,0.9l-0.3,0.4l4.6,0.9l-7.9,1l-0.1,0.3l5.8,0.9c0,0-5.7,0.6-8.7,1.1l0.1,0.2l5.6,0.8l-8.4,1.2l0.2,0.2l5,0.9
			l0,0.2l-7.7,0.8l-0.1,0.3l5.2,0.9l-7.4,1.1v0.3l4.8,0.8l-7.1,1l0.2,0.3l4.6,0.9l-7.1,1.1l0.3,0.2l4.5,0.8l-6.4,1l-0.2,0.3l4.7,0.9
			l-6.4,1.1l-0.1,0.3l4.7,0.9l-6.1,1.1l0.1,0.3l4.2,0.7l-5.6,1l-0.2,0.3l4.2,1.1l-5.1,0.9v0.3l4.2,0.8l0,0.3l-4.8,0.7l-0.1,0.4
			l3.9,0.8l0,0.5l-4.4,0.6l-0.1,0.3l4.2,0.8l0,0.3l-3.3,0.6l-0.8,0.2l-0.1,0.3l5.2,1.1l-0.1,0.3l-4.3,0.6l0,0.2
			c0,0,7.6,1.2,12.2,1.1c-4.1,0.1-10.5,0.9-10.5,0.9l0.8,0.4c2.9,0.3,5.8,0.4,8.5,0.5c0,0,0,0-0.1,0c-1,0.5-5.7,1.1-5.7,1.1l1,0.4
			c0,0,8.1,0.6,17.4,0.1l0.2-0.4c0,0-4.3-0.7-4.8-1.1c0,0-0.1-0.1-0.2-0.1c5.6-0.1,9.6-0.5,9.6-0.5l1.2-0.5c0,0-5.1-0.6-10.6-0.8
			c7.6,0,16.2-1.1,16.2-1.1l0.2-0.3l-8.8-0.9l13.4-0.7l0.2-0.3l-2.7-0.3l-4.7-0.6v-0.3l10.9-0.8l0.7-0.3l-7.1-0.9l10.9-1.1l0.1-0.3
			c0,0-4.2-0.3-6.6-0.9c3.1-0.3,9.9-0.8,9.9-0.8l0.2-0.4c-2.2-0.4-4.1-0.4-6.2-0.9c3.4-0.6,10.1-1.1,10.1-1.1l-0.1-0.3l-6.1-0.7
			l9.1-1l0.2-0.3c-2-0.3-4-0.3-6.1-0.8c2.9-0.5,9-1,9-1l0-0.3c0,0-3.8-0.4-5.5-0.9c1.3-0.2,8.7-0.7,8.7-0.7l0.3-0.3l-5.8-1.1l9-1.1
			l-5.7-1.1l8.6-1.1l-5.6-0.9l8.4-1.1l0.1-0.3c0,0-4.4-0.7-5.7-0.9c0,0,6.5-0.6,8.4-1v-0.3c-1.8-0.3-3.6-0.3-5.2-0.9
			c2.4-0.4,7.3-0.7,7.3-0.7l0.7-0.4l-5.2-0.8v-0.2l7.8-1v-0.3l-5.1-0.8c2.5-0.5,7.7-1.1,7.7-1.1l0.1-0.4l-5.1-0.9l7.1-0.7l0.6-0.3
			l-5.1-1.2l6.7-0.7l0.7-0.4c-0.4,0-4.7-0.7-4.7-0.7s0.1-0.2-0.1-0.3c2.3-0.1,6.2-0.7,6.2-0.7l0.8-0.5l-4.5-0.9l6.8-0.9v-0.3
			l-4.8-0.9l6.9-0.8c0,0,0-0.3,0.1-0.4c-1.3-0.3-4.8-1.1-4.8-1.1l6.5-0.8l0.2-0.4l-4.4-0.9l6.4-0.8l0.2-0.3l-4.4-0.9l6-0.9l0.1-0.4
			l-4.4-1.2l6.4-0.8l0.1-0.3l-4.5-0.9l6-0.8l0.1-0.4c-0.3,0.1-4.1-1-4.1-1l5.9-0.9l0-0.3l-4.3-0.8l5.9-1V59l-4.2-0.9l5.4-0.9
			l0.1-0.4c0,0-2.6-0.4-4-0.9c1.6-0.3,3.8-0.6,5.3-0.9v-0.3c-1.3-0.3-2.6-0.3-3.9-0.9c1.6-0.3,5.2-0.9,5.2-0.9v-0.3
			c-1.2-0.3-2.6-0.4-3.8-0.9c1.5-0.5,4.9-1,4.9-1v-0.3l-3.9-0.8l0-0.2l4.5-0.7l0.4-0.3l-3.8-0.6c0,0,0-0.3-0.1-0.3
			c1.5-0.4,3-0.7,4.6-0.9V46c-1.1-0.3-3.6-0.9-3.6-0.9l4.2-0.9v-0.3l-3.7-0.8l-0.1-0.2l4.1-0.7v-0.5l-3.6-0.8v-0.2l3.6-0.6v-0.6
			l-3.6-0.8l3.7-1L201.1,37.2z"/>
		<path class="st0" d="M196.8,35.8c0,0-2.8-0.6-3.9-0.9c0.9-0.3,3.4-0.6,4.4-0.9l0-0.3c-1.6-0.5-4-0.6-5-1.1l3.8-0.8v-0.3
			c-1.8-0.4-5.3-0.9-5.3-0.9l4.2-0.9l-0.3-0.3l-6.5-1l4.9-0.9l-0.3-0.3l-9.3-0.7l-0.3-0.3l7.4-0.7l-0.1-0.3c-2.7-0.4-8-0.9-8-0.9
			l-0.3-0.2l3.5-0.2l0.3-0.2c0,0-9.3-1.7-16.4-1.6c-7.9-0.2-16.2,1-16.2,1l0.3,0.3c0,0,2.5,0,4.4,0.2c1.8,0.2,2.8,0.5,2.8,0.5
			s-13,0.7-13.7,0.7c-1.3,0.1-5,0.5-5,0.5l0.6,0.2c0,0,3.9-0.2,7.4-0.2c3.5,0.1,5.8,0.3,5.9,0.4c0,0.1-4.2,0.2-8.5,0.5
			c-6.1,0.4-13,1.2-13,1.2l0.3,0.2c0,0,8.3,0.4,11.1,0.7c-4.4,0.1-17.3,1.3-17.3,1.3l0.1,0.2c0,0,8.6,0.6,9.4,0.8
			c-5.2,0.6-15.2,1.1-15.2,1.1l0.2,0.2c0,0,6.1,0.3,9,0.9c-4.8,0.6-14.6,1.1-14.6,1.1l0.1,0.3c0,0,5.1,0.4,8.2,0.8
			c-4.3,0.4-13.5,1.1-13.5,1.1l0.3,0.2l7.5,0.8l-12.5,1l-0.1,0.2c0,0,4.9,0.7,7.3,1c-3.8,0.5-11.6,0.9-11.6,0.9l0.1,0.3
			c0,0,5.1,0.5,7.2,1c-3.9,0.2-11.6,1-11.6,1l0.1,0.3l7.2,0.9l-11.9,0.9l-0.1,0.2c0,0,4.5,0.6,7.1,1.1c-3.5,0.2-11.1,1-11.1,1
			l-0.1,0.2l6.7,0.9L86.6,49l0,0.3l7.1,0.9c-3.5,0.5-10.6,1-10.6,1v0.2l6.4,1l-10.3,1.1l0.1,0.2c0,0,5.1,0.4,6.5,0.8
			c-2.5,0.4-9.8,1.3-9.8,1.3l0.1,0.2c0,0,4.7,0.4,5.8,0.6c-6.2,0.6-9.2,1-9.2,1l0.1,0.2c0,0,4.5,0.7,6,1c-3.2,0.5-6.5,0.7-9.7,1.1
			l0.2,0.2c0,0,4.5,0.6,6.1,1c-3.2,0.6-9.5,1.1-9.5,1.1l0.2,0.2c0,0,4.5,0.6,5.8,0.9c-3.1,0.4-8.5,0.9-8.5,0.9v0.2
			c0,0,3.4,0.7,5.2,1.1c-3,0.5-5.7,0.8-8.4,1v0.1l5.5,1.1c0,0-5.7,0.7-8.8,1l0,0.2l5.6,0.9c0,0-5.3,0.6-8,0.9v0.2
			c0,0,8.7,0.6,15.1-0.1l-0.1-0.2l-5.7-0.4l8.1-1.2l0.6-0.3c-2.1-0.2-3.6-0.5-5.6-0.7c3.2-0.5,9.5-1.4,9.5-1.4l0-0.2
			c0,0-4.2-0.2-5.9-0.7l9.3-1.1l0.1-0.2c0,0-3.3-0.3-5.7-0.7c2.8-0.4,9.5-1.3,9.5-1.3l0.1-0.2l-6-0.7l0.2-0.2c0,0,6.7-0.9,9.7-1.3
			l0.1-0.1c0,0-2-0.4-6.5-0.9c3.3-0.5,10.3-0.9,10.3-0.9l0.1-0.3L84.9,57L96,55.7l0.1-0.3c0,0-4.3-0.4-6.8-0.9l11.4-1.1l0.1-0.2
			l-7.6-0.9l12.3-1l0.1-0.3l-7.7-0.9c0,0,8.5-0.5,12.5-1.1l0-0.3c0,0-7.5-0.5-7.9-0.9c4.6-0.6,13.5-1.1,13.5-1.1l-0.2-0.2l-8.1-0.9
			c0,0,10.5-0.6,14.6-1.1l0-0.2l-9.2-0.9l15.9-1.1l0-0.2l-10.2-0.8l18.9-1.4l-0.1-0.2c0,0-7.7-0.4-12.3-0.6
			c6.2-0.8,13.8-1.4,20.5-1.8c15-0.9,26.6,1.8,26.6,1.8s-6,0.2-7.8,0.6l0.3,0.3l9.4,1.3l-5.1,0.8l0.2,0.3l5.9,0.9l0.4,0.4l-4,0.7
			L172,45l4.4,0.9l-3.7,1l0.2,0.2l3.9,0.9L173,49l0.1,0.2l3.8,0.7l0,0.3c0,0-2.7,0.6-3.9,0.8c0.1,0.1,0,0.3,0,0.3l3.9,1.1
			c0,0-4.1,0.8-4.3,0.9c-0.1,0-0.2,0.3-0.2,0.3c1.1,0.3,3.8,0.9,3.8,0.9l-4.5,0.9l0,0.3l3.6,0.9v0.1l-4.5,0.9v0.4l3.8,0.9l-5.2,1.1
			l0.1,0.3l3.9,0.8l-5,1l-0.2,0.4l3.8,0.8l-5.5,0.8l-0.1,0.3l4,0.9v0.2l-5.7,0.9l0.1,0.3c0,0,3.1,0.5,4.1,0.9
			c-2.2,0.5-6.1,1.1-6.1,1.1l0.2,0.3l4.3,0.7l-6.4,1.1l0.2,0.3l4.2,0.7l-6.2,0.9l0,0.4l4.2,0.7l0,0.3l-6.5,0.9v0.3
			c1.4,0.4,3.2,0.5,4.8,0.9c-2,0.5-4.8,0.7-7,1.1l0.2,0.3c0,0,3.2,0.5,4.5,0.9c-2.2,0.3-7.3,1.1-7.3,1.1l0.3,0.3
			c0,0,3.3,0.4,4.9,0.7c-2.3,0.5-4.5,0.6-6.8,0.9l-0.4,0.3c1.4,0.4,3,0.5,4.7,0.9v0.2c-2.1,0.6-7.1,1-7.1,1v0.3l4.9,0.7
			c0,0-5.5,0.7-7.4,1.1l0.1,0.2l4.9,1l-7.6,0.8l-0.1,0.2l5.1,0.9l0,0.3c-2.3,0.6-7.8,0.9-7.8,0.9l-0.2,0.3c0,0,3.6,0.4,5.4,1
			c-2.5,0.5-8.5,0.9-8.5,0.9s0,0.2-0.2,0.3c2,0.3,6.1,0.9,6.1,0.9s-6.7,0.6-9.4,1.1l0.2,0.2l5.7,0.9l-10,1.1l0.3,0.2l6.4,0.8
			l-11.1,1.2l0.2,0.2l6.7,0.8l-12.1,1.1l0.1,0.2c0,0,5.4,0.4,8.3,0.8c-7.3,1-16.1,1.9-21.8,0.1c1.1-0.5,4-1.1,4-1.1l0.3-0.3
			c0,0-2.8-0.6-4.3-0.9c2-0.6,5.7-1.1,5.7-1.1l-0.3-0.3c0,0-2.7-0.1-3.9-0.8c2.2-0.3,4.6-0.5,6.5-1.2c-1.3-0.1-3.2-0.3-4.8-1l7-0.9
			l0-0.3c0,0-3.1-0.3-4.9-0.9c2.5-0.4,7.7-1.1,7.7-1.1l-0.1-0.3c0,0-3.6-0.4-5.3-0.9c3.3-0.4,8.2-1,8.2-1l0-0.3c0,0-4.1-0.2-5.2-0.9
			l7.7-0.9l0.3-0.3c-0.3-0.1-4.2-0.5-5.3-0.9c2.6-0.6,5.8-0.3,8.2-1.2c-1.8-0.5-3.8-0.2-5.3-0.9c2.3-0.7,5.4-0.6,7.6-1v-0.3
			c-1.5-0.2-3.4-0.5-4.9-0.9c2.2-0.5,6.7-0.9,7-0.9l0.4-0.3c-1.6-0.2-3.6-0.5-5.2-1c2.4-0.5,7.3-1,7.5-1v-0.3c0,0-4.4-0.3-4.5-0.9
			c2.3-0.7,6.7-1,6.7-1v-0.2c0,0-3.8-0.6-4.9-1.2c1.8-0.3,2,0,6.6-0.7l0.3-0.3L134,74l6.4-0.7l0.1-0.2l-4.4-0.9c0,0,0-0.1-0.1-0.2
			l6-1l0.1-0.2l-4.3-1l0-0.2c1.7-0.4,5.5-0.9,5.5-0.9v-0.2c-1.5-0.3-4.1-0.9-4.1-0.9l4.7-1l0.2-0.2l-3.9-0.9l4.5-0.9v-0.2l-3.8-1.1
			l4.1-0.9l0.1-0.2l-5-1.1l4.3-0.9l0.1-0.2l-8.5-1.1l6.6-0.8l0.1-0.3l-1.8-0.3c-8.6-0.7-17.7-0.1-26.1,0.4l0.2,0.1
			c0,0,6.1,0.4,9.1,0.7V59c-4.9,0.4-15.5,1.1-15.5,1.1l0.2,0.2c0,0,6.4,0.3,9.1,0.9c-4.9,0.5-14.6,1.1-14.6,1.1l0.2,0.2l7.9,0.9
			l-0.2,0.2l-12.7,0.8l-0.2,0.2l7.5,0.9v0.2c0,0-8.1,0.5-11.7,1c0.1,0.1,0,0.2,0,0.2l7.4,0.9c0,0-8.7,0.6-12.5,1l0.2,0.2l7.3,1
			L85.2,71l0.2,0.2c0,0,4.9,0.5,7.1,0.8c-2.9,0.5-10.7,1-10.7,1l-0.2,0.2l7,0.9v0.1l-10.2,0.9v0.3c0,0,5.1,0.5,7,0.9
			C82,77,75,77.5,75,77.5l0.1,0.2l6.4,0.9l-0.1,0.2l-9.8,1l0.2,0.2l6.3,0.9l-9.5,1l0.2,0.2c0,0,4.5,0.3,6.1,0.9
			c-2.5,0.5-8.9,1-8.9,1l0.2,0.2c0,0,4.7,0.4,6.1,0.9c-2.7,0.5-9,1.1-9,1.1l0.1,0.3l6,0.9l-8.7,0.8l-0.2,0.2l6.1,1.1l-8.4,1v0.3
			l5.8,0.9l-8,1.1L55.7,93l5.9,0.9l-8.2,1l0.2,0.3l5.5,0.9l-8,1.2l0.1,0.2l5.4,0.9l-7.9,1l0,0.3l5.4,0.9l-7.3,0.9l0.1,0.3
			c1.5,0.3,5.2,1,5.2,1l-7.6,1.1L45,104l5.3,0.9l-7.6,1l0.2,0.2l5.1,0.9l-7.3,1v0.3l5.4,0.8l-7.2,1.1l-0.1,0.2l5.6,0.9l-7,1
			l-0.1,0.2l5.3,0.9l-5.9,0.7l-0.6,0.1l-0.5,0.5l5.4,1l-6.8,1l0.1,0.2l5.2,0.8l-6.5,1.1l0,0.4l5.2,0.8l-6.4,1.1l0,0.3l4.9,0.9
			l-6.1,0.9v0.3c1.2,0.3,4.8,0.9,4.8,0.9s-4.2,0.6-5.8,0.9v0.3l4.5,0.8v0.2l-5.5,0.9l0,0.3l4.8,0.9c0,0-4.4,0.7-5.8,1.1l0,0.2l4.8,1
			l-5.5,0.9v0.3c1.1,0.3,4.7,0.9,4.7,0.9l-5.4,0.8l0,0.3l4.8,0.9l0,0.3l-4.8,0.6l0,0.4l4.5,0.9v0.2l-4.5,0.7l0,0.4l4.5,0.9l-4.5,0.9
			l-0.1,0.3c0,0,1.9,0.4,5.2,1.1l-4.9,0.9l0,0.3l5.7,1l-5,0.9v0.3l6.7,1l-5.5,0.9v0.3l8.1,1v0.1l-6.2,0.9l0.4,0.3l11.9,0.9
			c-2.8,0.5-8.1,0.8-8.1,0.8l0.6,0.5c0,0,10.5,1.3,18.4,1.4c-1.2,0.3-6,0.7-7.7,0.8c-0.2,0,0.1,0.4,0.3,0.4
			c3.9,0.3,10.3,0.6,12.8,0.6c2.4,0,8-0.4,11.6-0.9c0.1-0.1,0.1-0.3,0.1-0.3c-1.4-0.1-4.5-0.4-5.2-0.6c0.6,0,16.4-0.8,16.4-0.8
			l0.9-0.8c0,0-2.9,0.1-8-0.2c-4.6-0.3-4.9-0.3-6.8-0.8c8.1,0.1,21.9-1,21.9-1l0.7-0.5l-11-0.8c5.8-0.4,17.3-0.9,17.3-0.9l0.3-0.3
			c0,0-7-0.1-10.1-0.8c5.7-0.5,15.9-1.1,15.9-1.1l-0.1-0.3c0,0-5.9-0.4-9.2-0.9c4.9-0.6,14.9-1.1,14.9-1.1l-0.1-0.4
			c0,0-8.4-0.4-8.4-0.7c4.7-0.5,9.8-0.3,13.8-1l-0.2-0.3c0,0-8.4-0.8-7.6-0.8c0.8-0.1,11.9-0.8,11.9-0.8l0.7-0.4
			c0,0-5.2-0.7-7.8-0.8c4-0.5,12.3-1.1,12.3-1.1l-0.2-0.3c0,0-4.9-0.5-7.2-0.8c3.7-0.7,12-1.1,12-1.1l-0.1-0.5c0,0-6.8-0.7-7.2-0.6
			c2.8-0.5,11-0.9,11-0.9l0.4-0.2l-7-1.1l10.3-0.9l0.7-0.4l-7.1-0.8l10.4-1l0.7-0.4c0,0-4.5-0.3-6.7-1c2.5-0.3,10-0.7,10-0.7
			l0.5-0.3l-6.3-1.1l9.4-0.8l0.6-0.3c0,0-4.4-0.7-6.1-0.9v-0.1c2.6-0.4,8.9-1,8.9-1l0.4-0.3c0,0-4.2-0.3-6.1-0.8
			c2.8-0.5,9.4-1.1,9.4-1.1l0.3-0.3c0,0-4.5-0.5-6.1-0.9c2.8-0.5,9.4-1.1,9.4-1.1s-3.6-1-6.1-1.2c3.3-0.4,9.2-1,9.2-1
			s-0.9-0.1-1.9-0.3h0c-1.7-0.3-3.8-0.7-3.8-0.8c2.8-0.6,8.5-1,8.5-1l0.3-0.3c0,0-4.2-0.5-5.6-0.8c2.8-0.7,8.5-1.1,8.5-1.1l-0.2-0.3
			h0.1c0,0-3.8-0.4-5.5-0.9c2.6-0.5,8.2-0.7,8.1-0.8c-0.1-0.1,0.4-0.2,0.4-0.2s-3.8-0.6-5.5-1.1c2.8-0.3,7.8-0.8,7.8-0.8
			s0.5-0.3,0.7-0.4c-5.3-0.6-16.8,0.1-16.8,0.1l0.3,0.3l5.8,0.5l-0.1,0.4l-9,0.9l-0.3,0.3l5.9,0.9l-9.3,1.3l0.3,0.2l5.8,0.6
			c-3.3,0.5-6.7,0.7-9.7,1l0.3,0.3l6.1,0.9c0,0-3.9,0.4-7.2,0.8H144c-1.1,0.1-2.1,0.3-2.9,0.4l0.4,0.3l6,0.8l-10.2,1.2l0.3,0.3
			c0,0,4.4,0.2,6.3,0.5c-3.3,0.6-7.4,0.8-10.5,1.3l0.2,0.3l6.5,0.8l-11.3,1.1l0.2,0.4l7,0.7l-11.9,1.1l0.2,0.3c0,0,4.5,0.4,7,0.7
			c-4,0.5-8.4,0.5-12,1.3l0.3,0.2l7.2,0.7l-12.6,0.9l0.3,0.3l8.1,0.9c0,0-9.5,0.6-14.2,1.1c0.2,0,0.3,0.3,0.3,0.3l8.6,0.8
			c0,0-10.2,0.6-15.3,1.1c0.3,0.1,0.5,0.4,0.5,0.4s8.6,0.5,8.8,0.7c-5.2,0.4-16.6,1.2-16.6,1.2l0.4,0.3c0,0,8,0.3,10.1,0.6
			c-6.4,0.6-12.9,0.6-19,1.1l0.2,0.3c0,0,8,0.1,12.8,0.7c-28.3,3.5-47.1,0-47.1,0l7.9-0.2l-0.1-0.4l-8.4-1.6l5.7-0.8l0-0.4l-7.2-1
			l0.2-0.3l4.7-0.4c0,0,0.1-0.4,0.2-0.5c-1.6-0.2-4.4-0.4-6-0.9c1.5-0.4,5-0.7,5-0.7l0.1-0.3c0,0-4.1-0.3-5.5-1.1
			c1.6-0.3,4.8-0.7,4.8-0.7l0.3-0.4l-5.4-1l5-0.7l0-0.5c0,0-3.8-0.5-5-1c1.4-0.5,5.2-1,5.2-1l-0.1-0.4c0,0-4-0.4-4.8-0.6
			c1.7-0.7,5.3-1.2,5.3-1.2l0-0.4c0,0-3.4-0.3-5-0.7c1.4-0.3,5.7-1,5.7-1l-0.4-0.3l-4.9-0.8l6-1.2l-5-0.9l0.1-0.4
			c0,0,4.4-0.1,5.9-0.8c-0.3-0.1-0.7-0.2-1.2-0.3h0c-1.3-0.2-3.2-0.3-4.1-0.8c1.3-0.5,6.3-0.9,6.3-0.9v-0.3l-5-0.9l6.3-1l0.3-0.4
			l-5.7-0.8l6.2-0.7l0.5-0.6c0,0-4.2-0.5-5.2-0.9l6.6-0.7l0.3-0.4l-5.3-1.1l6.9-0.9v-0.3l-5.4-0.9l7.3-1l0.1-0.3
			c0,0-4.4-0.3-5.8-0.9c2-0.5,7.3-0.9,7.3-0.9l0.4-0.3l-5.7-0.9l8-1.2L63,96l8.3-1.1l-6-0.9l8.2-1.1l0.1-0.3l-6.4-0.9l8.5-0.9
			l0.2-0.4c0,0-4.6-0.3-6.1-0.8c2.7-0.6,9.3-1.1,9.3-1.1l0-0.4l-6.6-0.7l8.3-1.1l-5.5-0.9l8.4-0.9l0.2-0.5L78,83l8.7-0.9l0.1-0.4
			l-5.4-0.8l9.5-0.9l0.2-0.4L85,78.8l0.3-0.2l9.3-0.9l0.7-0.4c0,0-4.5-0.6-7.1-0.8c4.4-0.7,12.9-1.1,12.9-1.1v-0.3l-8.8-0.9
			c0,0,16.6-1.9,24.2,0.2c-0.1,0,0,0.3,0,0.3l-5.3,0.2l-0.1,0.4l4.7,1l-5.5,0.7l-0.4,0.4l4.5,1.2l-6.2,0.8l-0.2,0.3l4.9,1
			c0,0-2.4,0.4-6.7,0.9l-0.3,0.4l4.6,0.9l-7.9,1l-0.1,0.3l5.8,0.9c0,0-5.7,0.6-8.7,1.1l0.1,0.2l5.6,0.8l-8.4,1.2l0.2,0.2l5,0.9
			l0,0.2l-7.7,0.8l-0.1,0.3l5.2,0.9l-7.4,1.1v0.3l4.8,0.8l-7.1,1l0.2,0.3l4.7,0.9l-7.1,1.1l0.3,0.2l4.5,0.8l-6.4,1l-0.2,0.3l4.6,0.9
			l-6.4,1.1l-0.1,0.3l4.7,0.9l-6.1,1.1l0.1,0.3l4.2,0.7l-5.6,0.9l-0.2,0.3l4.2,1.1l-5.1,0.9v0.3l4.2,0.8l0,0.3l-4.8,0.7l-0.1,0.4
			l3.9,0.8l0,0.5l-4.4,0.6l-0.1,0.3l4.2,0.8l0,0.3l-3.3,0.6l-0.8,0.2l-0.1,0.3l5.2,1.1L84,116l-4.3,0.6l0,0.2c0,0,7.6,1.2,12.2,1.1
			c-4.1,0.1-10.5,0.9-10.5,0.9l0.8,0.4c2.8,0.3,5.6,0.4,8.3,0.5c-1,0.5-5.6,1.1-5.6,1.1l1,0.4c0,0,8.1,0.6,17.4,0.1l0.2-0.4
			c0,0-4.3-0.7-4.8-1.1c0,0,0,0-0.1,0c5.7-0.1,9.6-0.5,9.6-0.5l1.2-0.5c0,0-5.1-0.6-10.6-0.8c7.5,0,16.2-1.1,16.2-1.1l0.2-0.3
			l-8.8-0.9l13.4-0.7l0.2-0.3l-2.7-0.3l-4.7-0.6v-0.3l10.9-0.8l0.7-0.3l-7.1-0.9l10.9-1.1l0.1-0.3c0,0-4.2-0.3-6.6-0.9
			c3.1-0.3,9.9-0.8,9.9-0.8l0.2-0.4c-2.2-0.4-4.1-0.4-6.2-0.9c3.4-0.6,10.1-1.1,10.1-1.1l-0.1-0.3l-6-0.7l9.1-1l0.2-0.3
			c-2-0.3-4-0.3-6.1-0.8c2.9-0.5,9-1,9-1v-0.3c0,0-3.8-0.4-5.5-0.9c1.3-0.2,8.7-0.7,8.7-0.7l0.3-0.3l-5.8-1.1l9-1.1L143,96l8.6-1.1
			l-5.6-0.9l8.4-1.1l0.1-0.3c0,0-4.4-0.7-5.7-0.9c0,0,6.5-0.6,8.4-1v-0.3c-1.8-0.3-3.6-0.3-5.2-0.9c2.4-0.4,7.3-0.7,7.3-0.7l0.7-0.4
			l-5.2-0.8v-0.2l7.8-1V86l-5.1-0.8c2.5-0.5,7.7-1.1,7.7-1.1l0.1-0.4l-5.1-0.9l7.1-0.7l0.6-0.3l-5.1-1.2l6.7-0.7l0.7-0.4
			c-0.4,0-4.7-0.7-4.7-0.7s0.1-0.2-0.1-0.3c2.3-0.1,6.2-0.7,6.2-0.7l0.8-0.5l-4.5-0.9l6.8-0.9v-0.3l-4.8-0.9l6.9-0.8
			c0,0,0-0.3,0.1-0.4c-1.4-0.3-4.8-1.1-4.8-1.1l6.5-0.8l0.2-0.4l-4.4-0.9l6.4-0.8l0.2-0.3l-4.4-0.9l6-0.9l0.1-0.4l-4.4-1.2l6.4-0.8
			l0.1-0.3l-4.5-0.9l6-0.8l0.1-0.4c-0.3,0.1-4.1-1-4.1-1l5.9-0.9l0-0.3l-4.3-0.8l5.9-1v-0.3l-4.2-0.9l5.4-0.9l0.1-0.4
			c0,0-2.6-0.4-4-0.9c1.5-0.3,3.8-0.6,5.3-0.9v-0.3c-1.3-0.3-2.6-0.3-3.9-0.9c1.6-0.3,5.2-0.9,5.2-0.9v-0.3
			c-1.2-0.3-2.6-0.4-3.8-0.9c1.5-0.5,4.9-1,4.9-1v-0.3l-3.9-0.8l0-0.2l4.5-0.7l0.4-0.3l-3.8-0.6c0,0,0-0.3-0.1-0.3
			c1.6-0.4,3-0.7,4.6-0.9v-0.4c-1.1-0.3-3.6-0.9-3.6-0.9l4.2-0.9v-0.3l-3.7-0.8l-0.1-0.2l4.1-0.7v-0.5l-3.6-0.8v-0.2l3.6-0.6V38
			l-3.6-0.8l3.7-1L196.8,35.8z"/>
	</g>
	<g>
		<path d="M218.5,114.6h1.9c4.8,0,8.4,1.2,8.4,11.3c0,7.7-1.4,11.9-8.4,11.9h-1.9V114.6L218.5,114.6z M213.9,140.6h6.4
			c7.9,0,13-2.7,13-14.6c0-11.4-5.2-14.1-13-14.1h-6.4V140.6L213.9,140.6z"/>
		<path d="M238.6,120.8h4.2v19.8h-4.2V120.8L238.6,120.8z M238.4,111.9h4.5v4.2h-4.5V111.9L238.4,111.9z"/>
		<path d="M252.4,130.5c0-3.2,0.6-7.5,4-7.5c3.5,0,4,4.4,4,7.7c0,3.3-0.3,7.5-4,7.5C253,138.2,252.4,133.8,252.4,130.5L252.4,130.5z
			 M264.7,120.8h-4.2v3.2h-0.1c-0.5-1.3-1.9-3.7-5.2-3.7c-5.7,0-7.4,4.5-7.4,10.2c0,5.8,2.2,10.1,7.4,10.1c3.4,0,4.6-1.8,5.2-2.7
			h0.1v2.2c0,4.4-0.5,7.4-4.9,7.4c-2.7,0-5-1.6-6.4-2.4v4.1c1.5,0.4,3.2,0.8,5.7,0.8c7.9,0,9.8-4.4,9.8-9.9V120.8L264.7,120.8z"/>
		<path d="M271,120.8h4.2v19.8H271V120.8L271,120.8z M270.8,111.9h4.5v4.2h-4.5V111.9L270.8,111.9z"/>
		<path d="M292,140.7c-0.8,0.2-2,0.3-2.9,0.3c-4,0-6.2-1.2-6.2-5v-13.1h-3.2v-2.2h3.2v-4.7l4.2-2.5v7.2h5.4v2.2h-5.4v11.4
			c0,2.9,0.3,4.3,3,4.3c0.7,0,1.4-0.1,2-0.3V140.7L292,140.7z"/>
		<path d="M306,133.6c0,3.4-2.6,4.8-4.1,4.8c-1.4,0-2.4-1.2-2.4-3c0-3.7,4.7-4,6.5-4.2V133.6L306,133.6z M306,140.6h4.2v-12.8
			c0-3.9-0.5-7.5-7-7.5c-6.2,0-7.4,3.1-7.6,6.1h4.4c0.2-2.3,0.6-4.3,3.2-4.3c2.8,0,2.8,3.6,2.8,5.7v1.8c-2.6,0.1-11.1,0.4-11.1,6.5
			c0,2.7,2.3,4.9,5.4,4.9c3.2,0,4.9-2,5.6-3.2h0.1V140.6L306,140.6z"/>
		<polygon points="316.5,111.9 320.7,111.9 320.7,140.6 316.5,140.6 316.5,111.9 		"/>
		<path d="M357.2,139.2c-1.5,0.9-4,1.8-7.7,1.8c-8.9,0-12.1-7.3-12.1-15.4c0-6.9,2.5-14.3,11.3-14.3c6.4,0,9.6,3.5,9.6,8.2H353
			c0-2.3-0.8-5.7-4.6-5.7c-5.2,0-6.1,7-6.1,11c0,6.4,1.5,13.1,7.9,13.1c3.5,0,5.7-1.8,6.9-2.7V139.2L357.2,139.2z"/>
		<path d="M361.8,111.9h4.2v13.6h0.1c0.7-1.5,2.6-5.2,7-5.2c3.5,0,5,2.9,5,5.8v14.5h-4.2v-12.4c0-2.5-0.4-4.7-2.5-4.7
			c-4.2,0-5.3,6.5-5.3,9v8.2h-4.2V111.9L361.8,111.9z"/>
		<path d="M384.4,120.8h4.2v19.8h-4.2V120.8L384.4,120.8z M384.2,111.9h4.5v4.2h-4.5V111.9L384.2,111.9z"/>
		<path d="M395,120.8h4.2v4.7h0.1c0.7-1.5,2.6-5.2,7-5.2c3.5,0,5,2.9,5,5.8v14.5H407v-12.4c0-2.5-0.4-4.7-2.5-4.7
			c-4.2,0-5.3,6.5-5.3,9v8.2H395V120.8L395,120.8z"/>
		<path d="M427.1,133.6c0,3.4-2.6,4.8-4.1,4.8c-1.4,0-2.4-1.2-2.4-3c0-3.7,4.7-4,6.5-4.2V133.6L427.1,133.6z M427.1,140.6h4.2v-12.8
			c0-3.9-0.5-7.5-7-7.5c-6.2,0-7.4,3.1-7.6,6.1h4.4c0.2-2.3,0.6-4.3,3.2-4.3c2.8,0,2.8,3.6,2.8,5.7v1.8c-2.6,0.1-11.1,0.4-11.1,6.5
			c0,2.7,2.3,4.9,5.4,4.9c3.2,0,4.9-2,5.6-3.2h0.1V140.6L427.1,140.6z"/>
		<path d="M431.4,73.2h-17.2V62.1l0,0c0-1.8-1.5-3.3-3.3-3.3h-1.2v19h4.5v0h12.7v13.9c0,1.7-1.4,3.1-3.1,3.1h-5.7l2.3,4.5h3.5
			c4.2,0,7.6-3.4,7.6-7.6V77.7V73.2L431.4,73.2z"/>
		<path d="M399.8,68.8c-2,0-3.8,1-4.9,2.4c1.6-4.8,1.5-9.1,1.5-9.4v-3.5h8.7v-4.5h-18.6v4.5h5.4v3.5c0,0.6,0.1,13.6-9.7,18.1
			l3.3,3.4c1.8-1,3.2-2.2,4.5-3.5v16.8h4.5v0h3.5c4.2,0,7.6-3.4,7.6-7.6V73.3h0v-4.5L399.8,68.8L399.8,68.8L399.8,68.8z M401,89.1
			c0,1.7-1.4,3.1-3.1,3.1h-3.5V74.9c1.1-1,2.6-1.6,4.2-1.6h2.4V89.1L401,89.1z"/>
		<path d="M425.1,56h-0.4l-3.4,15.1h4.5l3.2-14c0.1-0.4,0.1-0.7,0.1-1.1c0,0,0,0,0,0v0c0-2.5-2-4.5-4.5-4.5v0h-17.5V56H425.1
			L425.1,56z"/>
		<path d="M367.2,83.6c2.7-5.3,5-12.1,5.8-20.8h2.6v-4.5h-10.7l0,0c-1.8,0-3.4,0.8-4.6,2c0.8-4.5,0.9-8.1,0.9-9.6h-4.5
			c0,2.4-0.4,13.4-5.6,23l4,2.2c0.9-1.7,1.7-3.4,2.4-5.1c1.1,5,2.7,9.2,4.5,12.9c-3.7,6.2-7.9,9.5-9.7,10.7
			c-2.1-0.8-4.1-1.8-5.9-2.7c4.5-4.9,6.5-11,6.6-11.3l0.9-2.9h-3.1h-9.5c0.6-1.1,1.2-2.2,1.7-3h-5.1l-1.7,3h-8.6V82c0,0,2.7,0,6.2,0
			l-3.2,5.9l1.7,1.1c0.2,0.1,2.4,1.6,5.8,3.5c-4.8,2.6-8,2.8-11.4,2.7l0,0l4.2,4.3c3.2-0.3,6.8-1.4,11.5-4.4
			c0.1-0.1,0.2-0.1,0.3-0.2c2.7,1.4,5.8,2.8,9,4.1l1,0.4l0.9-0.5c0.4-0.2,5.9-3.2,10.9-10.7c3.6,5.7,7.6,9.4,9.9,11.3l3.1-3.4
			C375.3,94.3,370.9,90.2,367.2,83.6L367.2,83.6z M338.8,82c3.4,0,6.7,0,8.6,0c-1,2.2-2.8,5.3-5.3,7.6c-2.4-1.3-4.4-2.4-5.7-3.2
			C336.9,85.4,337.8,83.8,338.8,82L338.8,82z M361,63.5c0.8-0.4,1.8-0.7,2.8-0.7h4.7c-0.6,6.2-2,11.4-3.8,15.6
			C362.9,74.2,361.5,69.3,361,63.5L361,63.5z"/>
		<path d="M307.3,76L307.3,76l-1-8.6h0c0,0,0,0,0,0c-0.2-1.8-1.9-3.1-3.7-2.9c-0.4,0.1-0.8,0.2-1.2,0.4l0.4,3.1l1.2,9.7l0.2,1.9
			c0.4,0.1,0.8,0.1,1.2,0.1C306.2,79.4,307.5,77.8,307.3,76C307.3,76,307.3,76,307.3,76L307.3,76z"/>
		<path d="M291.6,76L291.6,76l-1-8.6l0,0c0,0,0,0,0,0c-0.2-1.8-1.9-3.1-3.7-2.9c-0.4,0.1-0.8,0.2-1.2,0.4l0.4,3.1l1.2,9.7l0.2,1.9
			c0.4,0.1,0.8,0.1,1.2,0.1C290.6,79.4,291.8,77.8,291.6,76C291.6,76,291.6,76,291.6,76L291.6,76z"/>
		<path d="M270.2,67.9l1.2,9.7l0.2,1.9c0.4,0.1,0.8,0.1,1.2,0.1c1.8-0.2,3.1-1.9,2.9-3.7c0,0,0,0,0,0l-1-8.6h0c0,0,0,0,0,0
			c-0.2-1.8-1.9-3.1-3.7-2.9c-0.4,0.1-0.8,0.2-1.2,0.4L270.2,67.9L270.2,67.9z"/>
		<path d="M229,71.9l-3.2-3.7c2.4-3.9,3.2-7,3.3-7.3l0.7-2.8h-2.9h-13.5v4.5c2.6,0,7.4,0,10.2,0c-1.6,3.5-5.4,9.7-13.5,14.4l3.2,3.3
			c2.3-1.4,4.3-2.9,5.9-4.5v23.9h1.2c1.8,0,3.3-1.5,3.3-3.3l0,0V72.8l3.9,4.5l0.9-0.8C230,75.3,230.2,73.2,229,71.9L229,71.9
			L229,71.9z"/>
		<path d="M247.4,53.5L247.4,53.5c0-1.8-1.5-3.3-3.3-3.3h-1.2V58h-2.4v0c-2.2,0-4.2,1.2-5.3,3v-3h-4.5v28.4h4.5v0h7.7v14.3h1.2
			c1.8,0,3.3-1.5,3.3-3.3l0,0v-11h3.4c4.2,0,8.8-3.4,8.8-7.6V62.5V58h-12.2V53.5L247.4,53.5z M239.3,62.5h3.6V70h-7.7v-5.8
			C236.3,63.2,237.7,62.6,239.3,62.5L239.3,62.5z M235.2,81.9v-7.4h7.7v1.7v5.7H235.2L235.2,81.9z M250.8,81.9h-3.4v-5.7v-1.7h7.7
			v4.3C255.1,80.5,252.5,81.9,250.8,81.9L250.8,81.9z M255.1,62.5V70h-7.7v-7.4H255.1L255.1,62.5z"/>
		<path d="M314.6,73V54.1l0,0c0-1.8-1.5-3.3-3.3-3.3h-1.6V73v3.7v23.5h1.6c1.8,0,3.3-1.5,3.3-3.3l0,0V76.7V73L314.6,73z"/>
		<path d="M299,70.1V55.7l0,0c0-1.8-1.5-3.3-3.3-3.3h-1.6v17.6v8.3v18.9h1.6c1.8,0,3.3-1.5,3.3-3.3l0,0V78.4V70.1L299,70.1z"/>
		<path d="M280,50.8h-1.6v15.8h0v9.1c0,3.4-1,8.9-3.9,13.4c-2,3.1-4.5,5.3-7.6,6.7l3.5,3.7c9.2-5.1,12.9-15.9,12.9-23.8v-2.1h0V54.1
			l0,0C283.3,52.2,281.8,50.8,280,50.8L280,50.8z"/>
		<path d="M331.9,59.6L331.9,59.6L331.9,59.6l4.2,0l-1.5-3.1l0,0l-1.1-2.2h0c-0.5-0.9-1.4-1.4-2.3-1.5l0,0h-2.6l2.1,4.2L331.9,59.6
			L331.9,59.6z"/>
		<path d="M220,56.6l0.5,0v0h4.2l-1.1-2.2h0l-1.1-2.2h0c-0.5-0.9-1.4-1.4-2.3-1.5l0,0h-3.1l2.4,4.9L220,56.6L220,56.6z"/>
		<path d="M348.7,59.6L348.7,59.6L350,57l2.1-4.2h-2.6l0,0c-1,0-1.9,0.5-2.3,1.5h0l-1.1,2.2l0,0l-1.5,3.1L348.7,59.6L348.7,59.6
			L348.7,59.6z"/>
		<path d="M424.8,83h-13.6l0,0c-1.8,0-3.3,1.5-3.3,3.3v1.2h17V83L424.8,83z"/>
		<path d="M326.9,70.3l3.3,3.5c3.5-1.7,6-3.8,7.8-5.8v5.6h4.5v-6.1c1.7,2,4.2,4.2,7.6,6c0.7-1.3,1.4-2.7,1.9-4.1
			c-2.8-1.5-4.7-3.2-6.1-4.8h6.5v-3.8h-9.9v-6.7l0,0c0-1.8-1.5-3.3-3.3-3.3H338v10.1h-9.7v3.8h6.7C333.3,66.6,330.8,68.7,326.9,70.3
			L326.9,70.3z"/>
	</g>
</g>
</svg>
