<?xml version="1.0" encoding="utf-8"?>
<!-- Generator: Adobe Illustrator 21.0.0, SVG Export Plug-In . SVG Version: 6.00 Build 0)  -->
<svg version="1.1" id="图层_1" xmlns="http://www.w3.org/2000/svg" xmlns:xlink="http://www.w3.org/1999/xlink" x="0px" y="0px"
	 viewBox="0 0 270 90" style="enable-background:new 0 0 270 90;" xml:space="preserve">
<style type="text/css">
	.st0{fill:#231815;}
	.st1{fill:#27BBEB;}
</style>
<g>
	<g>
		<path class="st0" d="M62.8,64.3h10.9v1h-9.5V72h9.5v1H62.8V64.3z M64.7,68.1h8.9v1h-8.1L64.7,68.1z"/>
		<path class="st0" d="M76.8,64.3h9v1l-6.9,7.6h-2l6.9-7.6h-8L76.8,64.3z"/>
		<path class="st0" d="M94.2,67.3h1.6v1.4h-1.6V67.3z"/>
		<path class="st0" d="M104.3,64.3h7.2c0.6,0,1.1,0.1,1.6,0.2c0.5,0.2,0.9,0.4,1.2,0.6s0.5,0.5,0.7,0.9c0.2,0.3,0.2,0.7,0.2,1
			c0,0.3-0.1,0.7-0.2,1c-0.2,0.3-0.4,0.6-0.7,0.9c-0.3,0.3-0.7,0.5-1.2,0.6c-0.5,0.2-1,0.2-1.6,0.2h-2.1l5.8,3.2H113l-6.4-3.6
			l0.5-0.6h4.4c0.4,0,0.7-0.1,1-0.2c0.3-0.1,0.5-0.2,0.7-0.4c0.2-0.2,0.3-0.4,0.4-0.6c0.1-0.2,0.1-0.4,0.1-0.6c0-0.2,0-0.4-0.1-0.6
			c-0.1-0.2-0.2-0.4-0.4-0.6c-0.2-0.2-0.4-0.3-0.7-0.4c-0.3-0.1-0.6-0.2-1-0.2h-5.7V73h-1.5V64.3z"/>
		<path class="st0" d="M117.6,64.3h10.9v1H119V72h9.5v1h-10.9V64.3z M119.6,68.1h8.9v1h-8.1L119.6,68.1z"/>
		<path class="st0" d="M134.4,69c-0.5,0-1-0.1-1.5-0.3c-0.4-0.1-0.8-0.3-1.1-0.5c-0.3-0.2-0.5-0.4-0.7-0.6s-0.3-0.5-0.3-0.7
			c0-0.2,0-0.5,0.1-0.7c0.1-0.2,0.2-0.5,0.4-0.7c0.2-0.2,0.4-0.4,0.7-0.6c0.3-0.2,0.6-0.3,1-0.4c0.4-0.1,0.8-0.1,1.3-0.1h6.7l-0.8,1
			h-5.9c-0.3,0-0.7,0-0.9,0.1c-0.3,0.1-0.5,0.2-0.7,0.4c-0.2,0.2-0.3,0.3-0.4,0.5c-0.1,0.2-0.1,0.4,0,0.6c0.1,0.2,0.2,0.4,0.3,0.5
			c0.1,0.2,0.4,0.3,0.7,0.4c0.3,0.1,0.7,0.2,1.1,0.2l3.8,0.3c0.5,0,1,0.1,1.5,0.3s0.8,0.3,1.1,0.5c0.3,0.2,0.5,0.4,0.7,0.6
			c0.2,0.2,0.3,0.5,0.3,0.7s0,0.5-0.1,0.7c-0.1,0.2-0.2,0.5-0.4,0.7c-0.2,0.2-0.4,0.4-0.7,0.6c-0.3,0.2-0.6,0.3-1,0.4
			c-0.4,0.1-0.8,0.1-1.3,0.1h-7.4l0.8-1h6.5c0.3,0,0.7,0,0.9-0.1c0.3-0.1,0.5-0.2,0.7-0.4c0.2-0.2,0.3-0.3,0.4-0.5
			c0.1-0.2,0.1-0.4,0-0.6c-0.1-0.2-0.2-0.4-0.3-0.5c-0.1-0.2-0.4-0.3-0.7-0.4c-0.3-0.1-0.7-0.2-1.1-0.2L134.4,69z"/>
		<path class="st0" d="M144.1,64.3H155v1h-9.5V72h9.5v1h-10.9V64.3z M146.1,68.1h8.9v1h-8.1L146.1,68.1z"/>
		<path class="st0" d="M164.2,64.3l5,8.7h-1.5l-4.4-7.6l-1.9,3.3h3l-0.8,1H161l-1.9,3.4h-1.5l5-8.7h0.2h1.3H164.2z"/>
		<path class="st0" d="M171.9,64.3h7.2c0.6,0,1.1,0.1,1.6,0.2c0.5,0.2,0.9,0.4,1.2,0.6c0.3,0.3,0.5,0.5,0.7,0.9
			c0.2,0.3,0.2,0.7,0.2,1c0,0.3-0.1,0.7-0.2,1c-0.2,0.3-0.4,0.6-0.7,0.9c-0.3,0.3-0.7,0.5-1.2,0.6c-0.5,0.2-1,0.2-1.6,0.2h-2.1
			l5.8,3.2h-2.2l-6.4-3.6l0.5-0.6h4.4c0.4,0,0.7-0.1,1-0.2c0.3-0.1,0.5-0.2,0.7-0.4c0.2-0.2,0.3-0.4,0.4-0.6
			c0.1-0.2,0.1-0.4,0.1-0.6c0-0.2,0-0.4-0.1-0.6c-0.1-0.2-0.2-0.4-0.4-0.6c-0.2-0.2-0.4-0.3-0.7-0.4c-0.3-0.1-0.6-0.2-1-0.2h-5.7V73
			h-1.5V64.3z"/>
		<path class="st0" d="M191.5,64.3h4.5l-0.8,1h-3.5c-0.8,0-1.5,0.1-2.2,0.3c-0.7,0.2-1.2,0.4-1.6,0.8c-0.4,0.3-0.7,0.7-0.9,1.1
			c-0.2,0.4-0.3,0.8-0.3,1.2c0,0.4,0.1,0.8,0.3,1.2c0.2,0.4,0.5,0.8,0.9,1.1s0.9,0.6,1.6,0.8c0.7,0.2,1.4,0.3,2.2,0.3h4.3v1h-4.5
			c-2,0-3.7-0.5-4.9-1.4c-1-0.7-1.5-1.6-1.6-2.7c-0.1-1.1,0.3-2,1.1-2.8c0.9-0.9,2.3-1.5,4-1.7C190.5,64.3,191,64.3,191.5,64.3z"/>
		<path class="st0" d="M198.4,64.3h1.5V73h-1.5V64.3z M207.8,64.3h1.5V73h-1.5v-3.9H201l-0.8-1h7.7V64.3z"/>
	</g>
	<g>
		<g>
			<path class="st0" d="M77,13.8h6.9c-7.2,7.7-11.1,11.8-11.5,12.3c-1.4,1.3-3,1.9-4.8,1.9h-6.9c6.7-7.1,10.6-11.3,11.7-12.5
				c1.1-0.9,2.4-1.5,3.6-1.7C76.4,13.8,76.7,13.8,77,13.8z M81.4,26H90L90,51h18.4l0,0.5c0,1.2-0.5,2.1-1.6,2.8
				c-0.5,0.3-0.9,0.4-1.4,0.4H63.5c-1.1,0-1.9-0.6-2.6-1.7c-0.2-0.5-0.4-1-0.4-1.5l0-0.5h5.6l0.1-20.2h8.6L74.8,51h6.5L81.4,26z
				 M85.4,13.8h8.8c1.2,0,2.5,0.9,3.7,2.6c0.6,0.7,3,3.4,7.3,8.2l3.1,3.4l0,0h-6.4c-2,0-3.5-0.4-4.5-1.2c-0.5-0.2-1.4-1.1-2.7-2.7
				C90.9,20.1,89,18,89,18c-0.5-0.3-0.9-0.5-1.3-0.5H82l0,0C82,17.4,83.1,16.2,85.4,13.8z"/>
			<path class="st0" d="M112.6,14.9h18.6c0,0,0.1,0,0.1,0.1l0,0.3c0,1.4-0.6,2.4-1.8,3c-0.4,0.2-0.8,0.3-1.3,0.3h-5.1
				c-1.6,6.1-2.4,9.3-2.4,9.6l-0.1,21.2c0,0.8,0.4,1.3,1.1,1.6c0.2,0,0.3,0.1,0.5,0.1h0.6c0.9,0,1.5-0.5,1.7-1.4c0-0.1,0-0.3,0-0.4
				l0.1-17.6c0-0.8-0.4-1.3-1.3-1.7c-0.7-0.5-1.1-1.1-1.1-1.8l0-1.9h3.9c1.4,0,2.5,0.5,3.4,1.5c0.5,0.6,0.7,1.3,0.7,2.3l-0.1,19.8
				c0,1.5-0.4,2.7-1.2,3.5c-0.8,0.9-1.8,1.3-2.8,1.3H119c-1.5,0-2.7-0.8-3.5-2.3c-0.3-0.6-0.5-1.4-0.5-2.3l0-14.4h-2.9
				c0.3-1,1.7-6.7,4.4-17.1h-0.9c-1.1,0-1.9-0.5-2.6-1.6c-0.3-0.5-0.4-1.1-0.4-1.6L112.6,14.9z M132.7,14.8h26.2l0,0.4
				c0,1.3-0.6,2.3-1.9,3c-0.4,0.1-0.8,0.2-1,0.2h-0.2l-0.1,36.2H148l0.1-19.2h-4.7l0,3.8c0,5.6-0.1,8.9-0.4,9.8
				c0,0.4-0.2,1.2-0.6,2.6c-0.3,0.7-0.7,1.4-1.3,2c-0.6,0.5-1.2,0.8-1.7,0.9c-0.2,0-0.4,0.1-0.5,0.1c-1.4,0-2.6,0-3.6,0h-1.9
				c1.2-2.5,1.9-4.6,2-6.2c0.3-1.8,0.4-3.4,0.4-4.5l0.1-25.4h-0.2c-1,0-1.8-0.5-2.5-1.5c-0.3-0.5-0.5-1.1-0.5-1.7L132.7,14.8z
				 M143.5,18.5L143.4,33h4.7l0.1-14.5H143.5z"/>
			<path class="st0" d="M167.6,15.5h4.7l0,10c0,0,0,0.1-0.1,0.1h-7.5c0,0-0.1,0-0.1-0.1l0-6.7c0-1.4,0.6-2.4,1.8-3.1
				C166.8,15.6,167.2,15.5,167.6,15.5z M181.3,29.8h4.7c-0.8,2.1-1.2,3.1-1.2,3.2h14.7c1.8,0,3,0.5,3.8,1.5c0.5,0.6,0.8,1.3,0.8,2
				l0,12.9c0,0.7,0.4,1.2,1.2,1.5c0.2,0.1,0.5,0.2,0.9,0.2h4.6l0,0.5c0,1.2-0.5,2.1-1.6,2.8c-0.5,0.3-0.9,0.4-1.4,0.4h-8.4
				c-1.4,0-2.6-0.6-3.4-1.8c-0.4-0.5-0.5-1.1-0.5-1.8l0-12.8c0-0.7-0.4-1.3-1.3-1.6c-0.2-0.1-0.4-0.1-0.6-0.1h-10.2
				c-0.1,0.3-2,5.2-5.8,14.6c-0.3,0.5-0.5,0.9-0.7,1.1c-1.2,1.6-2.8,2.4-4.6,2.4h-4.7l0,0c4.8-12,7.1-18,7.1-18H169
				c-1.5,0-2.5-0.8-3-2.4c-0.1-0.3-0.1-0.7-0.1-1l0-0.3c0,0,0-0.1,0.1-0.1h10.2c0.7-1.3,1.8-2.3,3.3-2.9
				C180,29.9,180.7,29.8,181.3,29.8z M179.7,22.3h6.3c-0.4,0.3-2.1,1.7-5.1,4.1c-1.7,1.4-2.8,2.2-3.4,2.4c-0.8,0.4-1.8,0.6-2.9,0.6
				h-6c0.3-0.3,2-1.6,4.9-3.9c1.8-1.6,3.1-2.5,3.9-2.7C178.2,22.4,179,22.3,179.7,22.3z M205.7,15.5c1.3,0,2.5,0.6,3.4,1.7
				c0.4,0.6,0.5,1.2,0.5,1.8l0,6.5c0,0,0,0.1-0.1,0.1H202c0,0-0.1,0-0.1-0.1l0-4.7c0-0.6-0.4-1.1-1.2-1.5c-0.2-0.1-0.5-0.1-0.8-0.1
				h-23.2c-1.1,0-2-0.6-2.7-1.8c-0.2-0.5-0.3-1-0.3-1.8l0-0.1H205.7z M188.2,22.3h6.3c1.8,0,3.4,0.7,5,2.1c3.8,3,5.8,4.6,6.1,4.9h-6
				c-2,0-3.7-0.7-5.2-2.1C194.3,27.2,192.3,25.6,188.2,22.3z"/>
			<path class="st0" d="M215.3,14.3h6.6l-0.1,40.4h-6.6L215.3,14.3z M223.1,14.3h5.6c0.9,0,1.7,0.3,2.3,0.9c0.7,0.7,1,1.4,1,2.3
				c-0.1,0.9-0.6,4.8-1.6,11.8c1,0.7,1.5,1.8,1.5,3.3l0,10c0,3.4-0.3,5.8-0.8,7c-0.6,1.5-1.4,2.2-2.6,2.2h-3.7l0,0
				c0.8-2.6,1.2-4.9,1.3-7.1l0-10.5c0-0.8-0.4-1.4-1.2-1.7c-0.1,0-0.2,0-0.3,0h-0.5l2-13c0-0.5-0.3-1-0.9-1.3
				c-0.2-0.1-0.5-0.2-0.9-0.2c-0.4-0.2-0.7-0.4-0.9-0.7c-0.2-0.4-0.4-0.9-0.4-1.4L223.1,14.3z M234.1,35.6h28.4l0,0.2
				c0,1.6-0.7,2.7-2.1,3.3c-0.3,0.1-0.6,0.2-0.9,0.2h-2.8l0,9.9c0,0.8,0.4,1.4,1.3,1.8c0.3,0.1,0.6,0.1,0.9,0.1h4.2l0,0.5
				c0,1.2-0.5,2.1-1.6,2.8c-0.5,0.3-0.9,0.4-1.4,0.4h-6.5c-1.5,0-2.6-0.6-3.5-1.9c-0.3-0.5-0.5-1.2-0.5-2l0-11.6h-3.4
				c-2.7,7.5-4.3,11.7-4.7,12.6c-0.2,0.4-0.6,0.9-1.1,1.5c-1,0.8-2,1.3-3.2,1.3h-3.8c3.7-9.9,5.6-15.1,5.7-15.4H237
				c-1,0-1.8-0.5-2.5-1.6c-0.3-0.5-0.4-1-0.4-1.5L234.1,35.6z M237,16.1h4.1l0,8.7H234l0-5.5c0-1.1,0.5-2,1.5-2.7
				C235.9,16.3,236.5,16.1,237,16.1z M236,27.4h24.5l0,0.5c0,1.2-0.5,2.1-1.6,2.8c-0.4,0.3-1,0.4-1.5,0.4H239c-1.2,0-2.2-0.7-2.8-2
				c-0.2-0.5-0.2-0.9-0.2-1.4L236,27.4C236,27.4,236,27.4,236,27.4z M258.6,16.1c1.5,0,2.7,0.6,3.6,1.9c0.3,0.5,0.5,1.1,0.5,1.8
				l0,4.9h-7.1l0-3.2c0-0.8-0.4-1.4-1.3-1.7c-0.2-0.1-0.6-0.1-1.1-0.1h-7.9c-0.9,0-1.8-0.5-2.5-1.6c-0.3-0.6-0.4-1.2-0.4-1.8l0-0.2
				h1.5H258.6z"/>
			<path d="M53.9,39.6c0-0.5-0.1-0.9-0.4-1.5c-0.9-1.3-2.1-1.9-3.5-1.9H22.1c0,0.7,0.1,1.3,0.3,1.8c0.4,0.8,1,1.5,2,1.9l18.5,0
				c0,0,0.7,0,1.1,0.1c0.8,0.3,1.3,0.8,1.3,1.5l0,9.5h-1.5l0,0H22.2l0,0h-1.6l0-14.8H12L12,51H9l0,0.5c0,0.5,0.1,1,0.4,1.5
				c0.7,1.1,1.5,1.7,2.6,1.7h41.9c0.5,0,0.9-0.1,1.4-0.4c1.1-0.7,1.6-1.7,1.6-2.8l0-0.5h-2.9L53.9,39.6z"/>
			<path d="M56.3,21.2H9.6l0,0c0,1.1,0.2,1.9,0.7,2.5c0.7,0.8,1.4,1.2,2.2,1.2h40.9c0.2,0,0.5,0,0.7-0.1
				C55.7,24.2,56.4,23.1,56.3,21.2C56.4,21.3,56.4,21.2,56.3,21.2z"/>
			<path d="M27,26.8h-6.3c-1.3,0-2.4,0.6-3.5,1.7c-0.7,1-2.3,3.3-4.7,6.8h6c1.6,0,2.9-0.6,3.9-1.8C22.5,33.2,24.1,31,27,26.8z"/>
			<path d="M22.2,19.4H28l0,0c-1.3-1.8-2-2.8-2.1-2.9c-1.1-1.9-2.6-2.8-4.4-2.8h-6.2c1.5,2.2,2.3,3.3,2.4,3.4
				C18.7,18.6,20.2,19.4,22.2,19.4z"/>
			<path d="M48.1,17.3l2.6-3.7h-6.2c-1.6,0-2.9,0.7-4,2.2c-1.5,2.1-2.3,3.3-2.6,3.6l0,0h5.8C45.7,19.4,47.1,18.7,48.1,17.3z"/>
			<path d="M189.6,17.2l2.4-3.4h-5.6c-1.4,0-2.6,0.6-3.6,1.9c-1.3,1.9-2.1,3-2.3,3.2l0,0h5.2C187.4,19,188.7,18.4,189.6,17.2z"/>
			<path d="M251.5,17.2l2.4-3.4h-5.6c-1.4,0-2.6,0.6-3.6,1.9c-1.3,1.9,2.9,3.3,2.9,3.3C249.3,19,250.6,18.4,251.5,17.2z"/>
			<path d="M47.5,35.2h6l-3.9-5.7c-0.4-0.6-0.9-1.2-1.4-1.7c-0.9-0.7-1.9-1.1-2.9-1.1H39c2.2,3.2,3.5,5,3.8,5.6
				C43.9,34.3,45.5,35.2,47.5,35.2z"/>
			<polygon points="64.7,54.7 53.3,54.7 52.5,51 63.9,51 			"/>
			<polygon points="120.1,54.7 103.5,54.7 102.7,51 119.3,51 			"/>
			<polygon points="170.5,36.6 141.9,36.6 141.2,32.9 169.7,32.9 			"/>
			<polygon points="217.9,54.7 204.8,54.7 204,51 217.1,51 			"/>
			<path class="st0" d="M105,36.5c1.5-0.6,2.2-1.7,2.2-3.5c0-0.1,0-0.1-0.1-0.1H85.4l-0.5,3.7h19.3C104.5,36.6,104.7,36.6,105,36.5z
				"/>
			<path d="M132.3,32.9L132.3,32.9c0,1.1,0.2,1.9,0.7,2.5c0.7,0.8,1.4,1.2,2.2,1.2h1.4l0.3-3.7H132.3z"/>
		</g>
		<rect x="24.1" y="43.3" class="st1" width="6.9" height="7.7"/>
		<rect x="34.7" y="43.3" class="st1" width="6.9" height="7.7"/>
	</g>
</g>
</svg>
