<?xml version="1.0" encoding="UTF-8"?><svg xmlns="http://www.w3.org/2000/svg" viewBox="0 0 798.27 243.44"><defs><style>.d{fill:#6045e6;}</style></defs><g id="a"/><g id="b"><g id="c"><g><path class="d" d="M281.1,121.72l-50.01-86.63h0L210.82,0H70.27L19.11,88.63h0L0,121.72l51.17,88.63h0l19.11,33.09H210.82l50.01-86.63h0l20.26-35.09Zm-23.73,25.09l-46.55-80.63H117.73l14.49-25.09h93.1l46.55,80.63-14.49,25.09Zm-89.38,22.44h-54.88l-27.44-47.53,27.44-47.53h54.88l27.44,47.53-27.44,47.53ZM113.11,8h93.1l14.49,25.09H127.59l-19.11,33.09h0l-1.15,2h0l-26.29,45.53-14.49-25.09L113.11,8Zm-38.21,0h28.98L57.32,88.63l46.55,80.63h-28.98L28.34,88.63,74.89,8ZM23.73,96.63l46.55,80.63h93.1l-14.49,25.09H55.79L9.24,121.72l14.49-25.09Zm51.17,138.81l-14.49-25.09h93.1l19.11-33.09h0l27.44-47.53,14.49,25.09-46.55,80.63H74.89Zm131.31,0h-28.98l45.39-78.63h0l1.15-2-19.11-33.09h0l-27.44-47.53h28.98l46.55,80.63-46.55,80.63Z"/><g><g><path d="M370.68,70.47h53.91V23.37h-78.19v47.11h12.86c-7.52,10.39-18.35,20.01-29.94,26.56l-1.28,.72,1.25,.78c1.79,1.12,4.86,3.93,6.18,5.37l.5,.54,.62-.39c6.95-4.42,13.67-9.85,19.46-15.7h15.93c-7.91,12.38-19.62,23.53-32.33,30.76l-1.17,.67,1.09,.8c1.77,1.3,4.71,4.14,5.97,5.62l.5,.59,.65-.43c14.59-9.6,27.74-23.43,36.15-38.01h15.36c-5.82,14.23-14.8,26.46-25.4,34.55l-1.06,.81,1.16,.65c1.78,1,4.84,3.57,6.17,4.9l.57,.57,.61-.52c11.65-9.83,21.62-24.35,28.11-40.95h13.68c-1.75,19.18-3.68,28.79-6.29,31.18-.8,.89-1.54,1.03-3.67,1.03s-7.88,0-13.71-.59l-1.72-.18,.88,1.49c1.06,1.81,1.92,4.57,2.04,6.57l.05,.78,.77,.05c6.4,.38,11.96,.48,14.84,.24,3.73-.13,6.17-1.15,8.38-3.48,4.01-3.88,6.14-14.33,8.42-41.41,.24-1.06,.35-3.43,.37-3.7l.04-.91h-68.27c2.37-2.88,4.6-5.93,6.52-8.93Zm44.12-19.56v10.97h-58.97v-10.97h58.97Zm0-19.08v10.85h-58.97v-10.85h58.97Z"/><path d="M525.99,118.63v-15.39h27.48v-8.35h-27.48v-8.93h25.92v-17.4h8.88v-8.35h-8.88v-16.08h-25.92v-6.89h31.56v-8.47h-31.56v-10.68h-9.19v10.68h-29.88v8.47h29.88v6.89h-24.72v8.23h24.72v7.85h-31.44v8.08l-.52,.17c-3.81,1.27-7.74,2.58-11.53,3.78v-20.73h13.44v-9.07h-13.44V18.21h-9.07v24.24h-15.36v9.07h15.36v23.68c-6.22,1.96-11.74,3.68-16.28,4.96l-.86,.24,2.93,9.51,14.22-4.82v33.46c0,1.19-.19,1.29-1.36,1.29-1.29,.11-5.97,.12-11.41-.12l-1.53-.07,.72,1.35c1,1.9,2.07,5.13,2.43,6.96l.14,.7h.72c7.12,0,12.01-.1,15-1.4,3.62-1.66,4.35-4.57,4.35-8.72v-36.45l14.28-4.84-1.54-8.71h30.76v9.17h-24.72v8.23h24.72v30.41c-7.62-2.83-12.83-8.17-16.33-16.71,1.01-3.95,1.8-7.84,2.34-11.57l.13-.88-9.06-1.19-.12,.86c-2.4,16.79-8.08,29.21-16.87,36.9l-.83,.73,.9,.64c1.66,1.18,4.71,3.53,5.86,4.8l.61,.67,.65-.64c5.23-5.11,9.51-11.6,12.73-19.3,8.85,14.28,22.31,17.27,39.69,17.27h21.84l.13-.71c.34-1.83,1.49-5.06,2.52-6.65l.87-1.35h-25c-3.88,0-7.54-.21-10.88-.62Zm0-58.42v-7.85h16.61v7.85h-16.61Zm0,17.52v-9.17h16.61v9.17h-16.61Z"/><rect x="615.44" y="25.17" width="60.55" height="9.31"/><path d="M573.24,51.5l.5,.72,.72-.5c11.1-7.73,23.15-19.35,30.68-29.6l.67-.91-9.26-3.67-.4,.57c-5.95,8.52-17.56,19.47-27.6,26.05l-.86,.57,.7,.76c1.36,1.47,3.75,4.45,4.84,6.02Z"/><path d="M601.3,43.09l-.37,.61c-8.18,13.44-21.24,27.41-34.08,36.46l-.88,.62,.79,.74c1.65,1.53,4.59,4.71,5.76,6.35l.54,.75,.72-.58c4.54-3.63,9.07-7.73,13.22-11.96v53.19h9.67v-63.79c5.23-6.27,9.71-12.36,13.31-18.09l.58-.92-9.25-3.38Z"/><path d="M610.28,67.47h40.92v49.88c0,1.44-.2,1.78-2.17,1.89-2.09,.11-9.86,.13-19.01-.12l-1.58-.04,.8,1.36c1.26,2.15,2.46,5.12,2.77,6.91l.13,.72h.73c11.68,0,18.11,0,22.36-1.13,4.19-1.44,5.75-4,5.75-9.47v-50h18.36v-9.43h-69.07v9.43Z"/><path d="M798.27,71.31v-9.91h-107.46v9.91h37.38c-7.81,15.59-17.6,30.03-21,34.12-3.41,4.51-6.21,8.01-8.62,8.55l-1.07,.24,.47,.99c1.13,2.38,2.57,6.75,3.06,8.72l.25,1,.95-.41c3.73-1.61,9.5-2.13,54.4-6.13,6.66-.59,14.17-1.26,22.67-2.03,2.63,4.34,5.1,8.63,7.13,12.45l.44,.82,8.81-5.34-.38-.73c-6.26-12.14-19.08-30.41-28.16-42.37l-.45-.59-8.78,4.53,.62,.83c4.72,6.26,10.02,13.85,15,21.51l-59.01,4.64c9.04-11.18,18.39-25.58,26.51-40.81h57.23Z"/><rect x="703.76" y="27.68" width="82.15" height="9.79"/></g><g><polygon points="349 184.1 374.08 184.1 374.08 176.52 349 176.52 349 160.56 377.5 160.56 377.5 152.99 339.85 152.99 339.85 209.48 377.92 209.48 377.92 201.9 349 201.9 349 184.1"/><path d="M429.33,204.52c-.15-1.31-.22-2.69-.22-4.11v-19.59c0-4.66-1.52-8.3-4.53-10.8-2.96-2.47-6.89-3.72-11.69-3.72s-8.88,1.31-11.97,3.89c-3.16,2.63-4.67,5.61-4.51,8.84l.32,1.06h8.57v-.88c0-1.44,.63-2.65,1.91-3.7,1.33-1.08,3.09-1.63,5.26-1.63,2.41,0,4.28,.62,5.56,1.84,1.29,1.23,1.91,2.88,1.91,5.03v3.15h-7.17c-5.55,0-10.02,1.16-13.3,3.45-3.38,2.36-5.09,5.67-5.09,9.83s1.21,7.26,3.59,9.59c2.38,2.32,5.84,3.5,10.29,3.5,2.71,0,5.27-.71,7.61-2.1,1.62-.96,3.04-2.09,4.24-3.39,.03,.23,.06,.47,.09,.7,.14,.95,.33,2.03,.59,3.3l.14,.7h9.53l-.35-1.13c-.38-1.25-.65-2.54-.79-3.83Zm-23.41-11.83c1.62-1.36,3.84-2.04,6.6-2.04h7.44v5.56c-.61,1.53-1.88,2.92-3.81,4.15-2,1.28-4.29,1.92-6.79,1.92-1.97,0-3.45-.45-4.4-1.34-.95-.88-1.41-2.07-1.41-3.63,0-1.77,.78-3.28,2.37-4.62Z"/><path d="M479.13,188.97c-2.6-1.96-6.57-3.52-11.81-4.65-4.11-.86-5.81-1.73-6.5-2.3-.92-.76-1.37-1.78-1.37-3.12s.53-2.54,1.63-3.52c1.11-1,2.88-1.5,5.28-1.5,2.24,0,3.98,.62,5.32,1.88,1.32,1.25,1.97,2.62,1.97,4.16v.88h8.58l.27-.83,.04-.24c.13-3.75-1.31-6.96-4.3-9.56-2.95-2.56-6.94-3.86-11.87-3.86s-8.58,1.24-11.54,3.69c-3,2.49-4.53,5.56-4.53,9.12s1.38,6.23,4.1,8.23c2.58,1.91,6.45,3.43,11.48,4.52,3.3,.74,5.55,1.6,6.67,2.56,1.04,.89,1.55,1.98,1.55,3.36,0,1.44-.61,2.58-1.87,3.48-1.33,.95-3.24,1.43-5.67,1.43-2.27,0-4.27-.56-5.95-1.67-1.6-1.05-2.43-2.71-2.54-5.05l-.04-.83h-8.53l-.28,.82-.04,.24c-.16,3.77,1.37,7.1,4.54,9.9,3.13,2.76,7.45,4.17,12.84,4.17,4.89,0,8.92-1.19,11.98-3.53,3.13-2.39,4.72-5.58,4.72-9.46,0-3.46-1.38-6.25-4.11-8.31Z"/><path d="M517.86,195.9l-.67-2.59-8.79-26.26h-10.17l15.44,40.71-1.64,3.94c-.65,1.63-1.46,3.13-2.42,4.48-.84,1.17-1.87,1.74-3.16,1.74-.17,0-.64-.02-1.91-.11-1.73-.12-2.19-.16-2.29,.69l-.82,6.6,.75,.19c.53,.13,1.25,.27,2.23,.41,.96,.14,1.78,.22,2.42,.22,3.49,0,6.32-1.12,8.4-3.32,1.99-2.11,3.54-4.61,4.6-7.44l17.54-48.1h-10.12l-9.39,28.85Z"/><path d="M576.1,177.23c-4.65-1.17-8.04-2.53-10.07-4.04-1.91-1.43-2.84-3.15-2.84-5.26,0-2.44,.86-4.35,2.64-5.86,1.8-1.52,4.46-2.29,7.91-2.29,3.71,0,6.58,.92,8.52,2.73,1.95,1.83,2.9,4.16,2.9,7.14v.88h8.57l.28-.82,.05-.25c.13-4.58-1.69-8.65-5.41-12.1-3.7-3.42-8.71-5.16-14.9-5.16-5.75,0-10.51,1.51-14.15,4.49-3.69,3.03-5.57,6.85-5.57,11.38s1.75,7.96,5.19,10.81c3.34,2.76,8.02,4.88,13.91,6.28,4.62,1.11,7.86,2.47,9.62,4.04,1.7,1.52,2.53,3.36,2.53,5.61,0,2.42-.95,4.28-2.91,5.68-2.02,1.45-4.83,2.19-8.36,2.19s-6.66-.87-9.08-2.58c-2.36-1.67-3.5-4.06-3.5-7.29v-.88h-8.57l-.28,.82-.05,.26c-.13,5.25,2.05,9.5,6.48,12.64,4.33,3.06,9.38,4.62,15,4.62,5.98,0,10.91-1.41,14.66-4.2,3.83-2.84,5.77-6.66,5.77-11.34,0-4.35-1.61-8.04-4.79-10.98-3.1-2.87-7.66-5.07-13.54-6.52Z"/><path d="M631.85,201.96c-.36,.13-.77,.25-1.23,.34-.46,.09-.88,.13-1.24,.13-1.07,0-1.9-.3-2.53-.92-.61-.6-.92-1.75-.92-3.4v-23.83h7.71v-7.24h-7.71v-9.81h-9.16v9.81h-6.47v7.24h6.47v23.83c0,4.1,.98,7.19,2.92,9.17,1.94,1.98,4.57,2.99,7.81,2.99,1.15,0,2.31-.16,3.44-.46,1.2-.33,2.1-.74,2.75-1.28l.4-.33-1.27-6.61-.97,.36Z"/><path d="M686.89,204.52c-.15-1.31-.22-2.69-.22-4.11v-19.59c0-4.66-1.52-8.3-4.53-10.8-2.96-2.47-6.89-3.72-11.69-3.72s-8.88,1.31-11.97,3.89c-3.15,2.63-4.67,5.6-4.5,8.84l.32,1.06h8.58v-.88c0-1.44,.63-2.65,1.92-3.7,1.32-1.08,3.09-1.63,5.26-1.63,2.41,0,4.28,.62,5.56,1.84,1.29,1.23,1.91,2.88,1.91,5.03v3.15h-7.17c-5.55,0-10.02,1.16-13.3,3.45-3.38,2.36-5.09,5.67-5.09,9.83s1.21,7.26,3.59,9.59c2.38,2.32,5.84,3.5,10.29,3.5,2.7,0,5.26-.71,7.61-2.1,1.62-.96,3.03-2.09,4.24-3.39,.03,.23,.06,.47,.09,.7,.14,.98,.34,2.09,.59,3.3l.14,.7h9.53l-.35-1.13c-.38-1.24-.65-2.53-.79-3.82Zm-23.41-11.83c1.62-1.36,3.84-2.04,6.6-2.04h7.43v5.56c-.61,1.53-1.89,2.92-3.81,4.15-2,1.28-4.29,1.92-6.79,1.92-1.97,0-3.45-.45-4.4-1.34-.95-.88-1.41-2.07-1.41-3.63,0-1.77,.78-3.28,2.37-4.62Z"/><path d="M742.02,182.82l.27-.83,.04-.25c.11-4.33-1.46-8.03-4.66-11-3.18-2.95-7.3-4.45-12.27-4.45-6.14,0-10.93,2.06-14.23,6.13-3.26,4.01-4.92,9.08-4.92,15.05v1.58c0,6.02,1.65,11.1,4.89,15.1,3.29,4.06,8.09,6.11,14.25,6.11,4.5,0,8.5-1.45,11.9-4.3,3.45-2.9,5.13-6.29,4.99-10.06l-.31-1.07h-8.17v.88c0,1.95-.81,3.55-2.48,4.91-1.72,1.4-3.66,2.08-5.93,2.08-3.61,0-6.1-1.22-7.6-3.72-1.56-2.62-2.36-5.96-2.36-9.93v-1.58c0-3.88,.8-7.18,2.38-9.82,1.51-2.53,3.99-3.76,7.58-3.76,2.46,0,4.44,.77,6.04,2.36,1.6,1.59,2.37,3.46,2.37,5.71v.88h8.2Z"/><polygon points="781.41 186.4 796 167.05 784.91 167.05 773.78 183.06 770.37 183.06 770.37 149.08 761.22 149.08 761.22 209.48 770.37 209.48 770.37 190.64 773.86 190.64 787.05 209.48 797.93 209.48 781.41 186.4"/></g></g></g></g></g></svg>