<svg id="图层_1" data-name="图层 1" xmlns="http://www.w3.org/2000/svg" viewBox="0 0 790.3 189.99"><defs><style>.cls-1{fill:#00785a;}.cls-2{fill:#fff;}</style></defs><title>eolink</title><path d="M485.07,21.81h25.61v145H485.07Z"/><polygon points="769.7 63.02 734.16 63.02 699.39 97.61 699.39 21.81 674.32 21.81 674.32 166.85 699.39 166.85 699.39 133.63 733.32 167.38 768.86 167.38 716.83 115.62 769.7 63.02"/><path d="M524.49,63h25.6V167.38h-25.6Z"/><path d="M524.49,21.81h25.6V46.6h-25.6Z"/><path d="M419.16,60.11a55.16,55.16,0,1,0,55.16,55.16A55.17,55.17,0,0,0,419.16,60.11Zm0,85.09A29.87,29.87,0,1,1,449,115.34,29.86,29.86,0,0,1,419.16,145.2Z"/><path d="M333.78,127.53h21.07a55.16,55.16,0,1,0-53.76,42.83,55,55,0,0,0,41.22-18.52l-26.37-10.66a29.86,29.86,0,0,1-42.09-13.65h59.93ZM301.09,85.4a29.87,29.87,0,0,1,27,17.17H274.05A29.87,29.87,0,0,1,301.09,85.4Z"/><path d="M617.53,60.46h0A42.78,42.78,0,0,0,589,70.69V63.16h-25.6V167.52H589V104.19a24.19,24.19,0,0,1,23.61-19h0a24.18,24.18,0,0,1,24.18,24.17v58.12h25.3v-60.4C662.07,83.12,643.24,60.46,617.53,60.46Z"/><path class="cls-1" d="M139.71,5.34H68.87A26.79,26.79,0,0,0,45.63,18.8L10.09,80.69a26.78,26.78,0,0,0,0,26.69l35.54,61.9a26.81,26.81,0,0,0,23.24,13.46h70.84A26.81,26.81,0,0,0,163,169.28l35.55-61.9a26.83,26.83,0,0,0,0-26.69L163,18.8A26.79,26.79,0,0,0,139.71,5.34Z"/><path class="cls-2" d="M105,132.22H84.54L70.83,108.47h56.69a12.25,12.25,0,0,0,12.25-12.24h0A12.25,12.25,0,0,0,127.52,84H70L84.32,59.12H105a12.24,12.24,0,0,0,0-24.48H78.75a12.19,12.19,0,0,0-8.28,2l-.32.22c-.14.1-.27.19-.4.3A12.2,12.2,0,0,0,65.94,42L39,88.62a12.23,12.23,0,0,0-.45,12.94L66.83,150.5a12.21,12.21,0,0,0,9.83,6.09,11.31,11.31,0,0,0,1.55.11H105a12.24,12.24,0,0,0,12.24-12.24h0A12.24,12.24,0,0,0,105,132.22Z"/><circle class="cls-2" cx="139.87" cy="46.8" r="12.55" transform="translate(-7.01 33.39) rotate(-13.28)"/><circle class="cls-2" cx="162.34" cy="96.23" r="12.55" transform="translate(-17.77 39.87) rotate(-13.28)"/><circle class="cls-2" cx="139.87" cy="143.53" r="12.55" transform="matrix(0.97, -0.23, 0.23, 0.97, -29.24, 35.98)"/></svg>