<?xml version="1.0" encoding="UTF-8" standalone="no"?>
<svg
   xmlns:dc="http://purl.org/dc/elements/1.1/"
   xmlns:cc="http://creativecommons.org/ns#"
   xmlns:rdf="http://www.w3.org/1999/02/22-rdf-syntax-ns#"
   xmlns:svg="http://www.w3.org/2000/svg"
   xmlns="http://www.w3.org/2000/svg"
   xmlns:sodipodi="http://sodipodi.sourceforge.net/DTD/sodipodi-0.dtd"
   xmlns:inkscape="http://www.inkscape.org/namespaces/inkscape"
   version="1.1"
   id="svg2"
   xml:space="preserve"
   width="2560"
   height="1440"
   viewBox="0 0 2560 1440"
   sodipodi:docname="GrowingIO橘.ai"><metadata
     id="metadata8"><rdf:RDF><cc:Work
         rdf:about=""><dc:format>image/svg+xml</dc:format><dc:type
           rdf:resource="http://purl.org/dc/dcmitype/StillImage" /></cc:Work></rdf:RDF></metadata><defs
     id="defs6"><clipPath
       clipPathUnits="userSpaceOnUse"
       id="clipPath18"><path
         d="M 0,1080 H 1920 V 0 H 0 Z"
         id="path16" /></clipPath></defs><sodipodi:namedview
     pagecolor="#ffffff"
     bordercolor="#666666"
     borderopacity="1"
     objecttolerance="10"
     gridtolerance="10"
     guidetolerance="10"
     inkscape:pageopacity="0"
     inkscape:pageshadow="2"
     inkscape:window-width="640"
     inkscape:window-height="480"
     id="namedview4" /><g
     id="g10"
     inkscape:groupmode="layer"
     inkscape:label="GrowingIO橘"
     transform="matrix(1.3333333,0,0,-1.3333333,0,1440)"><g
       id="g12"><g
         id="g14"
         clip-path="url(#clipPath18)"><g
           id="g20"
           transform="translate(738.08,555.99)"><path
             d="m 0,0 c 0,-5.07 -0.66,-9.97 -1.88,-14.62 -6.02,-22.83 -25.8,-39.6 -49.32,-39.6 -28.29,0 -51.26,24.29 -51.26,54.22 0,29.93 22.97,54.17 51.26,54.17 15.83,0 29.99,-7.6 39.43,-19.55 0,0 0,-0.06 0.06,-0.12 -7.76,-7.59 -15.08,-8.86 -16.92,-9.04 0,0.06 -0.06,0.12 -0.13,0.12 -5.86,5.84 -13.81,9.44 -22.44,9.44 -18.26,0 -33.04,-15.89 -33.04,-35.37 0,-19.53 14.78,-35.3 33.04,-35.3 13.51,0 25.17,8.63 30.21,21.03 h -29.793 c 0.22,10.7 5.12,17.73 5.41,18.08 l 0.01,0.02 H -0.1 V 3.44 C -0.06,2.29 0,1.14 0,0"
             style="fill:#191140;fill-opacity:1;fill-rule:nonzero;stroke:none"
             id="path22" /></g><g
           id="g24"
           transform="translate(835.0169,531.261)"><path
             d="m 0,0 c -0.812,-2.153 -1.99,-4.062 -3.493,-5.768 -1.463,-1.665 -3.209,-2.925 -5.159,-3.818 -1.99,-0.975 -4.103,-1.422 -6.296,-1.422 -2.194,0 -4.306,0.447 -6.337,1.422 -1.909,0.893 -3.655,2.153 -5.158,3.818 -1.463,1.706 -2.641,3.615 -3.494,5.768 -0.812,2.234 -1.259,4.59 -1.259,7.027 0,2.437 0.447,4.753 1.259,6.987 0.853,2.153 2.031,4.102 3.494,5.768 1.503,1.625 3.249,2.924 5.158,3.818 2.031,0.975 4.143,1.462 6.337,1.462 2.193,0 4.306,-0.487 6.296,-1.462 1.95,-0.894 3.696,-2.193 5.159,-3.818 C -1.99,18.116 -0.812,16.167 0,14.014 0.853,11.78 1.3,9.464 1.3,7.027 1.3,4.59 0.853,2.234 0,0 m 16.695,21.204 c -1.706,4.346 -4.144,8.205 -7.353,11.617 -3.168,3.33 -6.783,5.93 -10.926,7.758 -4.225,1.95 -8.693,2.925 -13.364,2.925 -4.671,0 -9.139,-0.975 -13.364,-2.925 -4.102,-1.828 -7.758,-4.428 -10.967,-7.758 -3.168,-3.412 -5.646,-7.271 -7.352,-11.617 -1.828,-4.509 -2.722,-9.262 -2.722,-14.217 0,-4.956 0.894,-9.708 2.722,-14.217 1.706,-4.346 4.184,-8.246 7.352,-11.617 3.209,-3.372 6.865,-5.931 10.967,-7.799 4.225,-1.909 8.693,-2.884 13.364,-2.884 4.671,0 9.139,0.975 13.364,2.884 4.143,1.868 7.758,4.427 10.926,7.799 3.209,3.371 5.647,7.271 7.353,11.617 1.828,4.509 2.762,9.261 2.762,14.217 0,4.955 -0.934,9.708 -2.762,14.217"
             style="fill:#191140;fill-opacity:1;fill-rule:nonzero;stroke:none"
             id="path26" /></g><g
           id="g28"
           transform="translate(1234.6306,520.172)"><path
             d="m 0,0 c -18.279,0 -33.064,15.801 -33.064,35.339 0,19.497 14.785,35.38 33.064,35.38 18.238,0 33.024,-15.883 33.024,-35.38 C 33.024,15.801 18.238,0 0,0 m 0,89.85 c -28.312,0 -51.262,-24.25 -51.262,-54.186 0,-29.937 22.95,-54.186 51.262,-54.186 28.271,0 51.221,24.249 51.221,54.186 C 51.221,65.6 28.271,89.85 0,89.85"
             style="fill:#fc5f3a;fill-opacity:1;fill-rule:nonzero;stroke:none"
             id="path30" /></g><g
           id="g32"
           transform="translate(1173.7653,609.6314)"><path
             d="m 0,0 v -107.977 h -18.151 v 102.7 C -9.394,0.232 -2.262,0.232 0,0"
             style="fill:#fc5f3a;fill-opacity:1;fill-rule:nonzero;stroke:none"
             id="path34" /></g><g
           id="g36"
           transform="translate(1124.7887,531.2968)"><path
             d="m 0,0 c -0.809,-2.184 -1.982,-4.065 -3.478,-5.763 -1.072,-1.214 -2.245,-2.184 -3.499,-2.973 -0.525,-0.283 -1.092,-0.607 -1.658,-0.849 -2.002,-0.971 -4.105,-1.456 -6.309,-1.456 -2.225,0 -4.307,0.485 -6.329,1.456 -0.567,0.242 -1.093,0.566 -1.639,0.849 -1.294,0.789 -2.467,1.759 -3.518,2.973 -1.476,1.698 -2.69,3.579 -3.499,5.763 -0.809,2.204 -1.254,4.59 -1.254,6.997 0,0.242 0,0.485 0.041,0.728 0.04,2.224 0.485,4.307 1.213,6.289 0.809,2.123 2.023,4.105 3.499,5.763 1.496,1.638 3.235,2.932 5.157,3.822 2.022,0.93 4.104,1.436 6.329,1.436 2.204,0 4.307,-0.506 6.309,-1.436 1.942,-0.89 3.64,-2.184 5.157,-3.822 C -1.982,18.119 -0.809,16.137 0,14.014 0.748,12.032 1.193,9.949 1.274,7.725 1.314,7.482 1.314,7.239 1.314,6.997 1.314,4.59 0.829,2.204 0,0 m 1.264,-26.107 c -0.061,-2.143 -0.465,-4.226 -1.213,-6.208 -0.83,-2.144 -2.043,-4.044 -3.539,-5.804 -1.456,-1.618 -3.195,-2.892 -5.177,-3.822 -1.962,-0.93 -4.044,-1.395 -6.249,-1.395 -2.204,0 -4.287,0.465 -6.329,1.395 -0.93,0.405 -1.8,0.93 -2.609,1.578 -0.121,0 -0.162,0.06 -0.223,0.161 -2.143,-0.101 -9.463,-1.031 -17.572,-8.048 v -0.061 c 0.687,-0.991 1.557,-1.982 2.365,-2.851 3.256,-3.357 6.916,-5.966 10.961,-7.826 4.246,-1.921 8.716,-2.892 13.407,-2.892 4.631,0 9.1,0.971 13.327,2.892 0.991,0.465 1.981,0.93 2.912,1.456 2.952,1.678 5.621,3.822 8.048,6.37 3.195,3.377 5.622,7.26 7.32,11.607 1.841,4.51 2.771,9.282 2.771,14.196 v 65.5 C 10.546,45.661 3.347,45.48 1.325,45.257 V 39.13 c -0.951,0.526 -1.921,1.011 -2.892,1.415 -4.227,1.942 -8.736,2.973 -13.367,2.973 -4.671,0 -9.141,-1.031 -13.407,-2.973 -4.065,-1.82 -7.705,-4.388 -10.92,-7.725 -3.175,-3.397 -5.642,-7.3 -7.361,-11.647 -1.82,-4.51 -2.71,-9.222 -2.71,-14.217 0,-4.914 0.89,-9.666 2.71,-14.216 0.202,-0.485 0.404,-1.031 0.667,-1.516 1.618,-3.681 3.883,-7.098 6.694,-10.112 2.426,-2.548 5.156,-4.63 8.129,-6.329 0.89,-0.526 1.82,-1.011 2.791,-1.416 4.266,-1.961 8.736,-2.932 13.407,-2.932 4.631,0 9.14,0.971 13.367,2.932 0.971,0.405 1.941,0.89 2.851,1.416 z"
             style="fill:#191140;fill-opacity:1;fill-rule:nonzero;stroke:none"
             id="path38" /></g><g
           id="g40"
           transform="translate(1067.843,546.7261)"><path
             d="m 0,0 v -44.994 h -18.159 v 36.481 c 0,0.242 0,0.485 -0.041,0.728 -0.081,2.184 -0.526,4.266 -1.253,6.248 -0.81,2.164 -1.982,4.105 -3.499,5.764 -1.496,1.637 -3.195,2.932 -5.157,3.821 -1.981,0.971 -4.105,1.477 -6.289,1.477 -2.123,0 -4.105,-0.465 -6.046,-1.355 -0.081,-0.041 -0.202,-0.081 -0.283,-0.122 -1.921,-0.889 -3.66,-2.184 -5.177,-3.821 -1.456,-1.659 -2.67,-3.6 -3.478,-5.764 -0.728,-1.982 -1.194,-4.064 -1.234,-6.248 -0.04,-0.243 -0.04,-0.486 -0.04,-0.728 v -36.501 h -18.14 v 69.827 c 8.919,5.5 16.118,5.318 18.14,5.096 v -8.494 c 4.671,3.62 10.394,5.986 16.622,6.552 0.931,0.081 1.861,0.122 2.852,0.122 4.631,0 9.039,-0.991 13.023,-2.771 C -9.019,21.213 -0.566,11.931 0,0"
             style="fill:#191140;fill-opacity:1;fill-rule:nonzero;stroke:none"
             id="path42" /></g><g
           id="g44"
           transform="translate(785.9869,573.743)"><path
             d="m 0,0 c 0,-1.456 -0.283,-3.539 -0.93,-6.33 -0.87,-4.63 -2.427,-8.412 -4.53,-11.304 -1.739,-0.121 -3.357,-0.586 -4.975,-1.395 -1.921,-0.87 -3.66,-2.144 -5.156,-3.761 -1.517,-1.679 -2.67,-3.661 -3.539,-5.804 -0.809,-2.204 -1.234,-4.53 -1.234,-6.957 v -36.42 h -18.139 v 69.767 c 6.431,3.943 11.891,4.914 15.187,5.096 1.395,0.06 2.447,0 2.952,0 v -6.269 c 0,0 9.282,5.622 20.303,4.004 C 0,0.404 0,0.222 0,0"
             style="fill:#191140;fill-opacity:1;fill-rule:nonzero;stroke:none"
             id="path46" /></g><g
           id="g48"
           transform="translate(963.0924,574.8568)"><path
             d="m 0,0 -25.992,-72.316 c -3.203,-0.67 -6.405,-0.968 -9.682,-0.968 -3.053,0 -6.032,0.298 -8.937,0.968 L -56.08,-32.62 -67.549,-72.018 c -3.203,-0.67 -6.405,-0.968 -9.533,-0.968 -3.054,0 -6.033,0.298 -8.937,0.819 L -112.012,0 h 19.29 l 15.789,-44.239 11.767,42.824 h 18.172 l 11.618,-42.824 15.938,44.165 z"
             style="fill:#191140;fill-opacity:1;fill-rule:nonzero;stroke:none"
             id="path50" /></g><g
           id="g52"
           transform="translate(987.4631,603.5723)"><path
             d="m 0,0 v -16.23 c -10.77,-0.22 -17.851,-5.112 -18.201,-5.402 l -0.02,-0.01 v 16.23 l 0.02,0.01 C -17.851,-5.112 -10.77,-0.22 0,0"
             style="fill:#191140;fill-opacity:1;fill-rule:nonzero;stroke:none"
             id="path54" /></g><g
           id="g56"
           transform="translate(969.3,501.73)"><path
             d="M 0,0 H 18.16 V 74.91 C 7.39,74.69 0.31,69.79 -0.04,69.5 l -0.02,-0.01 z"
             style="fill:#191140;fill-opacity:1;fill-rule:nonzero;stroke:none"
             id="path58" /></g></g></g></g></svg>
