<svg xmlns="http://www.w3.org/2000/svg" viewBox="0 0 595 157.17"><defs><style>.cls-1{fill:#bd1d21;}.cls-1,.cls-2{fill-rule:evenodd;}.cls-2{fill:#231815;}</style></defs><title>华佑科技LOGO 横板</title><g id="图层_1" data-name="图层 1"><path class="cls-1" d="M107,20.15a60.27,60.27,0,0,1,11.63,1.13V52.36c0,10.47-3.91,23-12.66,29,16.63.1,28.39-6.95,36.21-21.19V31.53A60.1,60.1,0,0,1,93.28,138.74V108.4c0-10.06,3.91-21.39,12.66-27.08-17-1-28.39,5.91-36.22,19.61v26.44A60.08,60.08,0,0,1,107,20.15Zm35.47,97.91-.11-54.16c-3.62,10.93-10.66,20.62-22.1,22.72V130.1c8.74-2.53,16.23-6.46,22.21-12ZM69.78,43.58l.1,53.33c3.21-10.82,11-20.13,22.47-22.23V31.2A56,56,0,0,0,69.78,43.58Z"/><path class="cls-2" d="M207.3,46.59l6.39-12.79H201.93l-3.84,7.08C197.41,42.26,196,43,194,43h-2.95l1.64,8.73h5.78V71.76H210V48.1h-3.5c.27-.46.55-1,.82-1.51Zm11.56,30.18V69.55h4.74a6.83,6.83,0,0,1-2-5.36V56.08h-5.77l-1.66-8.73h7.43V33.8h11.49V47.35h2.6c2.07-.05,3.4-.72,4-2l5-10.17h11.47l-7.41,15.88q-2.42,5-7.23,5h-8.45v3.85a1.5,1.5,0,0,0,1.71,1.71h22.48v9.28H230.33v5.85h27.51v9.28H230.33v14.3H218.86V86.05H191V76.77Zm79-20.55,6.19-23H292.54L288.07,50A2.38,2.38,0,0,1,285.53,52h-.68l1.64,9.28h2.2v39.33h11.48v-44h-2.48c.05-.14.1-.28.14-.41ZM350,93.89q-.06,6.74-6.74,6.74H308.77V75.87h-4.13L303,66.59h2.6a2.4,2.4,0,0,0,2.55-2.12L313.3,50h-9V40.74h12.44l2.76-7.5h12l-2.67,7.5h23.3V50H325.54l-4.12,11.62H350V93.89Zm-29.7-23V91.35h16.5a1.52,1.52,0,0,0,1.72-1.72V70.92Zm71-21.65H380.19v9.28h11.07v42.08h11.47V58.55h10.73V49.27H402.73V45.35h2.55a6.26,6.26,0,0,0,5-2.27,7.48,7.48,0,0,0,1.79-4.53V33.24H401.16v.36a3,3,0,0,1-.55,1.78,2.22,2.22,0,0,1-1.92.69H380.87l1.52,9.28h8.87v3.92Zm-8.8,12.85H389v31.5a6.18,6.18,0,0,1-1.38,3.58,5.25,5.25,0,0,1-4,1.78H381L379.5,89.7h.89a1.9,1.9,0,0,0,1.59-.62,2.18,2.18,0,0,0,.48-1.45V62.12Zm22.82,0h6.54v36h-6.54v-36ZM425.57,34.9h-9.28l2.33,12.52q1.67,5.36,6.95,5.36h4.12V44.59h-.2c-1.24,0-2-.46-2.21-1.37l-1.71-8.32Zm-.28,21.18H416l2.34,12.51Q420,74,425.29,74h4.4V65.77h-.48c-1.24,0-2-.46-2.2-1.37l-1.72-8.32ZM432,77.87V33.24h11.48V77.87h3.3v9.28h-3.3v13.48H432V87.15H416.22V77.87Zm60.42,15.82V73.61l4.67-1.3V61.37l-4.67,1.3V49.75h4.4V40.47h-4.4V33.24H480.89v7.23h-7.21v9.28h7.21v16l-7.21,1.93V78.63l7.21-1.92v12.1a2.76,2.76,0,0,1-.54,1.78,2.79,2.79,0,0,1-2,.76h-2.89l1.5,9.28h8.46a6.63,6.63,0,0,0,5.17-2.34,7.6,7.6,0,0,0,1.78-4.6Zm8.25-26.33h24.48l-5.51,7.83-3.29-4.27H502.62l10,14.24-2.9,4.13c-1,1.37-2.74,2.06-5.22,2.06h-6.06l1.52,9.28h10.66q4,0,8-4.88l.69-1.1.56.68a11,11,0,0,0,9.76,5.3h11.4V91.35h-6.87a3.77,3.77,0,0,1-3.3-1.72l-4-5.15,12.65-17.12V58.07H526.21V49.75h14.84V40.47H526.21V33.24H514.72v7.23H500.63v9.28h14.09v8.32H500.63Z"/><path class="cls-2" d="M192.46,132V110.73h4V119h7.23v-8.31h4v21.7h-4v-9.28h-7.23v9.28h-4V132Zm22.73-7.32v-14h4v13.64a7.86,7.86,0,0,0,.22,2,3.43,3.43,0,0,0,.63,1.33h0a2.49,2.49,0,0,0,1,.76,4.66,4.66,0,0,0,3.07,0,2.49,2.49,0,0,0,1-.76h0a3.5,3.5,0,0,0,.63-1.33,7.86,7.86,0,0,0,.22-2V110.73h4v14a12.65,12.65,0,0,1-.45,3.55,6.71,6.71,0,0,1-1.4,2.6h0a5.75,5.75,0,0,1-2.34,1.58,10.33,10.33,0,0,1-6.41,0,5.75,5.75,0,0,1-2.34-1.58h0a6.71,6.71,0,0,1-1.4-2.6,12.65,12.65,0,0,1-.45-3.55Zm36.12,7.74h-3.64l-.08-.31-.81-3h-6.72l-.76,3-.08.31h-4.08l.14-.53L241.11,111l.09-.31h2l.07-.82.1.82h2.21l.09.3,6,20.87.16.53Zm-5.62-7.33-2.29-8.77-2.26,8.77Zm8.87-14.37h3.87l.11.25,3.7,8.55L266,111l.11-.25h4.46l-.3.6-6.06,12.41v8.69h-4v-8.57l-6-12.54-.28-.59Zm28.43,18a3.77,3.77,0,0,0,1.86-.45,4.19,4.19,0,0,0,1.44-1.38,7.08,7.08,0,0,0,.94-2.27,12.72,12.72,0,0,0,.33-3,13.22,13.22,0,0,0-.32-3,7,7,0,0,0-.95-2.27,4.08,4.08,0,0,0-1.43-1.38,4.11,4.11,0,0,0-3.74,0,4.19,4.19,0,0,0-1.44,1.38,6.87,6.87,0,0,0-.95,2.27,14.26,14.26,0,0,0,0,6.1,6.87,6.87,0,0,0,.95,2.27,4.19,4.19,0,0,0,1.44,1.38,3.8,3.8,0,0,0,1.87.45Zm8.74-7.15a16.56,16.56,0,0,1-.58,4.57,10.76,10.76,0,0,1-1.79,3.62,8,8,0,0,1-2.8,2.37,8.48,8.48,0,0,1-7.15,0,8,8,0,0,1-2.81-2.37,10.7,10.7,0,0,1-1.78-3.61h0a16.21,16.21,0,0,1-.6-4.57,13.14,13.14,0,0,1,2.38-8.2,8.18,8.18,0,0,1,10-2.36,8,8,0,0,1,2.8,2.37,10.76,10.76,0,0,1,1.79,3.62,16.56,16.56,0,0,1,.58,4.57Zm6.46,3.08v-14h4v13.64a7.86,7.86,0,0,0,.22,2,3.5,3.5,0,0,0,.63,1.33h0a2.43,2.43,0,0,0,1,.76h0a4.66,4.66,0,0,0,3.07,0,2.49,2.49,0,0,0,1-.76h0a3.43,3.43,0,0,0,.63-1.33,8.34,8.34,0,0,0,.22-2V110.73h4v14a12.65,12.65,0,0,1-.45,3.55,6.84,6.84,0,0,1-1.4,2.6h0a5.75,5.75,0,0,1-2.34,1.58,10.33,10.33,0,0,1-6.41,0,5.85,5.85,0,0,1-2.35-1.58h0a6.71,6.71,0,0,1-1.4-2.6,12.65,12.65,0,0,1-.45-3.55Zm35.11-10.14v-3.82h14.08V115h-5v17.47H338.3V115h-5v-.41ZM354.23,132V110.73h13.21v4h-9.19v4.34h8.48v4h-8.48v5.2h9.56v4.08H354.23V132ZM390,126.44a12,12,0,0,1-1.22,2.78,8.06,8.06,0,0,1-1.73,2,6.81,6.81,0,0,1-2.2,1.26,8.13,8.13,0,0,1-2.62.41,7.88,7.88,0,0,1-3.55-.78,7.52,7.52,0,0,1-2.74-2.34,10.5,10.5,0,0,1-1.7-3.63h0a17.67,17.67,0,0,1-.57-4.69,16.67,16.67,0,0,1,.58-4.52,11,11,0,0,1,1.75-3.59h0a8,8,0,0,1,2.75-2.36,7.68,7.68,0,0,1,3.51-.79,8.41,8.41,0,0,1,2.76.43,6.64,6.64,0,0,1,2.25,1.32h0a7.53,7.53,0,0,1,1.66,2.13,11,11,0,0,1,1,2.87l.08.37-.36.11-3,.94-.43.13-.1-.43a6.16,6.16,0,0,0-.57-1.6h0a4.55,4.55,0,0,0-.88-1.18,3.5,3.5,0,0,0-1.1-.74,3.2,3.2,0,0,0-1.25-.24,3.27,3.27,0,0,0-1.72.47,4.44,4.44,0,0,0-1.42,1.44,7.58,7.58,0,0,0-1,2.28,11.85,11.85,0,0,0-.33,2.9,12.93,12.93,0,0,0,.33,3.06,7.56,7.56,0,0,0,1,2.33,4.39,4.39,0,0,0,1.44,1.44,3.5,3.5,0,0,0,1.8.47,3.12,3.12,0,0,0,1.26-.25,3.37,3.37,0,0,0,1.1-.75,5.12,5.12,0,0,0,.92-1.25,8.15,8.15,0,0,0,.65-1.69l.12-.5.46.23,2.89,1.43.32.15-.11.34Zm6.79,5.57V110.73h4V119h7.23v-8.31h4v21.7h-4v-9.28h-7.23v9.28h-4V132Zm23,0V110.73h3.72l.11.22,7,13.29V110.73h3.94v21.7H431l-.11-.22-7.08-13.37v13.59h-3.94V132Zm30.28-3.25a3.77,3.77,0,0,0,1.86-.45,4.19,4.19,0,0,0,1.44-1.38,7.08,7.08,0,0,0,.94-2.27,12.72,12.72,0,0,0,.33-3,13.22,13.22,0,0,0-.32-3,7.21,7.21,0,0,0-.94-2.27,4.19,4.19,0,0,0-1.44-1.38,3.78,3.78,0,0,0-1.87-.45,3.83,3.83,0,0,0-1.87.45,4.19,4.19,0,0,0-1.44,1.38,7.09,7.09,0,0,0-.95,2.27,14.26,14.26,0,0,0,0,6.1,7.09,7.09,0,0,0,.95,2.27,4.19,4.19,0,0,0,1.44,1.38,3.83,3.83,0,0,0,1.87.45Zm8.74-7.15a16.56,16.56,0,0,1-.58,4.57,10.76,10.76,0,0,1-1.79,3.62,8,8,0,0,1-2.8,2.37,8.48,8.48,0,0,1-7.15,0,8,8,0,0,1-2.81-2.37,10.7,10.7,0,0,1-1.78-3.61h0a16.22,16.22,0,0,1-.59-4.57,13.14,13.14,0,0,1,2.37-8.2,7.85,7.85,0,0,1,2.81-2.36,7.92,7.92,0,0,1,9.95,2.37,10.76,10.76,0,0,1,1.79,3.62,16.56,16.56,0,0,1,.58,4.57Zm6.88,10.4V110.73h4.07v17.59h7.43v4.11h-11.5V132Zm25.12-3.25a3.77,3.77,0,0,0,1.86-.45,4.19,4.19,0,0,0,1.44-1.38,7.08,7.08,0,0,0,.94-2.27,12.72,12.72,0,0,0,.33-3,9.71,9.71,0,0,0-1.26-5.32h0a4.19,4.19,0,0,0-1.44-1.38,4.11,4.11,0,0,0-3.74,0,4.28,4.28,0,0,0-1.44,1.38,7.33,7.33,0,0,0-1,2.27,14.7,14.7,0,0,0,0,6.1,7.33,7.33,0,0,0,1,2.27,4.28,4.28,0,0,0,1.44,1.38,3.8,3.8,0,0,0,1.87.45Zm8.74-7.15a16.56,16.56,0,0,1-.58,4.57,10.76,10.76,0,0,1-1.79,3.62,8,8,0,0,1-2.8,2.37,8.48,8.48,0,0,1-7.15,0,8,8,0,0,1-2.81-2.37,10.7,10.7,0,0,1-1.78-3.61h0a16.21,16.21,0,0,1-.6-4.57,13.14,13.14,0,0,1,2.38-8.2,8.18,8.18,0,0,1,10-2.36,8,8,0,0,1,2.8,2.37A10.76,10.76,0,0,1,499,117a16.56,16.56,0,0,1,.58,4.57Zm22.65-.86v11.68H518.5v-1a3.92,3.92,0,0,1-.32.25h0a5.81,5.81,0,0,1-1.21.69,6.8,6.8,0,0,1-1.37.41,7.37,7.37,0,0,1-1.51.14,7.84,7.84,0,0,1-3.55-.79,8,8,0,0,1-2.8-2.34,10.52,10.52,0,0,1-1.79-3.59,15.86,15.86,0,0,1-.59-4.52,16.67,16.67,0,0,1,.6-4.64,11.09,11.09,0,0,1,1.83-3.67,8.18,8.18,0,0,1,2.87-2.41,8.86,8.86,0,0,1,6.31-.4,7.27,7.27,0,0,1,2.24,1.21,8.18,8.18,0,0,1,1.75,2,11.32,11.32,0,0,1,1.22,2.67l.11.34L522,117l-2.82,1.39-.42.2-.15-.44a7.69,7.69,0,0,0-.77-1.63,5.19,5.19,0,0,0-1-1.17,3.7,3.7,0,0,0-2.52-.94,3.79,3.79,0,0,0-1.87.47h0a4.83,4.83,0,0,0-1.52,1.45,7.25,7.25,0,0,0-1,2.29,11.51,11.51,0,0,0-.35,2.94,12.4,12.4,0,0,0,.35,3.07,6.84,6.84,0,0,0,1,2.29h0a4.37,4.37,0,0,0,1.54,1.41h0a4.54,4.54,0,0,0,3.64.15,3.6,3.6,0,0,0,1.28-.93h0a4.32,4.32,0,0,0,.84-1.46,5.85,5.85,0,0,0,.28-1.58h-4.29v-4.14h8.08v.41Zm4.87-10H531l.11.25,3.7,8.55,3.75-8.55.11-.25h4.46l-.29.6-6.07,12.41v8.69h-4v-8.57l-6-12.54-.28-.59Z"/></g></svg>