<svg xmlns="http://www.w3.org/2000/svg" xmlns:xlink="http://www.w3.org/1999/xlink" viewBox="0 0 258.36 102.92"><defs><style>.cls-1{fill:none;}.cls-2{fill:#d73533;}.cls-3{fill:url(#未命名的渐变_13);}.cls-4{clip-path:url(#clip-path);}.cls-5{fill:url(#未命名的渐变_13-2);}.cls-6{fill:#dc3c3a;}.cls-7{fill:url(#未命名的渐变_13-3);}.cls-8{fill:url(#未命名的渐变_13-4);}.cls-9{clip-path:url(#clip-path-2);}.cls-10{fill:url(#未命名的渐变_13-5);}</style><linearGradient id="未命名的渐变_13" x1="44.68" y1="4.8" x2="43.84" y2="101.92" gradientUnits="userSpaceOnUse"><stop offset="0" stop-color="#e74a49"/><stop offset="1" stop-color="#d73533"/></linearGradient><clipPath id="clip-path" transform="translate(0.01)"><path class="cls-1" d="M82.4,64.68a38.24,38.24,0,0,1-76.48,0c0-11.84,4.95-23.7,17.27-32.81C44.16,16.38,42,0,42,0S59.33,11.75,60.11,28.44C61.22,52.14,38.68,57,47.43,67.88c6.55,8.19,27.35-6,25.74-27.38C79.88,47.2,82.42,53.33,82.4,64.68Z"/></clipPath><linearGradient id="未命名的渐变_13-2" x1="40.58" y1="72.52" x2="67.93" y2="7.5" xlink:href="#未命名的渐变_13"/><linearGradient id="未命名的渐变_13-3" x1="67.4" y1="32.71" x2="68.75" y2="24.87" xlink:href="#未命名的渐变_13"/><linearGradient id="未命名的渐变_13-4" x1="40.1" y1="9.07" x2="-3.81" y2="56.7" xlink:href="#未命名的渐变_13"/><clipPath id="clip-path-2" transform="translate(0.01)"><path class="cls-1" d="M38.59.1S37.2,10.46,32.68,16.48C26.73,24.38,21.75,25.77,13.33,33,5.92,39.3,1.13,54.14,3,63.88c1.63-.44,3.16-16.86,10-25s18.54-13.5,23.2-22.21A23.8,23.8,0,0,0,38.59.1Z"/></clipPath><linearGradient id="未命名的渐变_13-5" x1="-0.3" y1="56.45" x2="38.4" y2="-3.83" xlink:href="#未命名的渐变_13"/></defs><g id="图层_2" data-name="图层 2"><g id="图层_1-2" data-name="图层 1"><path class="cls-2" d="M156.63,11.21V41.35l27.05,42.12H163.56L146.76,60l-15,23.51H111l25.54-42.12V11.21Zm-28.26,7.38,4.83,25.24H117.45l-4.6-25.24Zm51.85,0-4.6,25.24h-15.9l5-25.24Z" transform="translate(0.01)"/><path class="cls-2" d="M206.89,30.19h9.79l-9.34,34.36h5.88V70H190l-.9.15L197,43.53h-9.65l9-29.23h13l-7.69,24h2.72ZM189.94,75.93h23.35v4.9H189.94Zm57.49-28.56,2.86,11.83,8.06-2.63v5.72l-6.7,2.19,4.59,19H238.16l-3.24-13.64L221.36,74.2V68.62l12.35-4L230,49.11l-11.53,1.2V45.19l10.33-1.06-3-12.73h-5.57V26.28h4.37l-3.55-14.85h17.64l3.61,14.85h14.55V31.4H243.59l2.63,10.93L258.35,41v5.2Zm-2.19-24.18-2.48-11.38h10l2.56,11.38Z" transform="translate(0.01)"/><path class="cls-3" d="M82.4,64.68a38.24,38.24,0,0,1-76.48,0c0-11.84,4.95-23.7,17.27-32.81C44.16,16.38,42,0,42,0S59.33,11.75,60.11,28.44C61.22,52.14,38.68,57,47.43,67.88c6.55,8.19,27.35-6,25.74-27.38C79.88,47.2,82.42,53.33,82.4,64.68Z" transform="translate(0.01)"/><g class="cls-4"><path class="cls-5" d="M42.07,0S58.5,19.83,46.62,38.33c-7.43,11.58-22.16,28-1,39.9C64.08,88.55,82.48,59.18,73.28,40.5,71.34,58.68,58.09,72.35,50.83,65.8c-8.64-7.81,13.69-15,10.88-39.35C59.93,11,42.07,0,42.07,0Z" transform="translate(0.01)"/></g><circle class="cls-6" cx="69.1" cy="28.76" r="3.98"/><path class="cls-7" d="M67.87,28.76A4,4,0,0,1,70.47,25a3.94,3.94,0,0,0-1.38-.26,4,4,0,0,0,0,8,3.94,3.94,0,0,0,1.38-.26A4,4,0,0,1,67.87,28.76Z" transform="translate(0.01)"/><path class="cls-8" d="M38.6.07A47.94,47.94,0,0,1,24.64,17c-7.42,5.36-15.79,8.43-21.8,19.89C-3,48,1.76,61.36,3,63.85c1.42-6.12,4.2-17.51,7-22.07C16,31.94,26.75,29.08,34,18,40.08,8.72,38.6.07,38.6.07Z" transform="translate(0.01)"/><g class="cls-9"><path class="cls-10" d="M38.59.1A47.94,47.94,0,0,1,24.63,17c-7.42,5.36-15.79,8.42-21.8,19.89C-3,48,1.75,61.38,3,63.88c1.42-6.13,4.2-17.52,7-22.07C16,32,26.74,29.1,34,18,40.07,8.75,38.59.1,38.59.1Z" transform="translate(0.01)"/></g></g></g></svg>