<svg width="197" height="48" viewBox="0 0 197 48" fill="none" xmlns="http://www.w3.org/2000/svg">
<path d="M79.6659 47.1584C79.963 46.6419 79.963 45.998 79.6659 45.4815L66.9079 23.1657C66.9079 23.1657 66.9079 23.1593 66.9016 23.1593L54.1627 0.869049C54.0868 0.735154 53.9983 0.607636 53.8845 0.492869C53.2902 -0.10647 52.3546 -0.163853 51.6971 0.346222C51.4884 0.505621 51.3304 0.709651 51.2229 0.932809L39.9444 20.6408L28.6405 0.869049C28.5646 0.735154 28.4761 0.607636 28.3623 0.492869C27.7681 -0.10647 26.8324 -0.163853 26.1749 0.346222C25.9663 0.505621 25.8082 0.709651 25.7008 0.932809L12.9871 23.1593L12.9934 23.1657H12.9871L12.9302 23.2677L12.9239 23.2741L0.222853 45.4815C-0.0742842 45.998 -0.0742842 46.6419 0.222853 47.1584C0.519989 47.6748 1.07001 48 1.66428 48H27.1864C27.7807 48 28.3307 47.6812 28.6279 47.1584L39.9507 27.3611L51.2672 47.1584C51.5643 47.6748 52.1143 48 52.7086 48H78.2308C78.825 48 79.3687 47.6812 79.6659 47.1584ZM4.54714 44.6399L14.4285 27.3675L24.3036 44.6399H4.54714ZM27.1864 42.9566L16.3441 24.001L27.1864 5.04529L38.0288 24.001L27.1864 42.9566ZM41.8663 24.001L52.7086 5.04529L63.5509 24.001L52.7086 42.9566L41.8663 24.001ZM55.5915 44.6399L65.4728 27.3675L75.3479 44.6399H55.5915Z" fill="#E8471C"/>
<path fill-rule="evenodd" clip-rule="evenodd" d="M175.21 26.5062V19.5015C174.211 18.6956 172.908 17.7166 172.047 17.1757C174.763 15.3258 177.307 12.2589 178.682 9.15961L183.528 10.5064C183.357 10.8797 183.147 11.2799 182.943 11.6531H187.067L187.79 11.4855L191.091 13.3732C190.505 14.482 189.716 15.764 188.822 16.9756H194.22V26.5062H191.505C192.327 27.0741 193.188 27.7827 193.668 28.356L190.919 30.5467C190.334 29.7732 189.065 28.6643 187.999 27.9558L189.887 26.5062H187.723V30.2059C187.723 31.1849 187.895 31.2498 188.855 31.2498H191.295C192.051 31.2498 192.255 31.0172 192.36 29.4324C193.221 30.0382 195.043 30.6765 196.246 30.9469C195.727 34.2139 194.557 35.1226 191.775 35.1226H188.165C184.246 35.1226 183.352 33.9435 183.319 30.4763C181.668 32.3641 179.3 33.9489 175.861 35.1605C175.414 34.0841 174.244 32.5372 173.317 31.7258C177.236 30.4493 179.438 28.6968 180.708 26.5062H175.21ZM179.714 22.801H182.016C182.154 22.0924 182.253 21.3893 182.358 20.6428H179.714V22.801ZM189.44 20.6482H187C186.955 20.9714 186.909 21.2873 186.864 21.6001C186.805 22.0046 186.747 22.4038 186.691 22.8064H189.44V20.6482ZM184.456 15.2934H180.675C180.611 15.3745 180.547 15.4557 180.483 15.537C180.1 16.0245 179.716 16.5119 179.333 16.9756H183.219C183.633 16.4725 184.08 15.8667 184.456 15.2934Z" fill="#E8471C"/>
<path d="M168.917 18.3549L172.903 15.3907C171.804 13.7735 169.431 11.5828 167.576 10.1008L163.866 12.762C165.721 14.4171 167.99 16.7376 168.917 18.3549Z" fill="#E8471C"/>
<path fill-rule="evenodd" clip-rule="evenodd" d="M128.305 29.9011C127.931 30.4009 127.561 30.8946 127.154 31.3255C127.016 30.0112 126.193 26.809 125.536 25.3594C127.535 22.7685 128.876 18.9985 129.698 14.9201H126.331V10.5064H139.049V14.9201H134.341C133.893 16.9755 133.308 19.0634 132.657 21.0864H138.431V37.151H132.519V39.5742H128.324V29.8759L128.305 29.9011ZM134.169 25.327H132.519V32.9049H134.169V25.327Z" fill="#E8471C"/>
<path fill-rule="evenodd" clip-rule="evenodd" d="M101.823 30.2113C101.31 29.9084 100.791 29.6055 100.31 29.3351L102.756 27.0795H91.6884V10.5768H116.815V27.0741H105.129C107.122 28.1505 109.22 29.5677 110.351 30.7793L106.774 34.1166C105.775 32.9374 103.782 31.4229 101.823 30.2113ZM111.864 14.7849H106.636V16.8404H111.864V14.7849ZM111.864 20.7456H106.636V22.8659H111.864V20.7456ZM96.3914 22.8714H101.79V20.751H96.3914V22.8714ZM96.3914 16.8404H101.79V14.7849H96.3914V16.8404Z" fill="#E8471C"/>
<path d="M102.988 40.5857C97.9701 40.5857 96.7667 39.2064 96.7667 35.0956V30.2113H101.817V35.0253C101.817 36.0692 102.093 36.172 103.639 36.172H107.624C108.933 36.172 109.175 35.7339 109.38 32.6021C110.379 33.3431 112.543 34.0841 113.884 34.387C113.332 39.3417 111.957 40.5857 108.038 40.5857H102.988Z" fill="#E8471C"/>
<path d="M111.996 30.6494C113.751 33.2782 115.435 36.7128 115.915 38.9684L120.795 36.9454C120.177 34.5547 118.283 31.3201 116.462 28.8266L111.996 30.6494Z" fill="#E8471C"/>
<path d="M91.716 28.9672L96.2534 30.5845C95.4309 33.5107 94.2607 36.8805 92.682 39.1415L88.1778 36.6804C89.6902 34.6953 90.9929 31.7961 91.716 28.9672Z" fill="#E8471C"/>
<path d="M157.817 23.7097H154.278C154.792 19.4637 155.278 14.8174 155.515 10.9121L151.977 10.6092L151.22 10.7769H139.982V15.1581H150.431C150.188 17.7869 149.879 20.8484 149.537 23.7151H145.585C145.861 21.2919 146.137 18.6307 146.308 16.2724L141.632 16.0019C141.39 19.8423 140.876 24.7266 140.363 27.8259H152.805C152.324 33.316 151.739 35.7771 151.088 36.4154C150.713 36.821 150.365 36.8859 149.852 36.8859C149.2 36.8859 147.997 36.8859 146.689 36.7507C147.412 37.9299 147.925 39.7797 147.997 41.0941C149.647 41.1266 151.16 41.0941 152.159 40.9589C153.329 40.7912 154.223 40.418 155.117 39.3741C156.321 38.0597 157.044 34.3545 157.695 25.565C157.75 24.9916 157.817 23.7097 157.817 23.7097Z" fill="#E8471C"/>
<path d="M151.353 30.4169H139.562V34.7278H151.353V30.4169Z" fill="#E8471C"/>
<path d="M184.489 36.3721C187.757 36.3721 193.116 36.0692 196.45 35.5662C195.937 36.7778 195.214 39.0387 195.148 40.3152C192.978 40.445 187.757 40.683 184.318 40.683C180.194 40.683 177.131 40.2449 174.487 39.0658C173.912 38.7961 173.399 38.5185 172.937 38.2685C172.018 37.7716 171.301 37.3836 170.706 37.3836C169.502 37.3836 167.752 39.4714 166.306 41.2889L163.314 37.0807C164.722 35.8042 166.268 34.7602 167.714 34.0841V25.7651H164.038V21.254H172.494V33.7109C172.683 33.8072 172.88 33.9109 173.087 34.0206C173.672 34.3298 174.346 34.6864 175.21 35.0577C177.578 36.1341 180.879 36.3721 184.489 36.3721Z" fill="#E8471C"/>
</svg>
