<?xml version="1.0" standalone="no"?>
<!DOCTYPE svg PUBLIC "-//W3C//DTD SVG 20010904//EN"
 "http://www.w3.org/TR/2001/REC-SVG-20010904/DTD/svg10.dtd">
<svg version="1.0" xmlns="http://www.w3.org/2000/svg"
 width="1000.000000pt" height="1000.000000pt" viewBox="0 0 1000.000000 1000.000000"
 preserveAspectRatio="xMidYMid meet">

<g transform="translate(0.000000,1000.000000) scale(0.100000,-0.100000)"
fill="#0d47a1" stroke="none">
<path d="M2850 6739 c-270 -24 -494 -87 -709 -199 -328 -173 -554 -402 -716
-725 -101 -203 -179 -461 -200 -660 -3 -33 -8 -79 -11 -102 l-5 -43 85 0 86 0
0 33 c0 58 39 270 69 377 165 585 580 984 1161 1114 169 37 312 47 628 44
l282 -3 0 81 0 81 -152 6 c-188 9 -393 7 -518 -4z"/>
<path d="M2865 6319 c-524 -55 -928 -333 -1116 -769 -63 -146 -109 -356 -109
-498 l0 -43 83 3 82 3 7 100 c24 343 206 657 490 844 143 95 304 154 515 187
85 14 170 18 406 17 l297 0 0 84 0 83 -287 -1 c-159 -1 -324 -5 -368 -10z"/>
<path d="M6907 6039 c-175 -19 -283 -135 -308 -332 -30 -231 54 -414 220 -478
81 -32 232 -31 316 1 80 31 154 105 183 183 31 81 45 188 37 266 -29 266 -180
388 -448 360z m156 -120 c53 -14 111 -75 133 -140 24 -71 24 -244 0 -308 -40
-107 -104 -151 -221 -151 -117 0 -181 44 -221 151 -25 65 -25 237 0 308 21 62
76 122 126 138 46 14 135 16 183 2z"/>
<path d="M4498 6026 c-58 -23 -87 -46 -112 -90 -31 -54 -39 -102 -26 -164 18
-80 65 -126 190 -185 58 -27 118 -59 134 -70 67 -48 65 -141 -4 -181 -60 -35
-199 -23 -323 29 -16 7 -18 2 -15 -56 l3 -64 55 -19 c73 -25 245 -26 309 -2
103 38 154 108 154 211 0 66 -23 124 -63 160 -12 11 -81 49 -153 85 -117 57
-134 69 -150 102 -16 32 -17 43 -7 74 24 73 123 95 252 54 34 -11 64 -20 66
-20 4 0 42 90 42 99 0 5 -24 16 -52 26 -70 24 -248 30 -300 11z"/>
<path d="M6069 6025 c-110 -35 -191 -117 -230 -232 -33 -94 -32 -258 1 -353
37 -108 104 -180 201 -216 54 -21 231 -22 304 -2 l50 13 3 58 c2 31 2 57 0 57
-2 0 -28 -7 -58 -15 -30 -8 -91 -15 -136 -15 -97 0 -154 25 -196 86 -78 112
-74 334 9 442 58 76 182 102 298 62 32 -11 61 -20 65 -20 8 0 54 100 48 104
-52 40 -274 58 -359 31z"/>
<path d="M5102 5623 l3 -408 228 -3 227 -2 0 60 0 60 -165 0 -166 0 3 128 3
127 153 3 152 3 0 54 0 55 -155 0 -155 0 0 110 0 110 165 0 165 0 0 55 0 55
-230 0 -230 0 2 -407z"/>
<path d="M7610 5620 l0 -410 61 0 61 0 -3 329 c-2 181 -1 324 3 318 4 -7 95
-154 201 -327 l195 -315 81 -3 81 -3 0 411 0 410 -61 0 -61 0 4 -319 c1 -176
0 -317 -3 -315 -4 2 -94 145 -200 319 l-194 315 -82 0 -83 0 0 -410z"/>
<path d="M8590 5619 l0 -412 168 6 c240 9 336 43 412 148 57 79 74 141 74 269
-1 149 -22 210 -103 291 -89 89 -134 102 -363 107 l-188 4 0 -413z m345 290
c57 -15 128 -76 150 -131 41 -101 28 -266 -27 -348 -47 -70 -106 -94 -250
-106 l-88 -7 0 302 0 301 86 0 c47 0 105 -5 129 -11z"/>
<path d="M3044 5899 c-205 -12 -361 -43 -488 -96 -174 -72 -327 -224 -411
-406 -49 -106 -74 -219 -84 -383 -14 -203 -45 -307 -129 -432 -46 -67 -134
-150 -199 -189 -143 -84 -314 -114 -690 -120 l-283 -6 0 -77 0 -77 143 -7
c161 -8 439 7 571 30 107 18 232 57 307 94 126 64 258 195 333 331 72 131 100
245 115 470 15 224 67 346 205 485 87 88 151 126 271 163 127 40 246 53 538
58 l277 6 0 77 0 77 -127 6 c-143 8 -163 7 -349 -4z"/>
<path d="M2476 4908 c-28 -407 -262 -757 -621 -929 -223 -107 -379 -133 -792
-132 l-303 0 0 -85 0 -84 338 5 c282 4 355 8 448 26 303 56 535 172 729 366
221 220 341 496 370 848 l6 77 -84 0 -84 0 -7 -92z"/>
<path d="M2910 4996 c0 -43 -37 -261 -59 -347 -144 -571 -488 -952 -1021
-1130 -210 -70 -296 -80 -707 -86 l-363 -5 0 -78 0 -78 207 -7 c617 -22 980
61 1358 313 134 89 338 292 424 422 170 258 294 614 317 913 l7 87 -82 0 c-44
0 -81 -2 -81 -4z"/>
<path d="M4543 4720 c-100 -21 -163 -78 -183 -164 -18 -81 10 -169 69 -219 17
-14 82 -50 143 -80 134 -64 161 -89 161 -148 0 -33 -7 -47 -32 -72 -31 -32
-32 -32 -134 -31 -78 1 -116 6 -161 22 -33 12 -61 22 -63 22 -2 0 -3 -28 -1
-62 l3 -61 40 -15 c56 -20 224 -28 290 -13 78 18 138 60 165 116 26 53 30 129
11 187 -14 44 -70 96 -131 125 -224 104 -235 113 -235 186 0 31 7 45 33 68 29
26 39 29 101 29 40 0 95 -8 131 -19 l62 -19 13 31 c32 79 35 75 -63 106 -48
15 -170 21 -219 11z"/>
<path d="M5010 4660 l0 -60 120 0 120 0 0 -350 0 -350 65 0 65 0 0 350 0 350
120 0 120 0 0 60 0 60 -305 0 -305 0 0 -60z"/>
<path d="M5817 4373 c-71 -192 -140 -376 -153 -411 l-23 -63 71 3 71 3 13 40
c8 22 26 73 40 113 l26 72 156 -2 156 -3 40 -112 41 -113 68 0 c37 0 67 3 67
8 0 4 -67 187 -149 407 l-149 400 -74 3 -73 2 -128 -347z m262 44 l60 -177
-120 0 c-65 0 -119 1 -119 3 0 2 25 75 55 162 30 88 55 169 55 179 0 11 2 17
5 15 2 -3 31 -85 64 -182z"/>
<path d="M6410 4660 l0 -60 120 0 120 0 0 -350 0 -350 65 0 65 0 0 350 0 350
120 0 120 0 0 60 0 60 -305 0 -305 0 0 -60z"/>
<path d="M7220 4305 l0 -405 230 0 230 0 0 55 0 55 -165 0 -165 0 0 130 0 130
155 0 155 0 0 55 0 55 -155 0 -155 0 0 110 0 110 165 0 165 0 0 55 0 55 -230
0 -230 0 0 -405z"/>
</g>
</svg>
