<svg width="1564" height="540" viewBox="0 0 1564 540" fill="none" xmlns="http://www.w3.org/2000/svg">
<path fill-rule="evenodd" clip-rule="evenodd" d="M269.002 209C300.221 209 331.44 214.955 355.261 226.864C395.182 246.822 401.659 277.17 374.69 300.5C369.47 295.984 362.998 291.732 355.273 287.869C331.688 276.075 300.848 270.119 269.936 270.001L268.999 270L269.002 209Z" fill="#27339F"/>
<path fill-rule="evenodd" clip-rule="evenodd" d="M182.739 252.135C206.561 264.044 237.782 269.999 269.002 269.999L268.998 330.998C237.779 330.998 206.56 325.043 182.739 313.134C142.818 293.177 136.341 262.828 163.31 239.498C168.533 244.016 175.009 248.27 182.739 252.135Z" fill="#27339F"/>
<path fill-rule="evenodd" clip-rule="evenodd" d="M355.272 313.13C362.997 309.267 369.47 305.015 374.689 300.5C401.659 323.828 395.182 354.177 355.261 374.135C331.439 386.044 300.218 391.999 268.997 391.999L268.999 330.999C300.224 330.999 331.45 325.043 355.272 313.13Z" fill="#F7651C"/>
<path fill-rule="evenodd" clip-rule="evenodd" d="M163.312 239.499C136.345 216.173 142.817 185.827 182.729 165.869C206.313 154.075 237.153 148.12 268.066 148.002L269.003 148V209C237.777 208.999 206.552 214.956 182.729 226.869C175.106 230.68 168.703 234.871 163.52 239.319L163.312 239.499Z" fill="#F7651C"/>
<path d="M503.276 223.176C527.391 223.176 537.902 233.069 542.437 240.283H570.674C566.345 221.527 549.238 199.679 503.276 199.679C468.443 199.679 444.741 215.344 444.741 241.52C444.741 267.696 465.558 281.917 494.619 284.597L520.589 287.276C535.635 289.131 545.94 293.665 545.94 307.681C545.94 319.429 534.192 327.88 511.932 327.88C485.138 327.88 473.39 315.513 469.474 306.238H440C445.565 327.055 464.321 351.376 511.932 351.376C553.36 351.376 574.177 332.208 574.177 305.826C574.177 275.322 551.505 263.573 522.444 260.894C512.551 259.863 505.749 259.039 496.68 258.215C481.222 256.36 472.771 250.589 472.771 240.695C472.771 229.978 483.283 223.176 503.276 223.176Z" fill="#141A52"/>
<path d="M616.612 332.826C618.673 336.948 630.009 350.964 652.681 350.964C679.888 350.964 702.147 330.559 702.147 296.551C702.147 262.543 679.888 242.138 652.681 242.138C630.421 242.138 618.467 256.978 616.818 260.894V244.405H590.642V392.392H616.612V332.826ZM616.406 296.551C616.406 278.619 627.948 265.222 645.879 265.222C664.017 265.222 675.559 278.619 675.559 296.551C675.559 314.276 664.017 327.88 645.879 327.88C627.948 327.88 616.406 314.276 616.406 296.551Z" fill="#141A52"/>
<path d="M742.509 293.047C742.509 276.764 752.815 265.635 768.685 265.635C784.35 265.635 794.037 276.558 794.037 293.047V348.697H820.625V287.894C820.625 261.306 803.312 242.138 777.136 242.138C758.174 242.138 746.426 254.505 742.509 261.925V197H716.334V348.697H742.509V293.047Z" fill="#141A52"/>
<path d="M887.825 241.726C855.878 241.726 833.206 264.192 833.206 296.551C833.206 327.88 856.084 351.376 889.886 351.376C925.337 351.376 939.558 328.91 941.207 318.193H915.237C913.382 321.078 906.581 329.529 889.886 329.529C872.573 329.529 860.618 317.162 859.588 300.879H942.444V297.994C942.444 263.986 919.978 241.726 887.825 241.726ZM887.825 262.131C901.222 262.131 910.909 269.551 914.825 282.742H860.412C863.71 269.757 873.603 262.131 887.825 262.131Z" fill="#141A52"/>
<path d="M981.816 293.872C981.816 277.383 989.854 269.963 1012.11 269.963H1039.94V243.787H1015.62C992.533 243.787 984.495 255.947 981.816 261.925V244.405H955.64V348.697H981.816V293.872Z" fill="#141A52"/>
<path d="M1096.94 241.726C1064.99 241.726 1042.32 264.192 1042.32 296.551C1042.32 327.88 1065.2 351.376 1099 351.376C1134.45 351.376 1148.67 328.91 1150.32 318.193H1124.35C1122.5 321.078 1115.7 329.529 1099 329.529C1081.69 329.529 1069.73 317.162 1068.7 300.879H1151.56V297.994C1151.56 263.986 1129.09 241.726 1096.94 241.726ZM1096.94 262.131C1110.34 262.131 1120.02 269.551 1123.94 282.742H1069.53C1072.82 269.757 1082.72 262.131 1096.94 262.131Z" fill="#141A52"/>
<path d="M1167.85 348.697H1294.6V324.17H1195.46V283.772H1249.67V259.657H1195.46V226.268H1286.36V202.359H1167.85V348.697Z" fill="#141A52"/>
<path d="M1384.05 348.697H1416.4L1370.44 295.52L1416.4 244.405H1385.9L1355.4 278.413L1325.92 244.405H1292.12L1338.5 297.169L1292.33 348.697H1322.62L1353.54 314.276L1384.05 348.697Z" fill="#141A52"/>
</svg>
