<?xml version="1.0" encoding="utf-8"?>
<!-- Generator: Adobe Illustrator 16.0.0, SVG Export Plug-In . SVG Version: 6.00 Build 0)  -->
<!DOCTYPE svg PUBLIC "-//W3C//DTD SVG 1.1//EN" "http://www.w3.org/Graphics/SVG/1.1/DTD/svg11.dtd">
<svg version="1.1" id="图层_1" xmlns="http://www.w3.org/2000/svg" xmlns:xlink="http://www.w3.org/1999/xlink" x="0px" y="0px"
	 width="500px" height="500px" viewBox="0 0 500 500" enable-background="new 0 0 500 500" xml:space="preserve">
<g id="Layer_x5F_1">
	<rect x="-50.583" y="-71.166" fill="none" width="601.166" height="601.166"/>
	<path fill-rule="evenodd" clip-rule="evenodd" fill="#007AB5" d="M201.426,147.659H177.5l-16.833-27.414h78.994
		C224.269,125.295,211.044,135.034,201.426,147.659z M264.427,151.626v87.17c-10.339,0-19.958-3.607-27.412-9.74v-67.812
		c7.454-6.011,17.073-9.739,27.412-9.739V151.626z"/>
	<path fill="none" d="M237.015,120.245h2.525c-0.843,0.241-1.684,0.601-2.525,0.842V120.245z"/>
	<path fill-rule="evenodd" clip-rule="evenodd" fill="#FF9900" d="M264.427,120.245c-41.358,0-75.024,33.545-75.024,75.025
		c0,41.361,33.545,75.026,75.024,75.026c41.361,0,75.027-33.547,75.027-75.026v-93.3c-9.139,14.909-18.275,30.9-27.413,45.688
		v47.612c0,26.331-21.282,47.613-47.614,47.613c-26.33,0-47.611-21.282-47.611-47.613s21.281-47.612,47.611-47.612
		c14.069,0,28.137,0,42.202,0l16.834-27.414C303.744,120.245,284.146,120.245,264.427,120.245z"/>
	<path fill="#FF9900" d="M401.613,356.865l7.814-10.822h10.581c1.203,0,2.526,0,3.969,0c1.322,0,2.525,0,3.487,0.121
		c-0.602-0.721-1.322-1.684-2.046-2.888c-0.72-1.201-1.562-2.283-2.284-3.245l-7.574-11.061l-19.719,27.773h-15.389l26.932-37.873
		c0.843-1.203,1.926-2.284,3.366-3.246c1.322-0.964,3.008-1.443,5.051-1.443c1.924,0,3.607,0.479,4.931,1.322
		c1.322,0.842,2.402,2.045,3.365,3.367l26.211,37.873h-48.695V356.865z M282.582,335.462c0,3.007-0.6,5.893-1.922,8.538
		c-1.323,2.645-3.007,4.81-5.29,6.733c-2.284,1.922-4.931,3.365-7.936,4.447c-3.126,1.082-6.494,1.685-10.101,1.685H229.32v-26.092
		h12.985v15.391h15.029c1.803,0,3.488-0.242,4.93-0.721c1.563-0.481,2.887-1.205,3.968-2.046c1.083-0.841,1.924-1.924,2.526-3.126
		c0.6-1.202,0.961-2.646,0.961-4.089c0-1.44-0.361-2.764-0.961-4.086c-0.603-1.204-1.564-2.285-2.646-3.247
		c-1.082-0.841-2.404-1.563-3.968-2.164c-1.563-0.481-3.126-0.841-4.929-0.841h-28.016l8.296-10.941h19.838
		c3.727,0,7.093,0.481,10.101,1.563c3.126,0.962,5.771,2.405,7.936,4.209c2.283,1.802,3.967,3.968,5.29,6.493
		C281.861,329.691,282.582,332.457,282.582,335.462z M301.098,356.865l7.817-10.822h10.58c1.202,0,2.524,0,3.968,0
		c1.323,0,2.525,0,3.487,0.121c-0.603-0.721-1.323-1.684-2.044-2.888c-0.723-1.201-1.563-2.283-2.285-3.245l-7.575-11.061
		l-19.72,27.773h-15.389l26.932-37.873c0.842-1.203,2.046-2.284,3.367-3.246c1.323-0.964,3.007-1.443,5.05-1.443
		c1.924,0,3.607,0.479,4.931,1.322c1.321,0.842,2.404,2.045,3.367,3.367l26.21,37.873h-48.696V356.865z M393.077,314.903
		l-8.417,10.941h-15.029v31.021h-12.983v-31.021h-19.72l8.417-10.941h47.613H393.077z"/>
	<path fill="#007AB5" d="M222.827,330.773c0,2.285-0.48,4.45-1.323,6.372c-0.962,1.924-2.285,3.487-4.088,4.809
		c-1.803,1.322-3.968,2.405-6.492,3.127c-2.525,0.722-5.411,1.083-8.657,1.083h-21.882v10.701H167.52v-21.403h36.07
		c2.044,0,3.607-0.479,4.689-1.322c1.082-0.841,1.683-2.043,1.683-3.487c0-1.441-0.601-2.644-1.683-3.484
		c-1.082-0.843-2.645-1.323-4.689-1.323h-36.07l8.537-10.941h26.331c3.247,0,6.133,0.36,8.657,1.202
		c2.525,0.72,4.689,1.804,6.493,3.246c1.803,1.323,3.126,3.007,3.967,4.929c0.963,1.924,1.323,4.088,1.323,6.372V330.773z
		 M105.721,315.022l-8.417,10.943H82.275v31.018H69.29v-31.018H49.572l8.416-10.943H105.6H105.721z M114.137,356.983l7.814-10.819
		h10.582c1.202,0,2.524,0,3.968,0c1.322,0,2.524,0,3.487,0.12c-0.603-0.723-1.323-1.685-2.045-2.887
		c-0.722-1.202-1.563-2.284-2.285-3.246l-7.574-11.061l-19.718,27.774H92.975l26.933-37.874c0.841-1.202,2.043-2.284,3.366-3.246
		c1.322-0.963,3.007-1.443,5.05-1.443c1.924,0,3.607,0.48,4.929,1.323c1.323,0.841,2.404,2.043,3.366,3.366l26.21,37.874h-48.693
		V356.983z"/>
</g>
</svg>
