<svg id="图层_1" data-name="图层 1" xmlns="http://www.w3.org/2000/svg" viewBox="0 0 500 500"><defs><style>.cls-1,.cls-2{fill:#18499d;}.cls-2{fill-rule:evenodd;}</style></defs><title>logo-1</title><path class="cls-1" d="M153.2,224.61h-16v49H126.12v-49H110.21v-9.73h43Z"/><path class="cls-1" d="M180.62,214.88c17.1,0,28.52,4.91,28.52,29.37,0,22.68-11.42,29.36-28.52,29.36h-19V214.88Zm-.51,49.17c11.34,0,17.61-4.32,17.61-19.8,0-16.34-6.52-20-17.61-20h-7.44v39.78Z"/><path class="cls-1" d="M259.41,252.79l-30,2c.25,7.7,4,11.17,13.12,11.17a39.07,39.07,0,0,0,14.89-3.13v8.63c-2.7,1.61-9.3,3-16.75,3-13.88,0-21.92-5.16-21.92-23.7s8-23.7,21.92-23.7c15.82,0,19.13,9,19.13,19.72A39.1,39.1,0,0,1,259.41,252.79ZM250,245.68c0-5.67-1.19-10.49-9.31-10.49-8.47,0-11,4.15-11.26,12Z"/><path class="cls-1" d="M310.78,242.3v31.31H300.2V245.26c0-6.43-1.44-9.39-7.87-9.39-5.42,0-9.22,1.52-11.17,7.27v30.47H270.58v-45.7h10.58v5.75c2.62-4.73,8-6.6,14.39-6.6C307.06,227.06,310.78,232.56,310.78,242.3Z"/><path class="cls-1" d="M364.77,227.91v42.23c0,12.61-6.51,20.4-24.29,20.4a79.09,79.09,0,0,1-12.35-1.1v-8.55a47.77,47.77,0,0,0,11.76,1.27c10.07,0,14.39-3.3,14.39-12.53v-3.21c-1.95,4.49-5.67,7.19-14.14,7.19-15,0-18.7-9.39-18.7-23.27,0-12.61,3.72-23.28,18.7-23.28,8.64,0,12.36,3.05,14.14,7.54v-6.69ZM354.7,250.34c0-9.23-2-15.15-11.85-15.15-9.39,0-10.41,7.28-10.41,15.15,0,8.46,1.27,15.32,10.41,15.32C352.67,265.66,354.7,260.07,354.7,250.34Z"/><path class="cls-1" d="M377.3,215.13c0-5.16,1.26-5.67,6-5.67s6,.51,6,5.67-1.27,5.75-6,5.75S377.3,220.21,377.3,215.13Zm.67,12.78h10.58v45.7H378Z"/><path class="cls-1" d="M442,242.3v31.31H431.46V245.26c0-6.43-1.44-9.39-7.87-9.39-5.42,0-9.23,1.52-11.17,7.27v30.47H401.84v-45.7h10.58v5.75c2.62-4.73,8-6.6,14.39-6.6C438.32,227.06,442,232.56,442,242.3Z"/><path class="cls-1" d="M493.33,252.79l-30,2c.26,7.7,4,11.17,13.12,11.17a39.12,39.12,0,0,0,14.9-3.13v8.63c-2.71,1.61-9.31,3-16.76,3-13.88,0-21.92-5.16-21.92-23.7s8-23.7,21.92-23.7c15.83,0,19.13,9,19.13,19.72A40.55,40.55,0,0,1,493.33,252.79Zm-9.4-7.11c0-5.67-1.18-10.49-9.31-10.49-8.46,0-11,4.15-11.26,12Z"/><path class="cls-2" d="M48.8,209.27a5.57,5.57,0,1,1-5.56,5.57,5.58,5.58,0,0,1,5.56-5.57ZM11.82,236a5.57,5.57,0,1,1-5.57,5.57A5.58,5.58,0,0,1,11.82,236ZM26.3,279.59a5.57,5.57,0,1,1-5.57,5.57,5.58,5.58,0,0,1,5.57-5.57Zm45,0a5.57,5.57,0,1,1-5.57,5.57,5.58,5.58,0,0,1,5.57-5.57ZM57,242.45H40.63l-5,15.53,13.22,9.61L62,258l-5-15.54Zm-15.9-1.33,5.72-17.61a8,8,0,0,1-1.26-.4l-5.84,18h-19c0,.17,0,.33,0,.5a7.69,7.69,0,0,1,0,.83H39.25l-4.78,14.72-15-10.93a8.31,8.31,0,0,1-.77,1.07l12.79,9.29h0l2.6,1.89L33.23,261h0l-5,15.5a9.28,9.28,0,0,1,1.27.38l5.7-17.54,12.52,9.1L32.87,279.16a10.42,10.42,0,0,1,.82,1l15.12-11,15.11,11a8.34,8.34,0,0,1,.82-1L49.93,268.4l12.5-9.09L63,261h0l5.16,15.87a7.76,7.76,0,0,1,1.27-.38l-5.85-18,2.58-1.87L79,247.31a10,10,0,0,1-.77-1.07l-12.45,9-.35.25-2.26,1.65-4.78-14.73H76.93a8.06,8.06,0,0,1,0-.85c0-.16,0-.32,0-.47h-19l-5.84-18a7.4,7.4,0,0,1-1.26.4l5.72,17.62Zm-22.24-5,22.55-16.39a9.31,9.31,0,0,0,.81,1L19.56,237.21a9.08,9.08,0,0,0-.74-1.09Zm4.07,40.82L14.2,250.18a8,8,0,0,0,1.24-.44l8.7,26.78a8.74,8.74,0,0,0-1.25.42Zm39.53,8.58H35.19c0-.12,0-.24,0-.36,0-.33,0-.65-.05-1H62.46c0,.32-.05.64-.05,1,0,.12,0,.24,0,.36Zm21-35.34-8.69,26.76a8.74,8.74,0,0,0-1.25-.42l8.7-26.78a8,8,0,0,0,1.24.44ZM56.24,219.73l22.55,16.39a9.08,9.08,0,0,0-.74,1.09L55.43,220.78a10.46,10.46,0,0,0,.81-1.05ZM85.79,236a5.57,5.57,0,1,1-5.57,5.57A5.58,5.58,0,0,1,85.79,236Z"/></svg>