<?xml version="1.0" encoding="UTF-8" standalone="no"?>
<svg
   xmlns:dc="http://purl.org/dc/elements/1.1/"
   xmlns:cc="http://creativecommons.org/ns#"
   xmlns:rdf="http://www.w3.org/1999/02/22-rdf-syntax-ns#"
   xmlns:svg="http://www.w3.org/2000/svg"
   xmlns="http://www.w3.org/2000/svg"
   xmlns:sodipodi="http://sodipodi.sourceforge.net/DTD/sodipodi-0.dtd"
   xmlns:inkscape="http://www.inkscape.org/namespaces/inkscape"
   version="1.1"
   id="svg2"
   xml:space="preserve"
   width="666.66669"
   height="666.66669"
   viewBox="0 0 666.66669 666.66669"
   sodipodi:docname="Thoughtworks.ai"><metadata
     id="metadata8"><rdf:RDF><cc:Work
         rdf:about=""><dc:format>image/svg+xml</dc:format><dc:type
           rdf:resource="http://purl.org/dc/dcmitype/StillImage" /></cc:Work></rdf:RDF></metadata><defs
     id="defs6"><clipPath
       clipPathUnits="userSpaceOnUse"
       id="clipPath22"><path
         d="M 0,500 H 500 V 0 H 0 Z"
         id="path20" /></clipPath></defs><sodipodi:namedview
     pagecolor="#ffffff"
     bordercolor="#666666"
     borderopacity="1"
     objecttolerance="10"
     gridtolerance="10"
     guidetolerance="10"
     inkscape:pageopacity="0"
     inkscape:pageshadow="2"
     inkscape:window-width="640"
     inkscape:window-height="480"
     id="namedview4" /><g
     id="g10"
     inkscape:groupmode="layer"
     inkscape:label="Thoughtworks"
     transform="matrix(1.3333333,0,0,-1.3333333,0,666.66667)"><g
       id="g12"
       transform="translate(56.576,286.0702)"><path
         d="m 0,0 -29.632,-58.155 h 13.767 L 13.767,0 Z"
         style="fill:#f2617a;fill-opacity:1;fill-rule:nonzero;stroke:none"
         id="path14" /></g><g
       id="g16"><g
         id="g18"
         clip-path="url(#clipPath22)"><g
           id="g24"
           transform="translate(224.2135,242.1809)"><path
             d="m 0,0 c -0.338,-1.147 -0.843,-2.171 -1.518,-3.07 -0.675,-0.9 -1.528,-1.617 -2.563,-2.158 -1.035,-0.539 -2.226,-0.808 -3.573,-0.808 -1.485,0 -2.723,0.313 -3.711,0.944 -0.99,0.628 -1.786,1.438 -2.393,2.427 -0.609,0.99 -1.037,2.102 -1.281,3.339 -0.25,1.236 -0.373,2.483 -0.373,3.743 0,1.304 0.145,2.551 0.439,3.743 0.293,1.192 0.765,2.248 1.416,3.17 0.653,0.921 1.46,1.652 2.429,2.193 0.966,0.539 2.124,0.808 3.474,0.808 1.572,0 2.876,-0.292 3.911,-0.877 1.034,-0.584 1.866,-1.37 2.494,-2.36 C -0.617,10.105 -0.167,8.97 0.102,7.688 0.37,6.407 0.505,5.047 0.505,3.607 0.505,2.349 0.338,1.146 0,0 M 2.872,20.605 0.505,15.959 h -0.14 c -1.168,2.019 -2.615,3.455 -4.344,4.308 -1.732,0.854 -3.744,1.282 -6.035,1.282 -2.429,0 -4.578,-0.472 -6.441,-1.416 -1.869,-0.946 -3.431,-2.216 -4.69,-3.812 -1.257,-1.596 -2.215,-3.439 -2.866,-5.53 -0.653,-2.091 -0.977,-4.261 -0.977,-6.508 0,-2.384 0.28,-4.644 0.843,-6.779 0.563,-2.137 1.449,-4.003 2.665,-5.599 1.213,-1.595 2.763,-2.855 4.651,-3.776 1.889,-0.922 4.139,-1.383 6.746,-1.383 2.113,0 4.125,0.439 6.035,1.316 1.913,0.877 3.384,2.235 4.418,4.079 h 0.135 v -4.585 c 0,-5.407 -2.555,-8.565 -7.604,-8.565 -4.966,0 -7.775,2.205 -9.209,3.969 l -3.491,-6.851 c 0,0 3.915,-3.527 11.335,-3.527 12.311,0 18.075,5.941 18.075,15.378 v 32.645 z"
             style="fill:#003d4f;fill-opacity:1;fill-rule:nonzero;stroke:none"
             id="path26" /></g><g
           id="g28"
           transform="translate(99.403,276.0733)"><path
             d="m 0,0 v -18.143 h 0.203 c 1.213,2.022 2.764,3.493 4.655,4.416 1.888,0.922 3.729,1.383 5.529,1.383 2.564,0 4.663,-0.349 6.307,-1.046 1.641,-0.697 2.934,-1.663 3.878,-2.901 0.944,-1.235 1.605,-2.741 1.99,-4.517 0.381,-1.778 0.573,-3.743 0.573,-5.903 v -21.447 h -9.578 v 19.693 c 0,2.879 -0.45,5.025 -1.35,6.441 -0.9,1.419 -2.495,2.127 -4.786,2.127 -2.61,0 -4.498,-0.776 -5.667,-2.327 C 0.585,-23.777 0,-26.33 0,-29.881 V -48.158 H -9.578 V 0 Z"
             style="fill:#003d4f;fill-opacity:1;fill-rule:nonzero;stroke:none"
             id="path30" /></g><g
           id="g32"
           transform="translate(135.2399,241.2361)"><path
             d="m 0,0 c 0.269,-1.326 0.73,-2.519 1.383,-3.576 0.651,-1.057 1.518,-1.899 2.596,-2.528 1.079,-0.631 2.429,-0.944 4.046,-0.944 1.619,0 2.98,0.313 4.08,0.944 1.104,0.629 1.979,1.471 2.632,2.528 0.651,1.057 1.112,2.25 1.384,3.576 0.268,1.326 0.403,2.687 0.403,4.081 0,1.394 -0.135,2.763 -0.403,4.114 -0.272,1.35 -0.733,2.538 -1.384,3.576 -0.653,1.032 -1.528,1.874 -2.632,2.527 -1.1,0.651 -2.461,0.977 -4.08,0.977 -1.617,0 -2.967,-0.326 -4.046,-0.977 C 2.901,13.645 2.034,12.803 1.383,11.771 0.73,10.733 0.269,9.545 0,8.195 -0.269,6.844 -0.406,5.475 -0.406,4.081 -0.406,2.687 -0.269,1.326 0,0 m -8.7,11.669 c 0.854,2.27 2.067,4.202 3.642,5.799 1.573,1.597 3.461,2.832 5.665,3.71 2.203,0.876 4.676,1.315 7.418,1.315 2.744,0 5.228,-0.439 7.453,-1.315 2.226,-0.878 4.125,-2.113 5.7,-3.71 1.573,-1.597 2.786,-3.529 3.642,-5.799 0.854,-2.272 1.282,-4.8 1.282,-7.588 0,-2.788 -0.428,-5.308 -1.282,-7.555 -0.856,-2.248 -2.069,-4.172 -3.642,-5.766 -1.575,-1.598 -3.474,-2.822 -5.7,-3.675 -2.225,-0.854 -4.709,-1.282 -7.453,-1.282 -2.742,0 -5.215,0.428 -7.418,1.282 -2.204,0.853 -4.092,2.077 -5.665,3.675 -1.575,1.594 -2.788,3.518 -3.642,5.766 -0.856,2.247 -1.281,4.767 -1.281,7.555 0,2.788 0.425,5.316 1.281,7.588"
             style="fill:#003d4f;fill-opacity:1;fill-rule:nonzero;stroke:none"
             id="path34" /></g><g
           id="g36"
           transform="translate(187.4801,227.9149)"><path
             d="m 0,0 v 4.858 h -0.203 c -1.213,-2.026 -2.788,-3.486 -4.72,-4.386 -1.935,-0.897 -3.914,-1.347 -5.937,-1.347 -2.563,0 -4.665,0.337 -6.306,1.009 -1.641,0.676 -2.934,1.631 -3.878,2.868 -0.944,1.235 -1.608,2.742 -1.99,4.518 -0.381,1.778 -0.573,3.743 -0.573,5.903 V 34.87 h 9.578 V 15.176 c 0,-2.878 0.45,-5.025 1.35,-6.441 0.897,-1.416 2.495,-2.124 4.789,-2.124 2.607,0 4.495,0.774 5.664,2.327 1.169,1.551 1.754,4.101 1.754,7.655 V 34.87 H 9.106 L 9.106,0 Z"
             style="fill:#003d4f;fill-opacity:1;fill-rule:nonzero;stroke:none"
             id="path38" /></g><g
           id="g40"
           transform="translate(246.9793,276.0733)"><path
             d="m 0,0 v -18.143 h 0.203 c 1.213,2.022 2.764,3.493 4.655,4.416 1.888,0.922 3.729,1.383 5.529,1.383 2.564,0 4.663,-0.349 6.307,-1.046 1.641,-0.697 2.934,-1.663 3.878,-2.901 0.944,-1.235 1.605,-2.741 1.99,-4.517 0.381,-1.778 0.573,-3.743 0.573,-5.903 v -21.447 h -9.578 v 19.693 c 0,2.879 -0.45,5.025 -1.35,6.441 -0.9,1.419 -2.495,2.127 -4.786,2.127 -2.61,0 -4.498,-0.776 -5.667,-2.327 C 0.585,-23.777 0,-26.33 0,-29.881 V -48.158 H -9.578 V 0 Z"
             style="fill:#003d4f;fill-opacity:1;fill-rule:nonzero;stroke:none"
             id="path42" /></g><g
           id="g44"
           transform="translate(351.9245,241.2361)"><path
             d="m 0,0 c 0.272,-1.326 0.73,-2.519 1.383,-3.576 0.653,-1.057 1.518,-1.899 2.596,-2.528 1.082,-0.631 2.429,-0.944 4.048,-0.944 1.619,0 2.978,0.313 4.081,0.944 1.101,0.629 1.979,1.471 2.629,2.528 0.654,1.057 1.115,2.25 1.384,3.576 0.268,1.326 0.406,2.687 0.406,4.081 0,1.394 -0.138,2.763 -0.406,4.114 -0.269,1.35 -0.73,2.538 -1.384,3.576 -0.65,1.032 -1.528,1.874 -2.629,2.527 -1.103,0.651 -2.462,0.977 -4.081,0.977 -1.619,0 -2.966,-0.326 -4.048,-0.977 C 2.901,13.645 2.036,12.803 1.383,11.771 0.73,10.733 0.272,9.545 0,8.195 -0.269,6.844 -0.403,5.475 -0.403,4.081 -0.403,2.687 -0.269,1.326 0,0 m -8.7,11.669 c 0.854,2.27 2.067,4.202 3.642,5.799 1.573,1.597 3.463,2.832 5.667,3.71 2.201,0.876 4.674,1.315 7.418,1.315 2.742,0 5.228,-0.439 7.454,-1.315 2.226,-0.878 4.125,-2.113 5.697,-3.71 1.576,-1.597 2.789,-3.529 3.642,-5.799 0.854,-2.272 1.282,-4.8 1.282,-7.588 0,-2.788 -0.428,-5.308 -1.282,-7.555 -0.853,-2.248 -2.066,-4.172 -3.642,-5.766 -1.572,-1.598 -3.471,-2.822 -5.697,-3.675 -2.226,-0.854 -4.712,-1.282 -7.454,-1.282 -2.744,0 -5.217,0.428 -7.418,1.282 -2.204,0.853 -4.094,2.077 -5.667,3.675 -1.575,1.594 -2.788,3.518 -3.642,5.766 -0.853,2.247 -1.281,4.767 -1.281,7.555 0,2.788 0.428,5.316 1.281,7.588"
             style="fill:#003d4f;fill-opacity:1;fill-rule:nonzero;stroke:none"
             id="path46" /></g><g
           id="g48"
           transform="translate(417.5549,276.0733)"><path
             d="m 0,0 v -25.833 l 12.073,12.545 H 23.404 L 10.253,-26.102 24.889,-48.158 H 13.288 L 3.71,-32.579 0,-36.152 V -48.158 H -9.578 V 0 Z"
             style="fill:#003d4f;fill-opacity:1;fill-rule:nonzero;stroke:none"
             id="path50" /></g><g
           id="g52"
           transform="translate(449.5218,236.5816)"><path
             d="m 0,0 c 0.428,-0.741 0.98,-1.347 1.652,-1.82 0.675,-0.472 1.452,-0.82 2.327,-1.045 0.879,-0.225 1.787,-0.338 2.731,-0.338 0.675,0 1.383,0.077 2.127,0.236 0.741,0.157 1.416,0.404 2.023,0.741 0.606,0.338 1.111,0.788 1.517,1.351 0.404,0.559 0.607,1.267 0.607,2.124 0,1.438 -0.955,2.516 -2.865,3.238 C 8.206,5.203 5.541,5.925 2.124,6.644 0.73,6.957 -0.628,7.33 -1.957,7.758 c -1.325,0.426 -2.505,0.988 -3.54,1.685 -1.035,0.698 -1.866,1.573 -2.495,2.63 -0.631,1.056 -0.944,2.349 -0.944,3.877 0,2.251 0.439,4.092 1.315,5.533 0.878,1.438 2.033,2.572 3.474,3.406 1.438,0.831 3.057,1.416 4.855,1.753 1.798,0.338 3.642,0.505 5.53,0.505 1.891,0 3.721,-0.181 5.497,-0.54 1.776,-0.36 3.362,-0.966 4.756,-1.82 1.394,-0.853 2.552,-1.989 3.474,-3.406 0.92,-1.416 1.471,-3.205 1.652,-5.362 h -9.105 c -0.135,1.844 -0.832,3.09 -2.092,3.743 -1.259,0.651 -2.741,0.977 -4.451,0.977 -0.538,0 -1.125,-0.033 -1.754,-0.098 C 3.587,20.572 3.013,20.426 2.495,20.201 1.979,19.976 1.54,19.65 1.18,19.222 0.821,18.796 0.642,18.223 0.642,17.504 c 0,-0.857 0.313,-1.554 0.944,-2.092 0.629,-0.54 1.449,-0.977 2.462,-1.314 1.01,-0.338 2.168,-0.642 3.472,-0.911 1.303,-0.269 2.631,-0.563 3.979,-0.878 1.394,-0.313 2.755,-0.698 4.081,-1.145 1.325,-0.45 2.505,-1.045 3.54,-1.789 1.035,-0.741 1.866,-1.663 2.497,-2.764 0.629,-1.103 0.945,-2.461 0.945,-4.081 0,-2.294 -0.461,-4.215 -1.384,-5.766 -0.922,-1.553 -2.124,-2.799 -3.608,-3.743 -1.482,-0.944 -3.181,-1.608 -5.091,-1.99 -1.913,-0.381 -3.856,-0.573 -5.835,-0.573 -2.022,0 -4.004,0.2 -5.936,0.606 -1.932,0.404 -3.653,1.079 -5.159,2.023 -1.507,0.944 -2.742,2.193 -3.711,3.743 -0.966,1.551 -1.493,3.497 -1.583,5.835 h 9.106 C -0.639,1.63 -0.428,0.744 0,0"
             style="fill:#003d4f;fill-opacity:1;fill-rule:nonzero;stroke:none"
             id="path54" /></g><g
           id="g56"
           transform="translate(290.3809,235.064)"><path
             d="m 0,0 c -1.619,0 -2.698,0.272 -3.238,0.81 -0.538,0.54 -0.807,1.619 -0.807,3.238 v 17.265 h 5.342 l 3.265,6.408 h -8.607 v 10.453 h -9.578 V 27.721 h -4.797 l -3.257,-6.393 8.054,-0.015 V 0.744 c 0,-1.754 0.291,-3.17 0.875,-4.251 0.585,-1.079 1.383,-1.91 2.396,-2.495 1.01,-0.585 2.179,-0.977 3.507,-1.18 1.326,-0.203 2.731,-0.305 4.216,-0.305 0.944,0 1.91,0.025 2.898,0.069 0.991,0.044 1.891,0.134 2.698,0.269 V 0.272 C 2.517,0.181 2.045,0.112 1.551,0.069 1.057,0.022 0.541,0 0,0"
             style="fill:#003d4f;fill-opacity:1;fill-rule:nonzero;stroke:none"
             id="path58" /></g><g
           id="g60"
           transform="translate(83.8561,235.064)"><path
             d="m 0,0 c -1.619,0 -2.698,0.272 -3.238,0.81 -0.538,0.54 -0.807,1.619 -0.807,3.238 v 17.265 h 4.928 l 3.265,6.408 h -8.193 v 10.453 h -9.578 V 27.721 h -4.797 l -3.257,-6.393 8.054,-0.015 V 0.744 c 0,-1.754 0.291,-3.17 0.875,-4.251 0.585,-1.079 1.383,-1.91 2.396,-2.495 1.01,-0.585 2.179,-0.977 3.507,-1.18 1.326,-0.203 2.731,-0.305 4.216,-0.305 0.944,0 1.91,0.025 2.898,0.069 0.991,0.044 1.891,0.134 2.698,0.269 V 0.272 C 2.517,0.181 2.045,0.112 1.551,0.069 1.057,0.022 0.541,0 0,0"
             style="fill:#003d4f;fill-opacity:1;fill-rule:nonzero;stroke:none"
             id="path62" /></g><g
           id="g64"
           transform="translate(400.5107,263.7292)"><path
             d="m 0,0 c -8.057,0 -11.129,-7.418 -11.129,-7.418 v 0 h -0.134 v 6.474 h -9.106 v -34.87 h 9.578 v 14.622 -0.004 c 0,8.501 1.652,12.283 8.89,12.283 1.493,0 2.726,-0.341 3.747,-0.891 l 4.109,8.063 C 4.386,-0.73 2.425,0 0,0"
             style="fill:#003d4f;fill-opacity:1;fill-rule:nonzero;stroke:none"
             id="path66" /></g><g
           id="g68"
           transform="translate(333.8981,262.785)"><path
             d="M 0,0 -6.408,-23.607 H -6.543 L -12.476,0 h -9.309 l -5.802,-23.673 h -0.134 L -34.126,0 l -6.236,-12.239 7.18,-22.631 h 9.912 l 5.937,23.404 h 0.134 l 6.205,-23.404 h 9.847 L 9.847,0 Z"
             style="fill:#003d4f;fill-opacity:1;fill-rule:nonzero;stroke:none"
             id="path70" /></g></g></g></g></svg>
