<?xml version="1.0" encoding="utf-8"?>
<!-- Generator: Adobe Illustrator 24.0.0, SVG Export Plug-In . SVG Version: 6.00 Build 0)  -->
<svg version="1.1" id="图层_1" xmlns="http://www.w3.org/2000/svg" xmlns:xlink="http://www.w3.org/1999/xlink" x="0px" y="0px"
	 viewBox="0 0 420.47 130.08" style="enable-background:new 0 0 420.47 130.08;" xml:space="preserve">
<style type="text/css">
	.st0{fill:#B81C22;}
	.st1{fill-rule:evenodd;clip-rule:evenodd;}
</style>
<g>
	<g>
		<polygon class="st0" points="65.34,27.36 29.51,27.36 26.88,31.53 62.71,31.53 		"/>
		<polygon class="st0" points="156.57,21.03 33.02,21.03 30.37,25.22 153.53,25.22 		"/>
		<polygon class="st0" points="29.19,56.82 39.58,56.82 42.22,52.65 31.81,52.65 		"/>
		<polygon class="st0" points="35.31,46.35 32.68,50.51 43.08,50.51 45.7,46.35 		"/>
		<polygon class="st0" points="52.68,33.74 42.29,33.74 39.67,37.91 50.06,37.91 		"/>
		<path class="st0" d="M87.36,50.72c3.33-4.73,4.47-8.49,2.73-10.3c-0.99-1.02-3.15-0.96-3.15-0.96l-8.47,0.09
			c-1.4,0.06-2.93,1.06-4.59,3.03l9.78-15.99H71.83l-0.62,2.51L48.64,65.81c-0.49,0.63-0.98,1.22-1.46,1.77
			c-0.48,0.55-1.03,1.06-1.63,1.52h13.09l0.26-1.57l0.32-1.04l10.77-17.66l1.54-2.34c3.46-1.5,5.93-1.62,7.4-0.34l-0.52,0.87
			L67.83,64.43c-0.51,0.68-1.08,1.42-1.71,2.2c-0.63,0.78-1.36,1.6-2.18,2.47h13.55l-0.31-1.73L87.36,50.72z"/>
		<polygon class="st0" points="36.17,44.2 46.56,44.2 49.2,40.05 38.8,40.05 		"/>
		<polygon class="st0" points="25.64,63.19 36.04,63.19 38.67,59.04 28.27,59.04 		"/>
		<polygon class="st0" points="22.15,69.49 32.55,69.49 35.18,65.33 24.78,65.33 		"/>
		<path class="st0" d="M386.55,34.5h-9.77c-0.95,1.51-1.85,3.06-3.51,5.68h-6.64l-3.79,6.22h6.88l-10.58,17.52
			c0,0,0.8,4.64,5.94,5.17c5.14,0.53,9.12-2.2,9.12-2.2l2.66-4.44c-7.12,3.04-6.25-1.22-6.25-1.22l9.13-14.97l6.89,0.05l3.75-6.13
			h-7.17L386.55,34.5z"/>
		<path class="st0" d="M128.34,39.42h-13.18L115,40.98l-0.32,1.04l-10.87,17.68l-1.55,2.33c-3.33,1.5-7.77,2.56-7.34,0.43
			l11.05-18.36c0.59-0.75,1.2-1.51,1.84-2.29c0.64-0.78,1.33-1.57,2.05-2.38H96.15l0.49,1.74l-9.73,16.52
			c-1.29,2.22-4.16,7.16-4.69,8.39c-0.91,2.13,0.78,2.7,5.16,2.86l5.84,0.01c2.81,0,5-0.9,6.66-2.86l-1.91,3.04h12.02l0.53-2.52
			l14.61-23.79C126.05,41.53,127.12,40.41,128.34,39.42z"/>
		<path class="st0" d="M363.49,40.46l-6.99-0.02l0.21-0.37c2.93-3.67,6.55-5.52,10.48-4.14l3.73-6.06h-10.85
			c-5.23,0-7.18,2.66-9.87,5.9l-3.57,4.86h-8.31l-3.78,6.22h4.21h3.66L329.21,69.9h10.15l13.19-23.05h7.09L363.49,40.46z"/>
		<path class="st0" d="M248.1,46.14L247.67,47h7.89c2.56-4.59,2.47-7.09-0.3-7.49h-5.38c-2.84,0.06-5.08,1.07-6.75,3.03l1.94-3.12
			h-12.01l-0.53,2.52L217.89,65.8c-1.05,1.45-2.11,2.55-3.17,3.3h13.18l0.17-1.57l0.4-1.04l10.78-17.68l4.54-2.34
			C247.23,44.98,246.68,44.86,248.1,46.14z"/>
		<path class="st0" d="M154.65,39.6c-2.37,0-5.8-0.09-5.8-0.09c-2.83,0.06-5.08,1.07-6.75,3.04l1.94-3.13h-12.01l-0.54,2.52
			l-14.64,23.87c-1.04,1.45-2.11,2.54-3.18,3.3h13.19l0.16-1.57l0.41-1.04l12.31-20c3.46-1.5,5.89-1.62,7.31-0.34l-0.43,0.87
			l-10.58,17.41c-1.14,1.49-2.46,3.05-3.99,4.67l13.77,0.09l-0.45-1.83l10.21-16.67c1.2-2.06,1.81-3.08,2.53-4.42
			c0.9-1.67,1.32-2.58,1.84-3.98C160.75,40.17,157.01,39.6,154.65,39.6z"/>
		<path class="st0" d="M275.83,22.09c-1.3,0.7-2.61,1.74-3.95,3.13h32.57l2.52-4.18h-27.3C278.4,21.03,277.12,21.39,275.83,22.09z"
			/>
		<polygon class="st0" points="275.76,33.74 267.21,33.74 264.69,37.91 273.26,37.91 		"/>
		<path class="st0" d="M270.45,27.74c-0.08,0.12-0.16,0.22-0.21,0.31c-0.1,0.1-0.18,0.2-0.25,0.32c-0.06,0.11-0.14,0.24-0.23,0.38
			l-1.67,2.77h33.55l2.51-4.16h-33.43C270.63,27.5,270.54,27.62,270.45,27.74z"/>
		<path class="st0" d="M292.41,40.05h-28.55l-1.67,2.76c-0.08,0.14-0.17,0.27-0.23,0.39c-0.07,0.12-0.11,0.22-0.13,0.31
			c-0.06,0.1-0.11,0.2-0.16,0.32c-0.05,0.11-0.12,0.24-0.2,0.37h33.69c0.34-1.39,0.28-2.42-0.17-3.12
			C294.53,40.39,293.67,40.05,292.41,40.05z"/>
		<path class="st0" d="M243.48,69.59h29.72c1.25,0,2.52-0.34,3.82-1.03c1.3-0.7,2.61-1.74,3.94-3.12h-34.96L243.48,69.59z"/>
		<path class="st0" d="M261.18,49.47c0.45,0.7,1.31,1.04,2.56,1.04h28.55l1.68-2.78c0.08-0.14,0.15-0.27,0.23-0.38
			c0.06-0.11,0.11-0.22,0.13-0.3c0.06-0.1,0.11-0.2,0.15-0.32c0.06-0.11,0.13-0.24,0.21-0.38H261
			C260.66,47.73,260.71,48.77,261.18,49.47z"/>
		<path class="st0" d="M247.59,63.29h35.31c0.09-0.14,0.18-0.26,0.26-0.37c0.09-0.12,0.17-0.23,0.22-0.32
			c0.1-0.08,0.18-0.2,0.25-0.32c0.06-0.11,0.14-0.23,0.22-0.38l1.67-2.77h-35.42L247.59,63.29z"/>
		<polygon class="st0" points="279.88,56.82 288.45,56.82 290.96,52.65 282.39,52.65 		"/>
		<path class="st0" d="M192.17,29.63l-7.94,12.76c0.61-1.56,0.41-2.42-0.51-2.83L173,39.52c-4.85,0-8,3.24-9.05,4.76l-12.87,20.49
			l-0.34,0.86c-0.2,0.81-0.16,1.7,0.11,2.68c0.46,0.52,0.91,0.81,1.37,0.88h27.34l1.83-4.42l19.13-31.07l3.46-3.56l0.29-0.52H192.17
			z M180.64,46.99l-9.21,15.07l-1.05,0.87c-2.29,0.98-4.07,1.23-5.32,0.78c-1.1-0.41-1.47-0.98-1.11-1.74l8.93-14.81
			c0.23-0.32,0.96-1.57,1.87-1.57h5.91c0.12,0.08,0.14,0.3,0.14,0.53C180.79,46.35,180.79,46.58,180.64,46.99z"/>
		<path class="st0" d="M332.6,39.94l-8.79,0.01h-14.75c-3.31,0.3-4.99,0.99-6.57,2.09c-1.18,0.86-2.13,1.75-2.87,2.68l-1.6,1.99
			l-9.25,14.96c-0.32,0.52-1.42,2.62-1.42,2.62c-0.39,0.98-0.63,1.56-0.57,2.64c0.06,1.01,0.99,1.85,1.81,2.08L289,69.1h23.58
			c1.07-0.12,2.15-0.35,3.19-0.78c4.02-1.65,7.29-7.26,7.29-7.26l10.31-17.36c0.43-0.73,0.65-1.2,0.58-2.24
			C333.91,40.78,333.25,40.29,332.6,39.94z M318.67,47.74l-8.83,14.38c-0.64,0.69-1.22,1.1-1.75,1.21h-6.96
			c-0.93,0,0.44-2.19,0.6-2.43l8.05-13.06l0.82-1.06c0.61-0.63,1.32-0.94,2.12-1.1h3.26h1.89
			C319.44,45.49,319.71,46.18,318.67,47.74z"/>
		<path class="st0" d="M228.46,41.68c-0.09-0.68-0.6-1.76-1.39-2.17h-22.6c-1.83,0.2-3.23,0.89-4.62,1.87
			c-1.21,1.1-2.22,2.48-2.75,3.24l-12.4,20.94c-0.82,1.5-0.41,2.65,1.24,3.47l25.95,0.08c1.2-0.97,2.98-3.19,4.25-5.44
			c0.38-0.67,0.77-1.64,0.77-1.64s-8.85,1.57-13.47,1.64c-2.66,0.03-4.83-0.49-5.05-0.59c0.1-1.78,0.71-3.58,2.24-5.25
			c0,0,0.18-0.17,1.05-0.17c0.67,0,16.36,0,17.05,0c0.68,0,1.23-0.17,1.23-0.17l7.81-12.85l0.49-1.04
			C228.25,43.59,228.55,42.36,228.46,41.68z M216.47,47.12l-2.74,4.47h-9.33l2.66-4.47c0.83-1.53,2.79-2.26,5.88-2.19
			C215.99,44.75,217.17,45.48,216.47,47.12z"/>
	</g>
	<g>
		<path class="st1" d="M281.7,99.43c-0.03,0.04-0.18,0.13-0.17,0.2c0.06,0.46-0.28,0.7-0.53,0.98c-0.16,0.18-0.17,0.35-0.02,0.49
			c0.08,0.08,0.27,0.09,0.4,0.06c1.19-0.29,2.35-0.66,3.58-0.81c0.79-0.1,1.57-0.33,2.35-0.53c0.48-0.12,0.94-0.33,1.43-0.43
			c0.33-0.06,0.69,0.01,1.03,0.01c0.36,0,0.72-0.02,1.08-0.04c0.13-0.01,0.25-0.03,0.3-0.04c0.08-0.46,0.19-0.9,0.24-1.35
			c0.06-0.48,0.06-0.98,0.1-1.46c0.03-0.31,0.1-0.62,0.13-0.93c0.06-0.48,0.1-0.95,0.15-1.43c0.02-0.18,0.09-0.36,0.1-0.54
			c0.01-0.4-0.02-0.8-0.02-1.2c0.01-0.75,0-1.5,0.04-2.24c0.04-0.69,0.13-1.37,0.2-2.05c0.03-0.23,0.1-0.46,0.13-0.69
			c0.02-0.15,0.03-0.3,0.03-0.46c-0.04-0.75-0.17-1.5-0.12-2.25c0.05-0.75,0.45-1.39,1.05-1.87c0.13-0.1,0.43-0.2,0.48-0.14
			c0.15,0.16,0.27,0.4,0.29,0.62c0.03,0.26-0.07,0.54-0.08,0.81c-0.01,0.28-0.01,0.58,0.27,0.77c0.04,0.03,0.07,0.08,0.09,0.13
			c0.26,0.62,0.53,1.24,0.79,1.87c0.2,0.48,0.18,0.96,0.02,1.46c-0.09,0.28-0.13,0.56-0.09,0.89c0.05,0.4-0.1,0.83-0.1,1.25
			c0,1.03,0.05,2.06,0.04,3.09c0,0.45-0.09,0.91-0.12,1.36c-0.01,0.24,0.04,0.48,0.04,0.72c0,0.28-0.03,0.56-0.05,0.84
			c-0.01,0.17-0.07,0.35-0.03,0.5c0.09,0.38,0.03,0.74-0.02,1.12c-0.05,0.39,0.03,0.79,0.08,1.19c0.01,0.08,0.17,0.19,0.27,0.19
			c0.96,0.03,1.91,0.08,2.87,0.04c0.39-0.02,0.78-0.14,1.19-0.08c0.16,0.02,0.32,0.07,0.48,0.05c0.38-0.03,0.76-0.09,1.14-0.14
			c0.05-0.01,0.11-0.04,0.16-0.03c0.45,0.1,0.88,0,1.31-0.09c0.14-0.03,0.32,0.06,0.45,0.02c0.28-0.1,0.54-0.26,0.82-0.38
			c0.24-0.1,0.49-0.17,0.72-0.28c0.46-0.22,0.91-0.47,1.37-0.69c0.11-0.06,0.32-0.13,0.36-0.08c0.14,0.15,0.3,0.35,0.33,0.54
			c0.03,0.24-0.09,0.5-0.08,0.74c0.01,0.27,0.12,0.53,0.17,0.79c0.17,0.96,0.22,1.91-0.53,2.67c-0.33,0.34-0.75,0.6-1.24,0.7
			c-0.68,0.14-1.37,0.27-2.06,0.4c-0.77,0.15-1.51,0.14-2.24-0.21c-0.21-0.1-0.48-0.09-0.73-0.13c-0.24-0.04-0.47-0.1-0.7-0.14
			c-0.37-0.07-0.75-0.13-1.12-0.2c-0.78-0.14-1.55-0.29-2.33-0.43c-0.45-0.08-0.7,0.18-0.71,0.69c-0.02,0.62-0.08,1.23-0.09,1.85
			c-0.02,0.58,0,1.17,0,1.75c-0.01,0.85,0.18,1.7-0.03,2.56c-0.11,0.46-0.07,0.97-0.26,1.39c-0.14,0.3-0.13,0.71-0.5,0.91
			c-0.06,0.03-0.06,0.19-0.11,0.26c-0.17,0.23-0.33,0.47-0.54,0.67c-0.08,0.07-0.27,0.03-0.4,0.04c-0.12,0.01-0.23,0.01-0.38,0.02
			c-0.16-0.28-0.42-0.5-0.52-0.88c-0.08-0.28-0.32-0.55-0.36-0.88c-0.11-0.86-0.25-1.72-0.36-2.57c-0.02-0.16,0.12-0.34,0.1-0.5
			c-0.07-0.45,0.12-0.9-0.05-1.36c-0.06-0.15,0.07-0.36,0.06-0.54c-0.02-0.34-0.11-0.68-0.13-1.03c-0.02-0.31,0.02-0.62,0.03-0.93
			c0-0.26-0.01-0.51-0.02-0.76c0-0.09,0-0.19-0.01-0.28c-0.03-0.26,0.01-0.57-0.11-0.77c-0.09-0.14-0.4-0.18-0.62-0.2
			c-0.49-0.05-0.98-0.08-1.47-0.1c-0.76-0.02-1.53-0.04-2.29-0.03c-0.58,0.01-1.16,0.08-1.74,0.13c-1.38,0.1-2.72,0.36-3.98,0.99
			c-0.51,0.26-1.1,0.34-1.67,0.48c-0.19,0.05-0.3-0.07-0.25-0.27c0.04-0.16,0.12-0.3,0.17-0.46c0.1-0.32,0.21-0.64,0.28-0.96
			c0.05-0.23-0.09-0.32-0.3-0.38c-0.27-0.08-0.53-0.22-0.8-0.34c-0.22-0.09-0.43-0.19-0.69-0.3c-0.03,0.43-0.04,0.79-0.07,1.14
			c-0.03,0.43-0.09,0.86-0.11,1.29c-0.01,0.18,0.07,0.37,0.06,0.55c-0.02,0.36-0.06,0.72-0.1,1.09c-0.01,0.09-0.03,0.17-0.02,0.26
			c0.02,0.63,0.14,1.25,0.01,1.88c-0.07,0.34,0,0.72,0.04,1.08c0.07,0.71-0.23,1.32-0.52,1.93c-0.06,0.13-0.27,0.19-0.34,0.32
			c-0.11,0.21-0.15,0.45-0.22,0.68c-0.07,0.22-0.13,0.49-0.42,0.47c-0.14-0.01-0.35-0.15-0.4-0.27c-0.11-0.31-0.14-0.64-0.22-0.96
			c-0.04-0.16-0.11-0.32-0.14-0.49c-0.13-0.77-0.43-1.51-0.17-2.32c0.11-0.35,0.04-0.75,0.05-1.13c0.01-0.71,0.05-1.43,0-2.14
			c-0.06-0.86,0.27-1.68,0.19-2.54c-0.03-0.27-0.06-0.54-0.1-0.92c-0.38,0.26-0.69,0.43-0.95,0.66c-0.47,0.42-1.04,0.62-1.63,0.77
			c-0.01,0-0.03,0-0.03,0.01c-0.15,0.35-0.57,0.22-0.81,0.44c-0.19,0.17-0.53,0.18-0.73,0.35c-0.48,0.38-1.1,0.29-1.6,0.56
			c-0.27,0.14-0.55,0.33-0.84,0.37c-0.61,0.1-1.23,0.12-1.84,0.17c-0.05,0-0.11,0.02-0.16,0.02c-0.54,0.09-1.05-0.04-1.51-0.31
			c-0.33-0.19-0.6-0.5-0.89-0.75c-0.06-0.05-0.13-0.08-0.18-0.13c-0.24-0.23-0.46-0.44-0.35-0.84c0.09-0.34,0.08-0.71,0.1-1.07
			c0.02-0.3,0.38-0.56,0.72-0.47c0.51,0.14,1.01,0.13,1.53,0.05c0.32-0.05,0.64-0.09,0.96-0.13c0.02,0,0.05,0,0.06-0.01
			c0.4-0.37,0.96-0.18,1.41-0.39c0.16-0.08,0.33-0.17,0.5-0.23c0.11-0.04,0.24-0.03,0.36-0.06c0.83-0.2,1.58-0.57,2.28-1.05
			c0.49-0.34,1.03-0.62,1.47-1.01c0.35-0.31,0.59-0.75,0.85-1.15c0.32-0.48,0.6-0.98,0.91-1.46c0.21-0.33,0.08-0.61-0.27-0.76
			c-0.38-0.16-0.69,0-1.03,0.07c-0.31,0.06-0.62,0.19-0.94,0.22c-0.34,0.03-0.68-0.05-1.02-0.07c-0.69-0.03-1.37-0.14-2.05,0.13
			c-0.38,0.15-0.79,0.2-1.18,0.3c-0.3,0.08-0.58,0.07-0.86-0.08c-0.2-0.1-0.43-0.15-0.64-0.25c-0.25-0.13-0.27-0.36-0.18-0.6
			c0.16-0.41,0.31-0.83,0.53-1.22c0.17-0.3,0.45-0.49,0.83-0.48c0.21,0,0.41-0.04,0.62-0.05c0.07,0,0.18,0.01,0.21,0.06
			c0.26,0.44,0.64,0.23,0.97,0.19c0.38-0.05,0.75-0.19,1.13-0.28c0.72-0.15,1.45-0.28,2.17-0.44c0.55-0.12,1.09-0.27,1.63-0.4
			c0.1-0.02,0.22,0,0.32-0.03c0.33-0.1,0.6-0.6,0.55-0.97c-0.02-0.17-0.03-0.34-0.02-0.52c0.03-0.69,0.07-1.37,0.1-2.06
			c0.01-0.28-0.33-0.61-0.62-0.72c-0.49-0.2-0.99-0.39-1.4-0.76c-0.15-0.13-0.45-0.2-0.65-0.16c-0.48,0.1-0.95,0.26-1.42,0.42
			c-0.68,0.22-1.18-0.07-1.24-0.78c-0.04-0.49-0.01-0.98,0.01-1.48c0.01-0.28,0.62-0.68,0.88-0.6c0.04,0.01,0.1,0.03,0.11,0.07
			c0.14,0.39,0.33,0.18,0.56,0.09c0.3-0.12,0.63-0.17,0.95-0.26c0.21-0.06,0.43-0.1,0.63-0.19c0.88-0.39,1.82-0.55,2.76-0.68
			c0.36-0.05,0.74-0.03,1.1-0.1c0.6-0.13,1.2,0.01,1.81-0.03c0.66-0.05,1.34,0.23,1.96,0.55c0.23,0.12,0.48,0.19,0.68,0.33
			c0.28,0.2,0.54,0.43,0.77,0.69c0.07,0.08,0.02,0.3-0.03,0.44c-0.04,0.11-0.16,0.21-0.27,0.27c-0.3,0.17-0.61,0.31-0.91,0.46
			c-0.03,0.01-0.07-0.01-0.1,0c-0.62,0.28-1.23,0.56-1.85,0.83c-0.25,0.11-0.5,0.21-0.75,0.28c-0.56,0.15-0.7,0.35-0.66,0.91
			c0.02,0.31,0,0.63-0.05,0.93c-0.08,0.46-0.23,0.91-0.29,1.38c-0.05,0.4-0.06,0.81-0.01,1.2c0.01,0.1,0.33,0.23,0.5,0.23
			c0.36-0.01,0.72-0.11,1.08-0.15c0.18-0.02,0.36,0.05,0.53,0.04c0.45-0.04,0.9-0.17,1.34-0.15c0.53,0.02,1.06,0.16,1.59,0.25
			c0.05,0.01,0.1,0.05,0.15,0.06c0.42,0.03,0.56,0.28,0.62,0.66c0.04,0.24,0.18,0.46,0.25,0.7c0.09,0.28-0.03,0.43-0.26,0.65
			c-0.4,0.38-0.93,0.36-1.37,0.59c-0.25,0.13-0.61,0.02-0.89,0.1c-0.37,0.11-0.71,0.32-1.07,0.46c-0.15,0.06-0.33,0.09-0.5,0.09
			c-0.51,0-1.02-0.03-1.52-0.04c-0.37,0-0.47,0.13-0.4,0.5c0.03,0.15,0.02,0.31,0.03,0.46c0.02,0.33,0.03,0.67,0.07,1
			c0.02,0.19,0.14,0.28,0.34,0.36c0.42,0.17,0.8,0.43,1.18,0.68c0.27,0.18,0.49,0.43,0.76,0.61c0.23,0.15,0.5,0.23,0.74,0.36
			c0.11,0.06,0.21,0.16,0.29,0.26C281.29,98.88,281.48,99.15,281.7,99.43z"/>
		<path class="st1" d="M247.21,99.77c0.28-0.08,0.59-0.18,0.9-0.26c0.39-0.11,0.79-0.23,1.19-0.31c0.42-0.08,0.85-0.12,1.27-0.18
			c0.14-0.02,0.28-0.07,0.41-0.08c0.6-0.04,1.2-0.05,1.8-0.1c0.3-0.03,0.59-0.14,0.89-0.17c0.45-0.05,0.91-0.04,1.36-0.09
			c0.39-0.04,0.76-0.15,1.16-0.02c0.06,0.02,0.21-0.06,0.23-0.13c0.13-0.39,0.25-0.79,0.33-1.19c0.11-0.54,0.18-1.09,0.27-1.64
			c0.09-0.52,0.16-1.03,0.27-1.55c0.07-0.34,0.18-0.67,0.28-1.01c0.07-0.23,0.02-0.36-0.25-0.38c-0.4-0.02-0.8-0.04-1.19-0.08
			c-0.15-0.02-0.3-0.09-0.45-0.14c-0.07-0.02-0.15-0.07-0.21-0.05c-0.62,0.12-1.19-0.2-1.78-0.23c-0.35-0.02-0.69,0.01-1.04-0.02
			c-0.32-0.02-0.64-0.09-0.96-0.12c-0.16-0.01-0.34-0.02-0.5,0.03c-0.45,0.15-0.89-0.09-1.33,0c-0.19,0.04-0.41-0.01-0.62-0.05
			c-0.21-0.04-0.4-0.11-0.44,0.16c-1.22-0.45-2.46-0.25-3.74-0.27c0,0.38,0,0.76,0,1.13c0,0.14,0.03,0.28,0.03,0.42
			c0,0.57,0.14,1.14,0.04,1.73c-0.05,0.27,0.07,0.57,0.07,0.85c-0.01,0.54-0.08,1.08-0.07,1.62c0.01,0.77,0.07,1.54,0.11,2.31
			c0,0.1,0,0.19-0.01,0.29c-0.03,0.29-0.1,0.55,0.05,0.88c0.13,0.29,0.03,0.68,0.04,1.03c0.02,0.68,0.06,1.37,0.07,2.05
			c0,0.36-0.11,0.72-0.06,1.07c0.06,0.44,0.04,0.86-0.1,1.27c-0.21,0.63-0.12,1.3-0.26,1.94c-0.05,0.23-0.15,0.44-0.22,0.67
			c-0.08,0.28-0.21,0.56-0.2,0.84c0.03,0.85-0.32,1.6-0.64,2.34c-0.21,0.48-0.5,0.93-0.77,1.39c-0.03,0.06-0.12,0.09-0.18,0.13
			c-0.24,0.16-0.46,0.38-0.73,0.47c-0.23,0.07-0.53,0.04-0.77-0.04c-0.12-0.04-0.18-0.26-0.28-0.43c-0.2,0.1-0.38-0.03-0.4-0.31
			c-0.02-0.46-0.34-0.72-0.61-1.02c-0.08-0.09-0.07-0.26-0.08-0.4c-0.03-0.2-0.01-0.42-0.07-0.61c-0.18-0.56-0.04-1.14-0.1-1.71
			c-0.04-0.37-0.09-0.74-0.12-1.11c-0.01-0.15,0.01-0.3,0.02-0.46c0.03-0.53,0.15-1.07,0.06-1.57c-0.1-0.61,0.05-1.18,0.05-1.76
			c0-0.27,0-0.56-0.1-0.81c-0.17-0.42-0.08-0.8,0.02-1.2c0.05-0.22,0.02-0.47-0.03-0.69c-0.05-0.24-0.17-0.47-0.28-0.74
			c-0.21,0.1-0.45,0.2-0.66,0.33c-0.34,0.2-0.68,0.3-1.09,0.26c-0.31-0.03-0.62,0.07-0.93,0.12c-0.13,0.02-0.25,0.03-0.38,0.05
			c-0.37,0.04-0.74,0.12-1.1,0.12c-0.39,0-0.78-0.04-1.17-0.1c-0.39-0.06-0.77-0.21-1.16-0.23c-0.28-0.02-0.59,0.06-0.85,0.18
			c-0.58,0.26-1.13,0.27-1.68-0.05c-0.18-0.11-0.42-0.2-0.5-0.36c-0.13-0.28,0.08-0.53,0.22-0.78c0.22-0.39,0.42-0.79,0.63-1.18
			c0.03-0.06,0.06-0.13,0.12-0.15c0.29-0.13,0.58-0.26,0.88-0.36c0.04-0.01,0.19,0.11,0.2,0.18c0.02,0.18,0.1,0.2,0.26,0.19
			c0.49-0.04,0.99-0.05,1.48-0.09c0.22-0.02,0.44-0.08,0.67-0.12c0.5-0.07,0.99-0.15,1.49-0.21c0.47-0.06,0.97-0.19,1.42-0.11
			c0.53,0.09,1.12,0,1.6,0.43c0.16,0.15,0.54,0.06,0.82,0.06c0.05,0,0.14-0.12,0.15-0.2c0.04-0.34,0.04-0.69,0.07-1.03
			c0.03-0.28,0.08-0.57,0.1-0.85c0.02-0.28,0-0.57,0.03-0.85c0.05-0.49,0.12-0.99,0.17-1.48c0.02-0.16,0.02-0.33,0.03-0.49
			c0.01-0.72,0.05-1.44,0.03-2.16c-0.01-0.53-0.24-0.71-0.75-0.64c-0.5,0.07-1,0.05-1.5,0.07c-0.38,0.01-0.81,0.02-1.2,0.25
			c-0.4,0.23-0.93,0.24-1.38,0.42c-0.3,0.12-0.61-0.02-0.92,0.16c-0.21,0.13-0.55,0.05-0.83,0.06c-0.01-0.03-0.01-0.06-0.02-0.09
			c-0.1,0.1-0.2,0.19-0.25,0.24c-0.28,0.03-0.49,0.06-0.71,0.07c-0.4,0.01-0.8-0.02-1.2,0c-0.1,0-0.26,0.08-0.29,0.16
			c-0.1,0.3-0.18,0.61-0.22,0.92c-0.08,0.56-0.11,1.12-0.18,1.68c-0.07,0.55-0.11,1.11-0.25,1.65c-0.11,0.46-0.2,0.92-0.36,1.38
			c-0.34,0.95-0.99,1.69-1.43,2.57c-0.34,0.68-0.79,1.31-1.19,1.96c-0.1,0.16-0.2,0.24-0.4,0.14c-0.2-0.1-0.23-0.22-0.16-0.43
			c0.14-0.41,0.24-0.84,0.4-1.24c0.12-0.29,0.32-0.55,0.48-0.82c0.59-1.03,1.23-2.03,1.74-3.1c0.28-0.58,0.39-1.25,0.49-1.89
			c0.11-0.74,0.15-1.5,0.18-2.25c0.03-0.75-0.52-1.16-1.05-1.52c-0.39-0.27-0.86-0.44-1.31-0.61c-0.19-0.07-0.43-0.03-0.64-0.02
			c-0.45,0.02-0.74-0.3-1.08-0.51c-0.02-0.01-0.04-0.06-0.04-0.08c0.04-0.35,0.05-0.72,0.13-1.06c0.1-0.39,0.43-0.51,0.8-0.56
			c0.12-0.02,0.28-0.12,0.34-0.22c0.12-0.21,0.24-0.31,0.5-0.22c0.63,0.21,1.23-0.01,1.82-0.19c0.27-0.08,0.54-0.14,0.8-0.22
			c0.44-0.13,0.88-0.28,1.32-0.42c0.2-0.06,0.39-0.12,0.59-0.16c0.65-0.12,1.3-0.23,1.96-0.34c0.03-0.01,0.07-0.03,0.1-0.02
			c0.57,0.19,1.04-0.13,1.56-0.26c0.41-0.11,0.83-0.12,1.24-0.22c0.34-0.08,0.7-0.02,1.02-0.26c0.13-0.1,0.38-0.02,0.58-0.03
			c0.29-0.02,0.58-0.04,0.86-0.08c0.07-0.01,0.17-0.07,0.19-0.13c0.11-0.37,0.25-0.73,0.3-1.11c0.07-0.53,0.02-1.07,0.09-1.59
			c0.07-0.48,0.13-1.03,0.41-1.39c0.46-0.59,0.75-1.42,1.67-1.55c0.31-0.05,0.5,0.01,0.58,0.29c-0.09,0.01-0.17,0.02-0.23,0.03
			c-0.08,0.15-0.15,0.29-0.23,0.43c-0.4,0.68-0.67,1.43-0.2,2.14c0.37,0.56,0.59,1.18,0.88,1.77c0.25,0.51,0.65,0.84,1.34,0.76
			c0.43-0.05,0.88,0.13,1.33,0.18c0.32,0.03,0.64-0.01,0.96,0.02c0.36,0.03,0.72,0.09,1.08,0.15c0.67,0.11,1.33,0.11,2.01,0.1
			c0.35-0.01,0.7,0.04,1.05,0.06c0.09,0,0.18,0,0.26,0c0.56-0.02,1.13-0.07,1.69-0.06c0.26,0,0.51,0.13,0.77,0.17
			c0.42,0.07,0.84,0.11,1.26,0.16c0.41,0.05,0.82,0.08,1.23,0.12c0.02,0,0.06-0.01,0.06,0.01c0.23,0.38,0.6,0.09,0.89,0.2
			c0.29,0.11,0.58,0.21,0.88,0.28c0.62,0.14,0.94,0.66,1.42,1.15c0.07-0.23,0.15-0.39,0.16-0.55c0.01-0.29,0.39-0.74,0.66-0.82
			c0.52-0.16,0.82,0.18,1.06,0.49c0.12,0.15,0.01,0.5-0.04,0.75c-0.03,0.16-0.13,0.32-0.22,0.46c-0.11,0.19-0.23,0.36-0.35,0.54
			c-0.09,0.14-0.18,0.29-0.28,0.43c-0.12,0.17-0.26,0.31-0.37,0.48c-0.19,0.28-0.38,0.56-0.53,0.86c-0.22,0.46-0.46,0.9-0.72,1.33
			c-0.45,0.78-0.84,1.61-1.01,2.51c-0.12,0.64-0.32,1.27-0.41,1.92c-0.08,0.62-0.21,1.25-0.01,1.89c0.05,0.15,0,0.36-0.07,0.5
			c-0.21,0.37-0.34,0.81-0.73,1.06c-0.18,0.12-0.33,0.25-0.56,0.15c-0.06-0.02-0.14-0.03-0.19,0c-0.72,0.35-1.51,0.05-2.25,0.21
			c-0.34,0.08-0.7,0.14-1.04,0.13c-0.51-0.02-1.01-0.1-1.51-0.16c-0.4-0.04-0.82-0.04-1.21-0.12c-0.67-0.13-1.41,0.21-2.03-0.29
			c-0.15-0.12-0.39-0.15-0.5-0.3C247.36,100.33,247.32,100.06,247.21,99.77z"/>
		<path class="st1" d="M373.55,108.99c-0.26-0.44-0.57-0.86-0.77-1.33c-0.14-0.33-0.18-0.71-0.2-1.08
			c-0.05-0.59-0.06-1.17-0.06-1.76c0-0.41,0.04-0.83,0.07-1.24c0.04-0.55-0.13-0.72-0.7-0.7c-0.33,0.01-0.67,0.03-1,0.03
			c-0.57,0-1.14-0.05-1.71,0c-0.38,0.04-0.77,0.17-1.12,0.34c-0.75,0.37-1.52,0.68-2.36,0.77c-0.22,0.02-0.53,0-0.67-0.13
			c-0.21-0.2-0.1-0.51,0.03-0.76c0.24-0.45,0.53-0.82,1.11-0.95c0,0.13,0.01,0.25,0,0.36c-0.03,0.26,0.08,0.4,0.33,0.34
			c0.56-0.14,1.11-0.31,1.67-0.44c0.45-0.11,0.91-0.19,1.37-0.25c0.86-0.11,1.73-0.19,2.59-0.29c0.3-0.04,0.46-0.18,0.44-0.53
			c-0.02-0.5,0.03-1,0.05-1.5c0.01-0.23-0.14-0.29-0.32-0.28c-0.31,0.01-0.61,0.08-0.91,0.09c-0.5,0.02-1,0.01-1.5,0.04
			c-0.67,0.04-1.34,0.08-2.01,0.14c-0.49,0.04-0.97,0.12-1.46,0.16c-0.1,0.01-0.26-0.06-0.29-0.14c-0.04-0.08,0.02-0.23,0.08-0.33
			c0.18-0.28,0.38-0.53,0.56-0.81c0.29-0.44,0.7-0.42,0.97,0.02c0.06,0.1,0.22,0.2,0.33,0.19c0.31-0.01,0.63-0.1,0.94-0.11
			c0.49-0.03,0.99,0,1.48-0.03c0.58-0.04,1.18-0.04,1.7-0.36c0.18-0.11,0.45-0.13,0.54-0.28c0.09-0.15-0.03-0.4-0.01-0.6
			c0.04-0.49-0.37-0.72-0.6-1.04c-0.37-0.51-0.92-0.39-1.42-0.34c-0.54,0.05-1.07,0.2-1.6,0.31c-0.52,0.11-1.04,0.21-1.56,0.32
			c-0.35,0.08-0.7,0.18-1.04,0.28c-0.21,0.06-0.42,0.15-0.61-0.05c-0.2-0.21-0.24-0.46-0.08-0.69c0.28-0.41,0.53-0.87,1.01-1.08
			c0.33-0.14,0.72-0.13,1-0.43c0.04-0.05,0.21,0.02,0.38,0.04c-0.14,0.17-0.23,0.27-0.31,0.39c-0.13,0.18-0.04,0.38,0.17,0.36
			c0.42-0.05,0.84-0.12,1.24-0.25c0.36-0.12,0.44-0.47,0.46-0.81c0.02-0.54,0-1.09,0.03-1.63c0.04-0.76-0.39-1.22-0.98-1.56
			c-0.11-0.06-0.25-0.1-0.37-0.09c-0.59,0.07-1.19,0.15-1.78,0.24c-0.27,0.04-0.53,0.14-0.8,0.16c-0.12,0.01-0.29-0.09-0.36-0.19
			c-0.07-0.09-0.06-0.25-0.04-0.37c0.13-0.63,0.86-1.28,1.49-1.33c0.06,0,0.15,0.03,0.2,0.08c0.24,0.23,0.52,0.24,0.84,0.13
			c0.45-0.15,0.91-0.25,1.37-0.37c0.4-0.1,0.8-0.18,1.2-0.3c0.28-0.09,0.55-0.23,0.85-0.06c0.01,0.01,0.02,0.01,0.03,0.01
			c0.33-0.01,0.67-0.01,1-0.03c0.06,0,0.17-0.11,0.17-0.18c0.05-0.6,0.09-1.19,0.11-1.79c0.02-0.47-0.24-0.7-0.75-0.66
			c-0.66,0.05-1.32,0.15-1.98,0.19c-0.37,0.02-0.74-0.03-1.11-0.06c-0.5-0.05-1-0.14-1.51-0.15c-0.27-0.01-0.55,0.12-0.82,0.19
			c-0.24,0.05-0.49,0.15-0.73,0.13c-0.29-0.02-0.37-0.24-0.19-0.47c0.22-0.27,0.46-0.53,0.7-0.78c0.04-0.04,0.14-0.06,0.2-0.06
			c1.02,0.03,2.04-0.09,3.04-0.26c0.55-0.09,1.07-0.32,1.61-0.43c0.42-0.08,0.87-0.07,1.3-0.11c0.53-0.06,0.66-0.15,0.73-0.67
			c0.07-0.48,0.1-0.96,0.05-1.46c-0.05-0.52,0.03-1.09,0.23-1.57c0.13-0.3,0.34-0.58,0.43-0.91c0.02-0.08,0.16-0.13,0.24-0.19
			c0.1-0.07,0.19-0.13,0.29-0.2c0.13-0.08,0.33-0.25,0.37-0.21c0.16,0.13,0.35,0.31,0.37,0.49c0.04,0.36,0.03,0.72-0.21,1.06
			c-0.21,0.3-0.25,0.68-0.01,1.05c0.12,0.19,0.13,0.45,0.19,0.68c0.13,0.5,0.26,0.99,0.38,1.49c0.06,0.26,0.23,0.39,0.47,0.44
			c0.28,0.05,0.57,0.09,0.86,0.14c0.04,0.01,0.09,0.03,0.13,0.02c0.56-0.15,1.07,0.04,1.61,0.16c0.27,0.06,0.57,0,0.86,0
			c0.19,0,0.39,0.06,0.58,0.03c0.79-0.12,1.46,0.34,2.21,0.4c0.07,0.01,0.17,0.09,0.19,0.16c0.08,0.29,0.32,0.37,0.55,0.47
			c0.11,0.05,0.22,0.11,0.3,0.2c0.14,0.16,0.13,0.3-0.07,0.43c-0.5,0.31-1.05,0.21-1.59,0.22c-0.67,0.01-1.33,0-2-0.01
			c-0.75-0.01-1.5,0.01-2.24-0.06c-0.44-0.04-0.87-0.2-1.32-0.1c-0.11,0.03-0.28,0.13-0.3,0.22c-0.1,0.63-0.17,1.26-0.24,1.9
			c-0.03,0.26,0.14,0.31,0.36,0.28c0.58-0.09,1.13-0.09,1.71,0.1c0.54,0.18,1.13,0.23,1.7,0.33c0.23,0.04,0.46,0.1,0.7,0.12
			c0.34,0.03,0.69-0.01,1.03,0.05c0.56,0.1,1.15,0.03,1.69,0.28c0.39,0.18,0.38,0.59,0.61,0.85c-0.12,0.1-0.23,0.26-0.35,0.27
			c-0.56,0.05-1.12,0.05-1.68,0.07c-0.69,0.03-1.37,0.04-2.06,0.08c-0.39,0.03-0.45,0.15-0.42,0.54c0.06,0.86,0.11,1.72,0.16,2.58
			c0.02,0.35,0.19,0.49,0.53,0.45c0.18-0.03,0.37-0.01,0.55,0c0.55,0.03,1.11,0.01,1.65,0.11c0.3,0.05,0.63,0.17,0.78,0.52
			c0.06,0.13,0.16,0.23,0.23,0.36c0.06,0.11,0.16,0.26,0.13,0.33c-0.05,0.11-0.2,0.17-0.33,0.23c-0.49,0.22-0.99,0.01-1.49,0.02
			c-0.63,0.01-1.27,0.03-1.9,0.05c-0.3,0.01-0.6,0.05-0.91,0.07c-0.05,0.01-0.12,0.01-0.15,0.05c-0.2,0.24-0.47,0.21-0.71,0.12
			c-0.23-0.08-0.49-0.07-0.7-0.3c-0.17-0.19-0.5-0.24-0.76-0.35c-0.04-0.01-0.12,0-0.12,0.01c-0.06,0.36-0.57,0.44-0.51,0.87
			c0.04,0.29,0.02,0.56-0.23,0.78c-0.08,0.07-0.13,0.33-0.08,0.37c0.13,0.12,0.33,0.25,0.49,0.24c0.6-0.02,1.19-0.1,1.79-0.16
			c0.64-0.06,1.28-0.18,1.93-0.03c0.2,0.04,0.43-0.08,0.64-0.05c0.48,0.06,0.97,0.14,1.45,0.24c0.38,0.07,0.69,0.47,0.68,0.86
			c0,0.06-0.06,0.16-0.11,0.17c-0.26,0.04-0.52,0.1-0.77,0.08c-0.85-0.05-1.7-0.22-2.54-0.18c-0.98,0.04-1.95,0.24-2.92,0.39
			c-0.42,0.07-0.55,0.25-0.54,0.68c0.01,0.29-0.01,0.59,0.07,0.87c0.12,0.41,0.36,0.51,0.8,0.5c0.49-0.01,0.98,0.02,1.48,0.03
			c0.2,0,0.41,0,0.61-0.01c0.3-0.02,0.61-0.07,0.91-0.08c0.73,0,1.46-0.01,2.19,0.03c0.53,0.03,1.07,0.08,1.57,0.23
			c0.3,0.09,0.55,0.38,0.82,0.59c0.12,0.09,0.25,0.16,0.35,0.27c0.08,0.09,0.12,0.21,0.19,0.31c-0.12,0.04-0.23,0.11-0.35,0.11
			c-0.45-0.03-0.89-0.11-1.34-0.14c-0.54-0.04-1.09-0.05-1.63-0.08c-0.69-0.04-1.37-0.1-2.06-0.15c-0.09-0.01-0.19,0.02-0.28,0.04
			c-0.24,0.05-0.48,0.14-0.71,0.14c-0.64,0-1.27-0.05-1.91-0.08c-0.06,0-0.11-0.01-0.16,0c-0.61,0.02-0.67,0.09-0.68,0.69
			c-0.01,0.44-0.06,0.89-0.09,1.33c-0.05,0.64-0.09,1.29-0.16,1.93c-0.01,0.12-0.08,0.28-0.17,0.35c-0.4,0.26-0.35,0.67-0.41,1.06
			c-0.02,0.15-0.07,0.31-0.15,0.45c-0.14,0.24-0.09,0.41,0.19,0.51c1.07,0.38,2.13,0.8,3.21,1.12c0.69,0.21,1.42,0.28,2.13,0.4
			c0.45,0.08,0.91,0.16,1.37,0.19c0.29,0.02,0.59-0.04,0.89-0.05c0.24-0.02,0.49-0.05,0.73-0.03c0.42,0.02,0.83,0.11,1.24,0.2
			c0.39,0.08,0.83-0.07,1.25-0.13c0.38-0.05,0.79-0.23,1.12-0.12c0.3,0.1,0.56,0.16,0.85,0.09c0.09-0.02,0.18-0.03,0.27-0.05
			c0.02,0,0.04-0.03,0.06-0.03c0.31-0.03,0.62-0.09,0.92-0.07c0.55,0.04,0.66,0.33,0.58,0.89c-0.05,0.38-0.19,0.75-0.54,0.98
			c-0.04,0.02-0.09,0.06-0.09,0.09c0.04,0.63-0.73,0.82-0.75,1.41c0,0.03-0.03,0.07-0.06,0.07c-0.49,0.15-0.57,0.69-0.93,0.96
			c-0.26,0.19-0.58,0.32-0.89,0.43c-0.27,0.1-0.56,0.16-0.85,0.19c-0.23,0.02-0.48,0.01-0.71-0.04c-0.3-0.06-0.57-0.15-0.88,0.02
			c-0.15,0.08-0.45,0.02-0.62-0.07c-0.58-0.33-1.19-0.57-1.85-0.69c-0.53-0.09-1.1-0.17-1.56-0.42c-0.65-0.35-1.39-0.4-2.03-0.78
			c-0.51-0.3-1.13-0.41-1.68-0.65c-0.56-0.24-1.09-0.53-1.64-0.79c-0.56-0.27-1.12-0.53-1.69-0.78c-0.79-0.34-1.59-0.68-2.39-0.98
			c-0.53-0.2-1.09-0.32-1.63-0.49c-0.29-0.09-0.56-0.25-0.84-0.36c-1.09-0.4-2.18-0.8-3.28-1.17c-0.71-0.24-1.43-0.45-2.16-0.64
			c-0.47-0.12-0.96-0.16-1.44-0.25c-0.99-0.18-1.98-0.35-2.96-0.54c-0.48-0.09-0.95-0.28-1.42-0.28c-0.51,0-0.99,0.21-1.42,0.52
			c-0.44,0.32-0.91,0.6-1.39,0.86c-0.28,0.16-0.5,0.03-0.58-0.3c-0.18-0.75,0.06-1.34,0.74-1.62c0.1-0.04,0.24-0.04,0.34,0
			c0.48,0.17,0.71,0.14,1.06-0.27c0.5-0.57,1-1.12,1.65-1.54c0.31-0.2,0.52-0.54,0.81-0.79c0.25-0.22,0.55-0.4,0.82-0.6
			c0.04-0.03,0.08-0.06,0.12-0.09c0.37-0.3,0.74-0.6,1.11-0.91c0.24-0.2,0.44-0.46,0.7-0.6c0.52-0.26,1-0.57,1.43-0.97
			c0.1-0.09,0.32-0.06,0.49-0.08c0,0.14,0.02,0.28-0.01,0.42c-0.06,0.32-0.15,0.62-0.54,0.69c-0.04,0.01-0.08,0.07-0.11,0.12
			c-0.22,0.26-0.44,0.5-0.65,0.77c-0.1,0.13-0.17,0.28-0.21,0.44c-0.1,0.37-0.21,0.71-0.47,1.03c-0.23,0.29-0.36,0.67-0.51,1.02
			c-0.07,0.17,0.14,0.36,0.34,0.39c0.37,0.05,0.73,0.1,1.09,0.19c0.71,0.19,1.43,0.22,2.17,0.22c0.3,0,0.61,0.13,0.91,0.23
			c0.39,0.13,0.77,0.31,1.16,0.44c0.16,0.06,0.34,0.07,0.51,0.09c0.1,0.01,0.2-0.01,0.29,0.02c0.64,0.23,1.32,0.29,1.97,0.47
			c0.5,0.14,0.98,0.36,1.48,0.5c0.25,0.07,0.53,0.05,0.79,0.07c0.13,0.01,0.27,0.01,0.39,0.06c0.53,0.19,1.05,0.38,1.58,0.59
			c0.18,0.07,0.34,0.19,0.51,0.27c0.35,0.17,0.7,0.32,1.06,0.48C373.48,109.08,373.52,109.03,373.55,108.99z M372.45,91.34
			c-0.53,0-0.72,0.16-0.8,0.6c-0.12,0.73-0.08,1.49-0.44,2.17c-0.08,0.15-0.08,0.37-0.06,0.55c0.01,0.08,0.16,0.21,0.23,0.2
			c0.28-0.03,0.56-0.08,0.83-0.17c0.35-0.12,0.69-0.28,1.03-0.42c0.07-0.03,0.15-0.03,0.23-0.02c0.3,0.05,0.61,0.11,0.91,0.17
			c0.2,0.03,0.43,0.14,0.59,0.07c0.47-0.19,0.89-0.05,1.31,0.09c0.35,0.11,0.57,0.03,0.65-0.32c0.03-0.14,0.05-0.28,0.05-0.42
			c0.03-0.63,0.06-1.26,0.08-1.89c0.01-0.25-0.03-0.48-0.35-0.47c-0.34,0.01-0.68-0.01-1.01,0.04c-0.33,0.05-0.66,0.14-0.97,0.27
			c-0.21,0.08-0.39,0.26-0.59,0.36c-0.07,0.03-0.24,0-0.29-0.07C373.47,91.58,372.91,91.48,372.45,91.34z"/>
		<path class="st1" d="M343.17,94.3c0.05-0.29,0.1-0.57,0.15-0.85c0.2-1.15,0.37-2.31,0.33-3.48c-0.02-0.63-0.1-1.27-0.12-1.9
			c-0.03-0.87-0.06-1.74,0.3-2.55c0.2-0.45,0.38-0.9,0.37-1.41c0-0.25,0.38-0.39,0.67-0.25c0.15,0.07,0.31,0.18,0.41,0.31
			c0.14,0.18,0.17,0.41-0.05,0.55c-0.63,0.4-0.59,1.02-0.63,1.65c-0.07,1.07,0.37,2.07,0.41,3.11c0.04,1.01,0,2.03-0.03,3.04
			c-0.02,0.79-0.1,1.57-0.14,2.36c-0.02,0.51-0.02,1.02-0.02,1.53c0,0.54,0,1.08,0.02,1.62c0.02,0.39,0.1,0.78,0.13,1.17
			c0.03,0.4,0.02,0.8,0.08,1.19c0.1,0.68,0.15,1.35,0.15,2.04c0,0.63,0.18,1.26,0.22,1.9c0.05,0.79-0.02,1.59,0.07,2.38
			c0.07,0.63,0.04,1.26-0.03,1.88c-0.06,0.54-0.25,1.08-0.41,1.61c-0.12,0.39-0.28,0.77-0.44,1.14c-0.07,0.16-0.2,0.29-0.31,0.42
			c-0.03,0.04-0.12,0.06-0.13,0.1c-0.08,0.47-0.52,0.55-0.83,0.76c-0.08,0.05-0.17,0.1-0.26,0.11c-0.46,0.04-0.8-0.22-1.14-0.49
			c-0.14-0.12-0.29-0.25-0.45-0.32c-0.47-0.22-0.95-0.41-1.43-0.61c-0.19-0.08-0.39-0.14-0.59-0.18c-0.69-0.14-1.26-0.47-1.69-1.03
			c-0.17-0.23-0.15-0.52,0.05-0.71c0.18-0.17,0.32-0.38,0.51-0.62c0.29,0.08,0.63,0.19,0.98,0.24c0.15,0.02,0.31-0.07,0.47-0.1
			c0.55-0.11,1.1-0.21,1.65-0.32c0.29-0.06,0.57-0.12,0.86-0.19c0.09-0.02,0.22-0.08,0.24-0.14c0.14-0.53,0.61-0.98,0.42-1.6
			c-0.01-0.02-0.01-0.04-0.01-0.07c0.14-0.79,0.06-1.6,0.08-2.4c0.02-0.6,0.07-1.19,0.07-1.78c0-0.34-0.09-0.69-0.11-1.03
			c-0.02-0.35-0.01-0.69-0.01-1.04c0-0.41,0.02-0.83,0.03-1.24c0.01-0.7,0.03-1.4,0.04-2.1c0.01-0.28,0.02-0.56,0.01-0.85
			c0-0.07-0.05-0.13-0.08-0.2c-0.05,0.04-0.14,0.07-0.15,0.12c-0.11,0.32-0.34,0.43-0.66,0.51c-0.36,0.09-0.69,0.31-1.05,0.44
			c-0.22,0.08-0.46,0.1-0.69,0.15c-0.48,0.09-0.96,0.18-1.43,0.26c-0.18,0.03-0.37,0.07-0.55,0.05c-0.67-0.08-1.31-0.07-1.92,0.26
			c-0.29,0.16-0.44,0.03-0.47-0.29c-0.02-0.24-0.09-0.5-0.21-0.7c-0.36-0.61-0.35-1.23-0.15-1.89c0.11-0.35,0.24-0.66,0.48-0.93
			c0.22-0.25,0.43-0.26,0.59,0.05c0.1,0.19,0.21,0.27,0.41,0.23c0.3-0.07,0.6-0.16,0.91-0.21c0.71-0.11,1.38-0.61,2.16-0.27
			c0.09,0.04,0.23-0.02,0.34-0.05c0.69-0.16,1.3,0.03,1.88,0.39C342.64,94.17,342.87,94.2,343.17,94.3z"/>
		<path class="st1" d="M330.82,101.73c-0.06-0.21-0.1-0.34-0.12-0.46c-0.04-0.36-0.21-0.48-0.57-0.47
			c-0.33,0.01-0.67-0.03-1.01-0.02c-0.33,0.01-0.67,0.05-1,0.06c-0.29,0-0.58-0.05-0.87-0.05c-0.22,0-0.43,0.04-0.65,0.07
			c-0.3,0.04-0.6,0.09-0.9,0.12c-0.39,0.04-0.78,0.08-1.18,0.09c-0.47,0.01-0.93-0.04-1.4-0.03c-0.32,0.01-0.66,0.03-0.96,0.13
			c-0.82,0.27-1.62,0.58-2.43,0.88c-0.06,0.02-0.12,0.09-0.14,0.15c-0.27,0.76-0.7,1.41-1.17,2.06c-0.37,0.51-0.73,1.04-1.18,1.49
			c-0.38,0.38-0.74,0.8-1.14,1.16c-0.2,0.18-0.49,0.26-0.72,0.41c-0.59,0.38-1.15,0.79-1.76,1.14c-0.39,0.23-0.83,0.45-1.26,0.5
			c-0.37,0.04-0.78-0.14-1.14-0.3c-0.26-0.12-0.46-0.36-0.67-0.56c-0.18-0.17-0.11-0.56-0.01-0.78c0.24-0.48,0.77-0.44,1.14-0.7
			c0.41-0.29,0.89-0.5,1.36-0.69c0.46-0.19,0.82-0.52,1.22-0.79c0.19-0.13,0.45-0.15,0.66-0.27c0.83-0.45,1.52-1.08,2.22-1.71
			c0.65-0.59,1.12-1.31,1.56-2.04c0.41-0.67,0.53-1.42,0.53-2.2c0-0.4-0.03-0.81-0.01-1.21c0.02-0.31,0.11-0.61,0.18-0.92
			c0.05-0.21,0.13-0.42,0.15-0.64c0.05-0.52,0.09-1.05,0.12-1.57c0.01-0.22,0.02-0.46-0.33-0.45c-0.06,0-0.17-0.07-0.18-0.11
			c-0.06-0.37-0.26-0.73-0.07-1.12c0.19-0.4,0.56-0.51,0.92-0.25c0.25,0.19,0.5,0.2,0.77,0.09c0.5-0.2,0.98-0.45,1.5-0.59
			c0.35-0.1,0.76-0.11,1.12-0.04c0.56,0.1,1.09,0,1.63-0.08c0.5-0.07,0.98-0.24,1.48-0.32c0.84-0.13,1.69-0.23,2.54-0.32
			c0.44-0.04,0.88-0.16,1.32,0.01c0.19,0.07,0.43,0.08,0.57,0.21c0.5,0.47,1,0.37,1.55,0.14c0.31-0.13,0.45-0.37,0.56-0.64
			c0.09-0.23,0.21-0.38,0.5-0.27c0.26,0.11,0.33,0.31,0.26,0.56c-0.02,0.09-0.06,0.2-0.12,0.26c-0.77,0.74-0.99,1.71-1.13,2.71
			c-0.1,0.7-0.1,1.42-0.2,2.12c-0.14,0.97-0.39,1.93-0.48,2.9c-0.08,0.8-0.47,1.42-0.86,2.06
			C331,101.54,330.95,101.59,330.82,101.73z M332.36,92.68c-0.3,0.23-0.87,0.33-1.22,0.22c-0.29-0.1-0.6-0.18-0.91-0.2
			c-0.52-0.05-1.04-0.06-1.56-0.05c-0.37,0-0.74,0.07-1.12,0.1c-0.74,0.07-1.5,0.09-2.23,0.21c-0.71,0.11-1.35,0.05-2.01-0.27
			c-0.47-0.23-0.98-0.2-1.42,0.16c-0.07,0.05-0.15,0.08-0.23,0.12c-0.34,0.19-0.67,0.37-1,0.57c-0.07,0.04-0.11,0.17-0.13,0.27
			c-0.08,0.48-0.14,0.97-0.21,1.45c-0.06,0.39-0.13,0.77-0.17,1.16c-0.01,0.08,0.13,0.24,0.18,0.23c0.74-0.12,1.48-0.25,2.22-0.39
			c0.12-0.02,0.23-0.14,0.35-0.15c0.37-0.03,0.74-0.02,1.11-0.03c0.24-0.01,0.47-0.04,0.71-0.08c0.68-0.12,1.35-0.25,2.03-0.36
			c0.62-0.1,1.24-0.18,1.86-0.25c0.28-0.03,0.56-0.04,0.84-0.05c0.24-0.01,0.51,0.06,0.71-0.03c0.34-0.15,0.76-0.1,1.03-0.43
			c0.06-0.08,0.2-0.13,0.3-0.13c0.3,0,0.35-0.19,0.41-0.42c0.11-0.47,0.24-0.93,0.36-1.39C332.28,92.85,332.32,92.77,332.36,92.68z
			 M330.54,98.66c0.14,0.02,0.29,0.09,0.37,0.04c0.19-0.11,0.21-0.67,0.1-0.87c-0.1-0.16-0.18-0.34-0.21-0.52
			c-0.05-0.3-0.22-0.48-0.5-0.53c-0.21-0.04-0.44-0.06-0.65-0.03c-0.39,0.06-0.77,0.07-1.15,0.25c-0.24,0.11-0.6-0.05-0.91-0.07
			c-0.5-0.02-1.01,0.02-1.51-0.05c-0.34-0.05-0.63,0.01-0.92,0.13c-0.45,0.19-0.89,0.2-1.35,0.07c-0.67-0.18-1.31-0.35-2.03-0.1
			c-0.52,0.18-1,0.39-1.42,0.72c-0.11,0.08-0.2,0.25-0.21,0.38c-0.04,0.72-0.05,1.44-0.07,2.16c0,0.17,0.06,0.25,0.25,0.15
			c0.1-0.05,0.23-0.06,0.35-0.06c0.39,0,0.8,0.11,1.15,0.01c0.81-0.23,1.63-0.28,2.46-0.31c0.33-0.01,0.65-0.05,0.97-0.1
			c0.83-0.14,1.66-0.31,2.5-0.43c0.64-0.09,1.3-0.14,1.95-0.18c0.25-0.02,0.51,0.05,0.77,0.08c0.08,0.01,0.19,0.04,0.22,0.01
			c0.05-0.05,0.06-0.17,0.04-0.24C330.69,99,330.61,98.84,330.54,98.66z"/>
		<path class="st1" d="M329.73,108.75c0.09-0.26,0.2-0.5,0.26-0.74c0.12-0.49,0.2-0.98,0.32-1.47c0.07-0.29,0.17-0.58,0.28-0.87
			c0.15-0.41,0.08-0.48-0.34-0.47c-0.58,0.02-1.17-0.02-1.75-0.04c-0.2,0-0.39-0.01-0.59-0.01c-0.78,0.01-1.57,0.01-2.35,0.05
			c-0.31,0.02-0.61,0.15-0.92,0.24c-0.62,0.17-1.22,0.38-1.85,0.5c-0.44,0.08-0.8,0.29-1.18,0.48c-0.52,0.24-0.76,0.65-0.93,1.17
			c-0.23,0.69-0.5,1.38-0.87,2.01c-0.31,0.53-0.7,1.05-1.3,1.35c-0.18,0.09-0.33,0.23-0.54,0.38c0.05-0.82,0.32-1.45,0.9-1.98
			c0.01,0.15,0.02,0.28,0.04,0.47c0.46-0.52,0.77-1.04,1.05-1.6c0.25-0.5,0.39-1,0.27-1.54c-0.03-0.14-0.12-0.31-0.24-0.39
			c-0.32-0.23-0.68-0.4-0.71-0.86c-0.01-0.07-0.06-0.14-0.11-0.2c-0.19-0.23-0.25-0.44-0.04-0.7c0.22-0.26,0.5-0.3,0.8-0.26
			c0.48,0.05,0.94,0,1.38-0.21c0.22-0.1,0.45-0.24,0.68-0.26c0.89-0.08,1.78-0.1,2.66-0.17c0.25-0.02,0.49-0.13,0.75-0.17
			c0.2-0.03,0.41-0.01,0.61-0.02c0.78-0.03,1.57-0.08,2.35-0.07c0.67,0.01,1.35,0.03,2,0.17c0.32,0.07,0.59,0.42,0.94,0.69
			c0.06-0.15,0.16-0.36,0.24-0.57c0.08-0.2,0.11-0.43,0.22-0.61c0.16-0.25,0.41-0.2,0.59,0.04c0.34,0.45,0.13,0.85-0.08,1.24
			c-0.6,1.06-1,2.19-1.25,3.39c-0.12,0.58-0.33,1.15-0.54,1.71c-0.06,0.17-0.23,0.31-0.35,0.46c-0.15,0.18-0.28,0.37-0.45,0.52
			c-0.12,0.1-0.3,0.12-0.46,0.18c-0.03-0.13-0.09-0.27-0.1-0.4c-0.02-0.23,0-0.45,0-0.71c-0.23,0.01-0.46,0.02-0.7,0.04
			c-0.07,0-0.14,0.04-0.19,0.02c-0.68-0.19-1.33,0.1-1.99,0.16c-0.01,0-0.02,0.01-0.03,0.01c-0.5-0.21-0.99,0.05-1.49,0.04
			c-0.26-0.01-0.52-0.08-0.77-0.17c-0.55-0.18-1,0.09-1.46,0.31c-0.35,0.17-0.69,0.38-1.06,0.52c-0.14,0.05-0.39-0.02-0.49-0.13
			c-0.1-0.1-0.16-0.36-0.1-0.49c0.14-0.36,0.34-0.69,0.55-1.02c0.09-0.15,0.47-0.11,0.62,0c0.1,0.08,0.25,0.15,0.36,0.13
			c0.65-0.09,1.29-0.23,1.95-0.31c0.75-0.09,1.51-0.08,2.25-0.2c0.94-0.14,1.86,0,2.78,0.12
			C329.43,108.54,329.53,108.64,329.73,108.75z"/>
		<path class="st1" d="M359.94,89.12c-0.25,0.07-0.51,0.11-0.74,0.22c-0.31,0.15-0.62,0.12-0.93,0.05c-0.29-0.06-0.51,0.02-0.7,0.24
			c-0.04,0.04-0.07,0.11-0.11,0.12c-0.44,0.06-0.89,0.2-1.31,0.15c-0.41-0.05-0.89-0.1-1.16-0.53c-0.01-0.02-0.03-0.04-0.05-0.04
			c-0.76-0.36-0.91-1.07-1-1.8c-0.07-0.53-0.16-1.07-0.22-1.6c-0.01-0.09,0.03-0.2,0.08-0.3c0.13-0.27,0.29-0.53,0.42-0.81
			c0.26-0.61,0.64-1.11,1.22-1.44c0.27-0.15,0.66,0.05,0.74,0.38c0.01,0.04,0.02,0.09,0.01,0.13c-0.1,0.9,0.62,1.01,1.27,0.98
			c0.23-0.01,0.47,0.03,0.69,0.08c0.32,0.07,0.65,0.16,0.96,0.28c0.18,0.07,0.33,0.21,0.5,0.32c0.68,0.44,1.04,1.11,1.15,1.88
			c0.05,0.36-0.12,0.77-0.22,1.14c-0.04,0.16-0.12,0.33-0.22,0.46c-0.08,0.09-0.23,0.13-0.34,0.18
			C359.97,89.18,359.95,89.15,359.94,89.12z"/>
		<path class="st1" d="M324.02,84.56c-0.51,0.58-1.04,1.16-1.54,1.75c-0.54,0.64-1.03,1.33-1.58,1.96
			c-0.44,0.51-0.94,0.97-1.42,1.44c-0.07,0.06-0.18,0.12-0.27,0.11c-0.69-0.05-1.15,0.41-1.68,0.73c-0.36,0.22-0.76,0.35-1.14,0.54
			c-0.22,0.11-0.41,0.3-0.63,0.39c-0.6,0.25-1.24,0.4-1.81,0.7c-0.56,0.3-1.08-0.05-1.6,0.06c-0.05,0.01-0.14-0.05-0.16-0.1
			c-0.07-0.27-0.3-0.33-0.52-0.39c-0.41-0.12-0.59-0.5-0.86-0.78c-0.12-0.13-0.25-0.24-0.37-0.37c-0.07-0.08-0.21-0.21-0.18-0.25
			c0.06-0.11,0.17-0.22,0.29-0.27c0.36-0.16,0.73-0.31,1.09-0.45c0.27-0.1,0.55-0.19,0.82-0.29c0.08-0.03,0.15-0.08,0.23-0.11
			c0.66-0.24,1.31-0.53,1.98-0.7c0.48-0.12,0.99-0.08,1.49-0.11c0.61-0.04,1.19-0.21,1.76-0.45c0.48-0.2,0.98-0.37,1.46-0.59
			c0.41-0.18,0.8-0.4,1.19-0.63c0.76-0.44,1.51-0.88,2.26-1.34c0.24-0.15,0.46-0.34,0.7-0.5c0.18-0.12,0.38-0.2,0.57-0.31
			C324.08,84.6,324.05,84.58,324.02,84.56z"/>
		<path class="st1" d="M361.98,94.86c-0.18,0.02-0.35,0.04-0.52,0.07c-0.05,0.01-0.12,0-0.15,0.04c-0.26,0.3-0.75,0.3-0.89,0.77
			c-0.08,0.27-0.33,0.24-0.58,0.15c-0.24-0.09-0.57-0.09-0.8,0c-0.31,0.12-0.58,0.04-0.81-0.08c-0.63-0.34-1.27-0.4-1.95-0.24
			c-0.31,0.08-0.61,0.16-0.91,0.26c-0.45,0.14-0.88-0.08-1.04-0.62c-0.08-0.28-0.08-0.59-0.1-0.89c-0.01-0.23-0.03-0.46,0.02-0.68
			c0.06-0.26,0.15-0.53,0.3-0.74c0.15-0.2,0.4-0.32,0.6-0.49c0.12-0.1,0.21-0.24,0.33-0.35c0.07-0.06,0.18-0.15,0.23-0.13
			c0.09,0.04,0.22,0.15,0.22,0.23c0.01,0.15-0.03,0.32-0.09,0.47c-0.05,0.14-0.27,0.3-0.06,0.42c0.18,0.1,0.43,0.14,0.63,0.09
			c0.45-0.1,0.87-0.32,1.32-0.4c0.26-0.05,0.55,0.07,0.83,0.09c0.18,0.01,0.36-0.06,0.54-0.04c0.61,0.06,1.21,0.1,1.6,0.71
			c0.13,0.21,0.43,0.33,0.67,0.43C361.76,94.1,361.96,94.37,361.98,94.86z"/>
		<path class="st1" d="M287.86,96.24c-0.66,0.11-1.28-0.03-1.87-0.31c-0.36-0.16-0.7-0.03-1.02,0.05c-0.56,0.14-1.1,0.38-1.66,0.5
			c-0.35,0.08-0.75,0.19-1.09-0.11c-0.22-0.2-0.26-0.41-0.05-0.61c0.32-0.3,0.55-0.64,0.59-1.1c0.02-0.23,0.15-0.35,0.39-0.42
			c0.28-0.07,0.53-0.21,0.8-0.33c0.05-0.02,0.09-0.07,0.14-0.08c0.16-0.05,0.31-0.1,0.47-0.14c-0.05,0.15-0.1,0.29-0.14,0.44
			c-0.02,0.07-0.03,0.14-0.04,0.21c0.08,0.01,0.17,0.05,0.24,0.03c0.41-0.08,0.81-0.17,1.21-0.24c0.38-0.06,0.77-0.12,1.15-0.15
			c0.8-0.05,1.61-0.12,2.41-0.09c0.33,0.01,0.73,0.08,0.91,0.51c0.07,0.17,0.37,0.24,0.55,0.37c0.08,0.06,0.15,0.14,0.22,0.21
			c-0.07,0.06-0.13,0.13-0.21,0.18c-0.32,0.2-0.62,0.45-0.97,0.57c-0.66,0.24-1.34,0.4-2.02,0.59
			C287.88,96.31,287.87,96.28,287.86,96.24z"/>
		<path class="st1" d="M325.81,83.84c-0.41,0.23-0.82,0.46-1.23,0.69c-0.02-0.04-0.05-0.08-0.07-0.12c0.19-0.14,0.38-0.29,0.58-0.42
			c0.37-0.25,0.74-0.49,0.97-0.9c0.17-0.3,0.6-0.34,0.9-0.18c0.74,0.37,1.44,0.79,2.24,1.03c0.52,0.16,1,0.47,1.5,0.7
			c0.55,0.26,1.1,0.53,1.68,0.73c0.28,0.1,0.38,0.28,0.44,0.5c0.09,0.32,0.18,0.66,0.19,0.99c0.01,0.22-0.09,0.46-0.16,0.68
			c-0.02,0.05-0.13,0.11-0.19,0.1c-0.46-0.08-0.92-0.15-1.38-0.26c-0.29-0.07-0.6-0.15-0.85-0.3c-0.24-0.13-0.4-0.4-0.64-0.54
			c-0.46-0.26-0.96-0.46-1.43-0.71c-0.17-0.09-0.31-0.24-0.47-0.35c-0.43-0.28-0.89-0.52-1.3-0.83
			C326.3,84.43,326.07,84.12,325.81,83.84z"/>
		<path class="st1" d="M362.05,98.5c0.01,0.37-0.33,0.42-0.53,0.59c-0.07,0.06-0.18,0.1-0.21,0.18c-0.11,0.3-0.24,0.5-0.64,0.47
			c-0.18-0.01-0.35,0.27-0.55,0.38c-0.25,0.13-0.53,0.3-0.8,0.32c-0.8,0.06-1.55,0.24-2.21,0.71c-0.18,0.12-0.4,0.18-0.58,0.31
			c-0.2,0.14-0.4,0.3-0.55,0.49c-0.34,0.42-0.57,0.47-1.02,0.18c-0.3-0.19-0.52-0.42-0.5-0.82c0.01-0.27-0.04-0.54-0.04-0.81
			c0-0.33,0.26-0.49,0.49-0.65c0.2-0.14,0.41-0.28,0.62-0.42c0.07-0.04,0.15-0.09,0.22-0.08c0.04,0,0.08,0.12,0.09,0.18
			c0.04,0.32,0.12,0.37,0.41,0.21c0.46-0.26,0.91-0.54,1.38-0.78c0.24-0.13,0.51-0.2,0.77-0.29c0.41-0.13,0.81-0.27,1.23-0.38
			c0.17-0.04,0.36-0.03,0.54,0c0.35,0.05,0.67,0.19,1.04,0.11C361.46,98.33,361.75,98.45,362.05,98.5z"/>
		<path class="st1" d="M328.06,89.5c-0.49,0.04-0.99,0.18-1.46,0.1c-0.69-0.12-1.31,0.19-1.98,0.12c-0.39-0.04-0.79-0.08-1.18-0.18
			c-0.37-0.09-0.95,0.04-1.17,0.36c-0.28,0.4-0.69,0.59-1.12,0.75c-0.27,0.1-0.46-0.06-0.38-0.33c0.1-0.33,0.26-0.64,0.39-0.96
			c0.08-0.2,0.15-0.4,0.22-0.61c0.07-0.19,0.13-0.29,0.39-0.23c0.29,0.07,0.59,0.07,0.92-0.04c0.48-0.15,1.01-0.14,1.51-0.2
			c0.22-0.03,0.43-0.04,0.65-0.07c0.31-0.04,0.61-0.09,0.92-0.14c0.05-0.01,0.11,0,0.16-0.02c1.04-0.35,2.02-0.08,3,0.27
			c0.2,0.07,0.43,0.53,0.39,0.77c-0.06,0.34-0.38,0.33-0.61,0.4c-0.2,0.06-0.43,0.04-0.65,0.06
			C328.06,89.53,328.06,89.51,328.06,89.5z"/>
		<path class="st1" d="M285.86,88.48c0.04,0.41,0.04,0.4,0.46,0.35c0.19-0.02,0.39,0.01,0.59,0c0.3-0.02,0.61-0.03,0.9-0.11
			c0.58-0.17,1.16-0.12,1.75-0.09c0.41,0.02,0.83,0.03,1.04,0.48c0.02,0.03,0.07,0.07,0.11,0.07c0.2,0.04,0.36,0.14,0.31,0.35
			c-0.04,0.15-0.16,0.34-0.29,0.39c-0.31,0.12-0.64,0.19-0.96,0.26c-0.31,0.06-0.62,0.09-0.93,0.14c-0.38,0.06-0.76,0.15-1.14,0.18
			c-0.13,0.01-0.27-0.08-0.39-0.14c-0.52-0.27-1.02-0.43-1.58-0.08c-0.17,0.1-0.39,0.13-0.59,0.17c-0.27,0.05-0.46-0.13-0.42-0.43
			c0.03-0.22,0.07-0.43,0.12-0.64C284.93,88.85,285.3,88.55,285.86,88.48z"/>
	</g>
</g>
</svg>
