<?xml version="1.0" encoding="UTF-8"?><svg xmlns="http://www.w3.org/2000/svg" viewBox="0 0 1242.73 143.99"><defs><style>.d{fill:#f6c20d;}.e{fill:#6e35fc;}</style></defs><g id="a"/><g id="b"><g id="c"><g><g><path class="e" d="M168.96,143.71l-.03-10.44c0-6.38,5.19-11.58,11.57-11.58l78.25-.07c7.96,0,14.44-6.49,14.44-14.47,0-5.59-3.12-10.59-8.15-13.03l-.2-.1-71.1-22.83c-14.82-5.11-24.82-19.04-24.82-34.63C168.92,16.41,185.3,0,205.42,0h89.83V10.41c0,6.39-6.56,11.58-12.94,11.58l-76.89,.1c-7.96,0-14.44,6.5-14.44,14.48,0,6.17,3.91,11.67,9.72,13.68l72.67,23.39c13.18,5.67,21.87,18.87,21.87,33.52,0,20.16-16.38,36.56-36.5,36.56h-89.79Z"/><path class="e" d="M522.81,71.99l61.38-61.38-6.88-6.85c-4.81-4.81-12.41-5.03-16.94-.5l-48.56,48.56L463.25,3.26c-4.53-4.53-12.13-4.31-16.94,.5l-6.86,6.85,56.78,56.79h0l4.54,4.54v71.77h22.08l-.04-71.72Z"/><path class="d" d="M148.5,0h-30.8l7.56,7.56L.19,132.74l8.01,8.02c4.23,4.23,11.02,4.3,15.17,.15L140.93,23.24l7.56,7.56V0Z"/><path class="e" d="M23.3,3.27c-4.09-4.17-10.8-4.2-14.94-.07L0,11.56l53.18,54.91,15.92-15.92L23.3,3.27Z"/><path class="e" d="M97.4,79.78l-15.92,15.92,43.72,45.15c4.09,4.17,10.81,4.2,14.94,.07l8.36-8.37-51.1-52.77Z"/><path class="e" d="M437.24,10.85l-5.28-5.98c-5.14-5.82-14.03-6.37-19.86-1.24l-74.93,66.01V.11h-10.29c-6.32,0-11.44,5.12-11.44,11.44V143.83h21.73V74.09l75.61,66.61c5.45,4.8,13.77,4.28,18.58-1.16l5.88-6.66-69.64-61.03L437.24,10.85Z"/></g><g><path class="e" d="M811.93,35.03v11.08h97.71c2.34,0,4.24-1.9,4.24-4.24v-11.08h-97.71c-2.34,0-4.24,1.9-4.24,4.24Z"/><path class="e" d="M1102.91,76.63l.04,56.48c0,5.85,4.75,10.59,10.6,10.59h114.59c5.85,0,10.6-4.75,10.6-10.6l-.04-56.47h-135.78Zm24.04,50.9l-.03-35.99h87.13l.03,35.99h-87.13Z"/><path class="e" d="M1104.55,47.41c-2.34,0-4.24,1.9-4.24,4.24v11.74h136.63c2.34,0,4.24-1.9,4.24-4.24v-11.74h-136.63Z"/><path class="e" d="M701,130.47v-14.86h46.91c2.34,0,4.24-1.9,4.24-4.24v-9.05h-51.17v-14.42h46.91c2.34,0,4.24-1.9,4.24-4.24v-9.05h-51.17v-8.82h-24.1v8.82h-37.18v-8.82h-18.23c-2.59,0-4.7,2.1-4.69,4.7l.02,24.89h18.68c2.34,0,4.24-1.9,4.24-4.24v-3.24h37.18v14.42h-55.87c-2.34,0-4.24,1.9-4.24,4.24v9.05h60.12v14.86h-56.89c-2.34,0-4.24,1.9-4.24,4.24v9.05h133.2c2.34,0,4.24-1.9,4.24-4.24v-9.05h-52.2Z"/><path class="e" d="M740.8,60.66c5.85,0,11.33-4.75,11.32-10.6V.06l-124.41,.03c-6.08,0-11,4.93-11,11l.02,49.56h124.06Zm-11.66-12.94h-89.48v-11.28h89.47v11.28Zm-.01-35.09v11.31h-89.47V12.63h89.47Z"/><path class="e" d="M1076.96,71.42c2.34,0,4.24-1.9,4.24-4.24v-11.12h-60.13V16.03h50.62c2.34,0,4.24-1.9,4.24-4.24V.04h-128.27c-2.34,0-4.24,1.9-4.24,4.24v11.75h54.58V56.06h-55.72c-2.34,0-4.24,1.9-4.24,4.24v11.12l59.38-.06-61.56,61.56,6.75,6.73c4.72,4.72,12.18,4.94,16.63,.49l50.29-50.29,50.48,50.48c4.45,4.45,11.91,4.23,16.63-.49l6.74-6.73-61.74-61.75,55.32,.06Z"/><path class="e" d="M1120.82,38.56l22.5-22.5h53.33l22.7,22.7c4.45,4.45,11.91,4.23,16.63-.49l6.74-6.73-28.02-28.16c-2.13-2.14-5.02-3.34-8.04-3.34h-73.2c-3,0-5.88,1.19-8.01,3.31l-28.04,27.99,6.75,6.73c4.72,4.72,12.18,4.94,16.63,.49Z"/><path class="e" d="M918.37,96.84l-8.91-8.91c-2.44-2.44-6.39-2.44-8.83,0l-8.26,8.26-14-19.02h33.16c2.34,0,4.24-1.9,4.24-4.24v-11.11h-112.01V14.98h107.76c2.33,0,4.22-1.89,4.22-4.22V.06h-122.9c-6.08,0-11,4.92-11,11V143.74h21.92V77.17h16.46v58.26c0,4.49,3.64,8.12,8.12,8.12h28.26c3.51,0,6.36-2.85,6.36-6.36v-8.62h-21.06v-51.4h10.66l46.09,63.31c4.24,4.24,11.36,4.04,15.86-.47l5.83-5.83-16.68-22.65,14.7-14.7Z"/></g></g></g></g></svg>