<svg width="1953" height="512" viewBox="0 0 1953 512" fill="none" xmlns="http://www.w3.org/2000/svg">
<path d="M472 232.049C471.995 269.993 459.145 306.819 435.54 336.533C411.936 366.246 378.967 387.097 342 395.692L304 448L266 395.692C229.033 387.097 196.064 366.246 172.46 336.533C148.855 306.819 136.005 269.993 136 232.049C136 227.203 136.203 222.408 136.61 217.662C140.193 175.744 159.38 136.696 190.376 108.242C221.372 79.7884 261.92 64 304 64C346.08 64 386.628 79.7884 417.624 108.242C448.621 136.696 467.807 175.744 471.39 217.662C471.797 222.401 472 227.196 472 232.049Z" fill="#FFA300"/>
<path d="M375.41 176.92L312 213.54C309.568 214.944 306.809 215.684 304 215.684C301.191 215.684 298.432 214.944 296 213.54L232.59 176.92C231.984 176.568 231.481 176.064 231.131 175.456C230.781 174.849 230.597 174.161 230.597 173.46C230.597 172.759 230.781 172.071 231.131 171.463C231.481 170.856 231.984 170.352 232.59 170L296 133.39C298.432 131.986 301.191 131.246 304 131.246C306.809 131.246 309.568 131.986 312 133.39L375.41 170C376.016 170.352 376.519 170.856 376.869 171.463C377.219 172.071 377.403 172.759 377.403 173.46C377.403 174.161 377.219 174.849 376.869 175.456C376.519 176.064 376.016 176.568 375.41 176.92Z" fill="white"/>
<path d="M292 248.19V318.14C292.001 318.843 291.817 319.533 291.466 320.142C291.116 320.751 290.611 321.257 290.003 321.608C289.394 321.96 288.704 322.146 288.001 322.146C287.299 322.146 286.609 321.961 286 321.61L224 285.81C221.574 284.41 219.559 282.397 218.155 279.974C216.751 277.55 216.008 274.801 216 272V202C215.999 201.297 216.183 200.607 216.534 199.998C216.884 199.389 217.389 198.883 217.997 198.531C218.606 198.18 219.296 197.994 219.999 197.994C220.701 197.994 221.391 198.179 222 198.53L284 234.33C286.433 235.735 288.453 237.755 289.857 240.188C291.262 242.621 292.001 245.381 292 248.19V248.19Z" fill="white"/>
<path d="M392 202V272C392.001 274.809 391.262 277.569 389.857 280.002C388.453 282.435 386.433 284.455 384 285.86L322 321.66C321.391 322.011 320.701 322.196 319.999 322.196C319.296 322.196 318.606 322.01 317.997 321.658C317.389 321.307 316.884 320.801 316.534 320.192C316.183 319.583 315.999 318.893 316 318.19V248.19C315.999 245.381 316.738 242.621 318.143 240.188C319.547 237.755 321.567 235.735 324 234.33L386 198.53C386.609 198.179 387.299 197.994 388.001 197.994C388.704 197.994 389.394 198.18 390.003 198.531C390.611 198.883 391.116 199.389 391.466 199.998C391.817 200.607 392.001 201.297 392 202V202Z" fill="white"/>
<path fill-rule="evenodd" clip-rule="evenodd" d="M711.768 316.458H712.288V335.629H746.62V176.044H712.288V195.733H711.768C702.925 182.261 684.718 171.899 660.79 171.899C608.772 171.899 576 216.458 576 255.837C576 297.287 606.691 340.292 659.229 340.292C681.077 340.292 700.844 330.966 711.768 316.458ZM713.849 255.767C713.849 284.264 690.44 307.58 663.391 307.58C635.301 307.58 612.413 284.264 612.413 255.767C612.413 227.269 635.301 203.953 663.391 203.953C690.44 203.953 713.849 227.269 713.849 255.767Z" fill="black"/>
<path fill-rule="evenodd" clip-rule="evenodd" d="M792.894 209.348H770.526V177.224H792.894V150.281C792.894 120.747 811.101 92.25 852.715 92.25C861.038 92.25 871.962 93.8044 879.245 96.3951L865.2 127.483C860.518 125.411 856.357 124.374 850.114 124.374C836.069 124.374 827.746 135.773 827.746 147.69V176.706H862.079V208.83H827.746V336.291H793.414V209.348H792.894Z" fill="black"/>
<path fill-rule="evenodd" clip-rule="evenodd" d="M898.809 208.293H879.042V176.168H898.809V128.5H933.141V176.168H957.59V208.293H933.141V335.754H898.809V208.293V208.293Z" fill="black"/>
<path fill-rule="evenodd" clip-rule="evenodd" d="M1057.33 340.293C1085.94 340.293 1112.47 325.785 1131.72 301.433L1102.59 284.852C1090.63 300.915 1075.02 309.723 1056.29 309.723C1032.37 309.723 1009.48 292.106 1007.4 267.754H1140.56V261.536C1140.56 199.36 1090.63 171.899 1057.33 171.899C1001.15 171.899 968.903 213.35 968.903 255.837C968.903 298.324 1001.15 340.293 1057.33 340.293ZM1051.73 201.881C1073.58 201.881 1091.79 214.834 1099.07 239.187H1006.48C1012.2 215.353 1029.89 201.881 1051.73 201.881Z" fill="black"/>
<path fill-rule="evenodd" clip-rule="evenodd" d="M1166.75 175.145H1199.01V192.762H1199.53C1205.25 179.808 1217.21 171 1231.26 171C1239.06 171 1245.3 173.073 1249.98 176.181L1237.5 210.378C1234.38 207.788 1228.14 205.715 1224.49 205.715C1212.01 205.715 1200.57 215.041 1200.57 230.067V335.767H1166.23V175.145H1166.75Z" fill="black"/>
<path fill-rule="evenodd" clip-rule="evenodd" d="M1275.31 287.874C1287.79 300.827 1307.56 311.19 1325.76 311.19C1345.53 311.19 1357.5 299.791 1357.5 290.983C1357.5 280.62 1349.17 274.92 1336.69 272.33L1316.92 268.703C1271.67 260.413 1259.18 245.905 1259.18 223.107C1259.18 196.164 1282.07 170.775 1322.12 170.775C1344.49 170.775 1363.74 177.511 1385.59 193.055L1365.82 217.408C1349.17 203.418 1334.09 199.791 1322.64 199.791C1307.56 199.791 1292.99 207.045 1292.99 219.998C1292.99 229.325 1300.8 234.506 1313.8 236.579L1348.65 243.314C1377.26 248.496 1391.31 261.967 1391.31 285.801C1391.31 309.117 1372.06 339.687 1323.16 339.687C1296.11 339.687 1272.71 330.361 1250.86 311.708L1275.31 287.874V287.874Z" fill="black"/>
<path fill-rule="evenodd" clip-rule="evenodd" d="M1411.61 128.5H1445.94V196.376H1446.46C1455.83 181.35 1473.51 172.023 1495.36 172.023C1529.17 172.023 1557.78 200.003 1557.78 239.899V336.272H1523.45V247.153C1523.45 218.137 1508.36 206.22 1485.48 206.22C1463.11 206.22 1445.94 220.21 1445.94 246.635V336.272H1411.61V128.5V128.5Z" fill="black"/>
<path fill-rule="evenodd" clip-rule="evenodd" d="M1623.97 141.253C1623.97 130.89 1615.13 122.082 1604.72 122.082C1593.8 122.082 1585.48 130.372 1585.48 141.253C1585.48 151.615 1594.32 160.424 1604.72 160.424C1615.13 160.424 1623.97 151.615 1623.97 141.253ZM1622.06 176.393H1587.72V335.979H1622.06V176.393Z" fill="black"/>
<path fill-rule="evenodd" clip-rule="evenodd" d="M1688.98 195.145H1688.46V175.974H1654.13V391H1688.46V315.871H1688.98C1697.83 329.342 1716.03 339.705 1739.96 339.705C1791.98 339.705 1824.75 295.145 1824.75 255.767C1824.75 214.316 1794.06 171.311 1741.52 171.311C1719.67 171.311 1701.47 180.119 1688.98 195.145ZM1686.9 255.767C1686.9 227.27 1710.31 203.953 1737.36 203.953C1765.45 203.953 1788.33 227.27 1788.33 255.767C1788.33 284.264 1765.45 307.58 1737.36 307.58C1710.31 307.58 1686.9 284.264 1686.9 255.767Z" fill="black"/>
</svg>
