<svg id="logo" xmlns="http://www.w3.org/2000/svg" viewBox="0 0 1275.45 267.28"><defs><style>.cls-1{fill:#099dfd;}</style></defs><path class="cls-1" d="M1302.54,549.72A37.73,37.73,0,1,1,1340.27,512a37.77,37.77,0,0,1-37.73,37.73m0-106.16A68.43,68.43,0,1,0,1371,512a68.51,68.51,0,0,0-68.43-68.43" transform="translate(-322.27 -406.36)"/><path class="cls-1" d="M1416.4,461.19l-.86.83-.92.88-.59-1.11-.57-1.06a32.67,32.67,0,0,0-24.29-16.87l-2.54-.34V580.46l2.56-.37c14-2,28.14-12.78,28.14-32.21V512a38.09,38.09,0,0,1,33.86-37.54l2-.2V443.54l-2.46.24C1438.83,445,1427,451,1416.4,461.19" transform="translate(-322.27 -406.36)"/><path class="cls-1" d="M995.67,549.77A37.73,37.73,0,1,1,1033.4,512a37.78,37.78,0,0,1-37.73,37.73m43.92-92.65-.54.75-.57.8-.79-.6-.74-.56a67.71,67.71,0,0,0-41.28-13.9,68.43,68.43,0,1,0,0,136.86A67.72,67.72,0,0,0,1037,566.56l.74-.56.78-.59.58.79.54.75a32.78,32.78,0,0,0,22,13.21l2.55.35V443.56l-2.55.35a32.78,32.78,0,0,0-22,13.21" transform="translate(-322.27 -406.36)"/><path class="cls-1" d="M1529.3,549.77A37.74,37.74,0,1,1,1567,512a37.78,37.78,0,0,1-37.73,37.73m65.88-105.86a32.78,32.78,0,0,0-22,13.21l-.54.75-.58.8-.78-.6-.74-.56a67.71,67.71,0,0,0-41.28-13.9,68.43,68.43,0,1,0,0,136.85,67.71,67.71,0,0,0,41.28-13.9l.74-.56.78-.59.58.79.54.75a32.78,32.78,0,0,0,22,13.21l2.55.35V443.56Z" transform="translate(-322.27 -406.36)"/><path class="cls-1" d="M1150.16,474.26h.06a37.73,37.73,0,1,1-.06,0m42.77,91.11a68.29,68.29,0,0,0,13.9-91.73c-1-1.46-2.06-2.87-3.16-4.24,8.41-5.34,13.27-14.33,14.57-23.28l.38-2.56h-68.73a68.38,68.38,0,0,0-42.44,121.8,69,69,0,0,0-8.2,7.74L1120.12,596a37.72,37.72,0,1,1,50,54.78L1191,673.64a68.33,68.33,0,0,0,1.93-108.27" transform="translate(-322.27 -406.36)"/><path class="cls-1" d="M542.66,446.11V421.27H448.4V406.36l-2.37.34c-8.68,1.26-17.4,6.12-22.21,14.57H325.61v24.84H420v16.56H338.71v24.84h191V462.67H448.4V446.11Z" transform="translate(-322.27 -406.36)"/><path class="cls-1" d="M791.24,446.89A29.4,29.4,0,0,0,765,421.27H574.19V641.11l2.37-.34c12.94-1.87,26-11.76,26-29.64v-165H756.3a6.55,6.55,0,0,1,6.57,6.53s0,148.29,0,148.32a34.64,34.64,0,0,1-16.45,29.43l19.29,21A62.7,62.7,0,0,0,791.24,601Z" transform="translate(-322.27 -406.36)"/><path class="cls-1" d="M755.74,474l-2-.67c-10.9-3.68-25.12-1.12-32.3,12.91L713,502.8l-8.72-17h0a26.5,26.5,0,0,0-9.18-10.41l-.14-.09a23.68,23.68,0,0,0-24.45,0l-.43.27a26.64,26.64,0,0,0-8.86,10.15s0,0,0,0,0,0,0,.05l-8.73,17L644,486.28c-7.18-14-21.39-16.59-32.3-12.91l-2,.67,28.74,56.12-28.74,56.11,2,.68c10.91,3.67,25.12,1.11,32.3-12.91l8.46-16.52,8.73,17s0,0,0,.05,0,0,0,0a26.75,26.75,0,0,0,8.86,10.16c.14.09.28.18.43.26a23.62,23.62,0,0,0,24.45,0l.14-.08a26.57,26.57,0,0,0,9.18-10.41v0l8.72-17L721.45,574c7.18,14,21.4,16.58,32.3,12.91l2-.68L727,530.16Zm-73,87.87-16.26-31.75,16.26-31.75L699,530.16Z" transform="translate(-322.27 -406.36)"/><path class="cls-1" d="M529.71,504.08h-191s0,96.75,0,96.88a34.64,34.64,0,0,1-16.45,29.43l19.29,21A62.7,62.7,0,0,0,367.08,601V577.4H503.43a29.44,29.44,0,0,0,26.22-25.52ZM367.08,528.92H420v23.64H367.08Zm134.19,17.42a6.24,6.24,0,0,1-6.25,6.22H448.4V528.92h52.87Z" transform="translate(-322.27 -406.36)"/></svg>